<?xml version="1.0" encoding="UTF-8"?>
<svg id="Layer_2" data-name="Layer 2" xmlns="http://www.w3.org/2000/svg" viewBox="0 0 701.65 814.48">
  <defs>
    <style>
      .cls-1 {
        fill: #2b2726;
      }
    </style>
  </defs>
  <path class="cls-1" d="M673.43,666.12l-29.93-15.39s35.03,4.68,58.15-4.91c-33.44-9.34-72.4-25.94-89.96-51.42,26.82,14.4,77.16,17.88,77.16,17.88l-15.97-23.77s11.47,2.01,18.95-3.52c-11.8,1.08-27.61-5.82-27.61-5.82,0,0,22.98-13.74,36.2-30.44-12.02,7.22-82.61,26.38-121.75,17.02,30.94-5.48,49.28-32.66,49.28-32.66,0,0-37.87,20.42-79.9,22.34-42.03,1.92-37.17-3.29-75.51-27.15,18.36,10.75,41.96,8.38,41.96,8.38,0,0-15.7-3.61-28.74-18.94,18.16,11.42,56.07,10.52,56.07,10.52l-20.01-7.84s33.47,3.86,50.63-6.83c-15.77,.56-34.81-4.69-50.67-19.04,27.66,.78,65.54-.56,109.39-31.72-8.69,2.28-30.51-.89-45.74-6.82,29.67-7.41,42.85-25.31,42.85-25.31,0,0-10.38,4.2-18.53,6.03,5.77-4.37,6.43-10.31,2.86-12.05,5.59-3.16,7.89-9.27,7.89-9.27,0,0-5.41-1.12-19.86,5.85-14.44,6.98-69.92-.34-69.92-.34,0,0,26.78-3.29,41.38-16.23-65.34,12.54-122.76-2.2-125.13-4.09-2.37-1.89-3.35-7.99-6.84-13.57-3.49-5.58-9.37-7.56-7.94-10.57,1.43-3.01,2.55-8.53,4.28-9.14,1.73-.61,3.39-.34,7.64,5.21,4.25,5.55,8.66,6.16,12.14,5.49,3.48-.67,2.47,1.56,7.23,2.81,4.76,1.26,9.64-.34,10.58-7.72,9.85,8.86,16.46,3.58,22.05,3.39,5.58-.2,18.87-2.64,31.99-6.72,13.12-4.08,18.04-7.55,32.05-5.08-9.74-14.89-38.92-18.58-53.42-13.24,4.43-4.87,11.67-7.87,18.56-8.33,6.89-.46,10.95-.39,15.29-4.82,4.34-4.43,11.16-3.79,15.29-7.89,4.13-4.09,10.97-6.09,24.71-8.11-7.15-3.69-23.64-2.01-23.64-2.01,0,0,2.54-2.61,1.15-7.72,1.15-1.47,13.31-11.11,28.16-12.73-22.28-6.78-42.28,4.24-68.36,7.68-26.08,3.44-39.28-12.39-39.28-12.39,0,0,24.31,1.19,31.01-7.67-23.9,6.11-71.52-13.55-77.54-22.4-6.01-8.85-10.77-7.07-15.92-16.1-5.14-9.03-4.76-10.58,.01-16.23,3.04-3.6,3.95-8.18,3.95-8.18,0,0,14.05,8.71,17.62,8.44,3.57-.27,8.01-2.91,11.47-.26,3.46,2.66,6.94,2.09,9.87,2.14,2.93,.04,4.28,5.4,6.96,6.77,2.68,1.37,12.45,2.7,14.55,.22,2.1-2.49-.68-19.27-.68-19.27,18.59,10.96,26.09,6.09,26.02,4.12-.07-1.97-16.8-10.15-28.43-22.68,12.07,6.37,31.32,11.39,48.44-.62-28.9,5.26-54.33-27.61-71.42-31.24-17.09-3.64-29.58-9.77-44.83-19.32,37.04-2.48,45.21-23.67,45.21-23.67,0,0-24.52,5.25-40.47,.55-1.25-10.48-8.26-10.38-8.49-12.71-.23-2.33,2.67-7.26-3.02-11,10.4,.66,16-2.17,16-2.17,0,0-12.9-5.1-20.65-5.12-7.75-.02-13.62-.69-20.69-6.43,9.45-1.5,4.22-8.92,5.79-9.85,1.58-.93,4.45-10.68,2.65-16.03-1.8-5.35-6.52-2.55-7.85-7.03-1.33-4.48-5.84-8.13-11.46-5.73-5.62,2.39-13.45-4.06-14.35-13.23-.91-9.18,4.61-10.1,4.17-14.47s-7.58-7.63-8.56-14.61c-.85-6.1-1.09-10.44-5.52-11.28h0s0,0,0,0c-.57-.11-3.23-.08-3.69,0h-.02c-4.78,.83-4.86,5.23-5.52,11.54-.73,7.01-7.74,10.52-8.03,14.9-.29,4.38,5.26,5.11,4.67,14.32-.58,9.2-8.18,15.92-13.88,13.73-5.7-2.19-10.08,1.61-11.25,6.14-1.17,4.53-5.99,1.9-7.6,7.3-1.61,5.41,1.61,15.05,3.21,15.92,1.61,.88-3.36,8.47,6.14,9.64-6.87,5.99-12.71,6.87-20.45,7.16-7.74,.29-20.45,5.84-20.45,5.84,0,0,5.7,2.63,16.07,1.61-5.55,3.94-2.48,8.77-2.63,11.1-.15,2.34-7.16,2.48-8.03,13-15.78,5.26-40.47,.88-40.47,.88,0,0,8.91,20.89,46.02,22.06-14.9,10.08-27.17,16.65-44.12,20.89-16.95,4.24-41.2,37.98-70.27,33.75,17.53,11.39,36.59,5.7,48.43-1.1-11.18,12.93-27.61,21.69-27.61,23.67s7.67,6.57,25.86-5.04c0,0-2.19,16.87,0,19.28,2.19,2.41,11.91,.73,14.54-.73s3.8-6.87,6.72-7.01c2.92-.15,6.43,.29,9.79-2.48,3.36-2.78,7.89-.29,11.47-.15,3.58,.15,17.31-9.06,17.31-9.06,0,0,1.07,4.54,4.24,8.03,4.97,5.48,5.41,7.01,.58,16.22-4.82,9.2-9.64,7.6-15.34,16.65-5.7,9.06-52.59,30.39-76.7,25.13,7.01,8.62,31.26,6.57,31.26,6.57,0,0-12.64,16.29-38.82,13.77-26.19-2.52-46.57-12.82-68.59-5.26,14.9,1.1,27.39,10.3,28.6,11.72-1.21,5.15,1.42,7.67,1.42,7.67,0,0-16.54-1.1-23.56,2.85,13.81,1.53,20.71,3.29,24.98,7.23,4.27,3.94,11.07,3.07,15.56,7.34,4.49,4.27,8.55,4.05,15.45,4.27,6.9,.22,14.24,2.96,18.85,7.67-14.68-4.82-43.72-.11-52.92,15.12,13.91-2.96,18.95,.33,32.21,3.94,13.26,3.62,26.62,5.59,32.21,5.59s12.38,5.04,21.91-4.16c1.21,7.34,6.14,8.77,10.85,7.34,4.71-1.42,3.62-3.62,7.12-3.07,3.51,.55,7.89-.22,11.94-5.92,4.05-5.7,5.7-6.03,7.45-5.48,1.75,.55,3.07,6.03,4.6,8.98,1.53,2.96-4.27,5.15-7.56,10.85-3.29,5.7-4.05,11.83-6.35,13.81-2.3,1.97-59.17,18.74-124.9,8.51,15.05,12.42,41.93,14.75,41.93,14.75,0,0-55.18,9.28-69.87,2.81-14.68-6.46-20.05-5.15-20.05-5.15,0,0,2.52,6.03,8.22,8.98-3.51,1.86-2.63,7.78,3.29,11.94-8.22-1.53-18.74-5.37-18.74-5.37,0,0,13.81,17.42,43.72,23.78-15.01,6.46-36.7,10.41-45.47,8.44,44.92,29.58,82.83,29.58,110.44,27.83-15.34,14.9-34.18,20.82-49.96,20.82,17.53,10.08,50.84,5.04,50.84,5.04l-19.72,8.55s37.91-.44,55.66-12.49c-12.49,15.78-28.05,19.94-28.05,19.94,0,0,23.67,1.53,41.63-9.86-37.47,25.2-32.43,30.24-74.5,29.8-42.07-.44-80.64-19.5-80.64-19.5,0,0,19.28,26.51,50.4,30.9-38.79,10.74-110-5.92-122.27-12.71,13.81,16.23,37.25,29.14,37.25,29.14,0,0-15.56,7.45-27.39,6.79,7.67,5.26,19.06,2.85,19.06,2.85l-15.12,24.32s50.18-5.26,76.48-20.6c-16.65,26.08-55,44.05-88.09,54.56,23.45,8.77,58.29,2.85,58.29,2.85l-29.36,16.43s29.36-1.1,64.86-18.63c35.5-17.53,54.13-33.31,75.6-38.13-1.31,6.79-31.12,46.24-59.82,50.84,.11,5.7,4.71,8.55,4.71,8.55,0,0-12.49,7.56-19.5,8.87,17.09,3.18,34.66-4.93,45.18-8.58,10.52-3.65,32.43-12.42,32.43-12.42,0,0-12.86,16.4-25.35,25.93-12.49,9.53-26.73,19.72-26.73,19.72,0,0,6.46-1.97,13.59,0,7.12,1.97,22.24,2.63,22.24,2.63,0,0-45.47,18.3-68.15,15.23s-35.06,.35-35.06,.35c0,0,6.25,7.43,13.48,7.21,7.23-.22,12.16,1.64,14.68,4.38,2.52,2.74,2.19,5.48,7.23,9.09,5.04,3.62,24.98,9.75,48.32,5.81-17.31,4.27-32.21,3.29-44.37,7.89,8.66,1.42,11.61,6.14,25.75,4.05,14.13-2.08,50.58-5.59,90.46-27.79-8.18,12.13-21.47,20.31-41.34,26.15-19.87,5.84-32.43,14.61-32.43,14.61,0,0,11.1-2.05,26.3-1.31,15.19,.73,49.82-7.45,82.98-22.35-3.65,5.55-18.55,15.92-18.55,15.92,0,0,20.16-5.7,48.21-19.43-9.93,13.29-25.27,28.63-25.27,28.63,0,0,24.4-15.92,38.71-21.91,14.32-5.99,26.44-9.64,26.44-9.64l.73,47.04s-100.14,5.48-115.04,6.57c-14.9,1.1-18.63,3.29-18.63,6.35,0,2.67,124.77,.7,157.51,.14h0l30.8-.37v-.17c35.24-.65,155.71-3.05,155.62-5.67-.11-3.07-3.91-5.12-18.84-5.69-14.93-.57-115.2-2.5-115.2-2.5l-.93-47.04s12.25,3.22,26.77,8.7c14.52,5.48,39.46,20.53,39.46,20.53,0,0-15.87-14.79-26.27-27.72,28.52,12.73,48.87,17.71,48.87,17.71,0,0-15.26-9.84-19.1-15.26,33.67,13.72,68.56,20.67,83.72,19.41,15.16-1.27,26.33,.38,26.33,.38,0,0-12.87-8.32-32.93-13.45-20.06-5.14-33.64-12.84-42.24-24.67,40.64,20.78,77.19,23,91.39,24.58,14.2,1.58,16.99-3.23,25.59-4.96-12.32-4.17-27.17-2.66-44.63-6.32,23.46,3.12,43.17-3.72,48.08-7.51,4.91-3.79,4.48-6.52,6.91-9.34,2.42-2.83,7.28-4.86,14.52-4.9,7.23-.04,13.21-7.69,13.21-7.69,0,0-12.49-2.97-35.05,.89-22.56,3.87-68.65-12.81-68.65-12.81,0,0,15.09-1.19,22.13-3.41,7.05-2.22,13.58-.48,13.58-.48,0,0-14.59-9.68-27.41-18.76-12.82-9.09-26.25-25.02-26.25-25.02,0,0,22.21,7.99,32.85,11.26,10.64,3.28,28.48,10.76,45.45,6.98-7.05-1.07-19.8-8.18-19.8-8.18,0,0,4.5-3.01,4.41-8.71-28.85-3.58-60.03-41.95-61.58-48.69,21.63,4.06,40.8,19.17,76.9,35.43,36.1,16.27,65.48,16.32,65.48,16.32Z"/>
</svg>