<?xml version="1.0" encoding="UTF-8"?>
<svg id="Layer_2" data-name="Layer 2" xmlns="http://www.w3.org/2000/svg" viewBox="0 0 903.84 545.54">
  <defs>
    <style>
      .cls-1 {
        fill: #2b2726;
      }
    </style>
  </defs>
  <path class="cls-1" d="M903.84,471.53s-9.06,.37-15.41,.95c-6.35,.58-10.37-1.39-16.22-2.7-5.84-1.31-7.96-3.8-12.56-6.57-4.6-2.78-4.89-5.19-3.94-6.57,.95-1.39,5.92-2.92,8.98-4.97,3.07-2.05,4.75-2.85,12.64-1.68,7.89,1.17,17.02-4.09,17.02-4.09,0,0-10.01,.95-16.36-1.68,5.92,.66,6.87-2.19,12.27-3.87,5.41-1.68,8.25-8.25,8.25-8.25,0,0-15.92,1.24-22.86-.44-6.94-1.68-10.88-3.21-23.52-11.98,24.47,3.73,34.91-7.16,34.91-7.16,0,0-7.3,3.21-20.31,0,6.14-1.68,13-6.35,13-6.35,0,0-12.2-.22-19.87-1.75-7.67-1.53-22.13-8.4-24.18-10.66-2.05-2.26-5.55-10.37-9.13-18.19,18.7,13.66,32.43,4.38,32.43,4.38,0,0-9.2-.15-13.59-3.58,6.35,1.1,6.57-6.65,9.28-7.67,2.7-1.02,2.92-2.7,.51-4.53-2.41-1.83-4.16,.29-5.62,.95-1.46,.66-2.19,1.31-5.11-4.02-2.92-5.33-8.98-8.69-12.56-11.03-3.58-2.34-5.33-8.62-8.55-12.93-3.21-4.31-5.48-3.65-6.06-3.8-.58-.15-.88-.95-.22-2.7,6.57,1.61,11.39-3.94,15.34-7.74,3.94-3.8,3.8-12.27,3.8-12.27,0,0-4.53,6.57-8.18,6.57-.58-13.44-7.16-19.43-9.64-23.52-2.48-4.09-.44-17.82-1.17-25.13-.73-7.3-5.11-10.66-5.11-17.38s1.02-13.15-3.21-13.44c-4.24-.29-2.63,21.62-3.21,33.89-5.55,3.65-2.92,27.03-3.51,33.31-.58,6.28-9.79,15.49-9.79,15.49l9.2-3.8c-.88,5.84,2.63,13.73,2.63,13.73,0,0-4.97,3.8-5.84,8.47-3.51-1.46-28.19-6.72-40.32-8.03-12.13-1.31-16.07-8.03-16.07-8.03,0,0,31.26,6.57,43.53,.58,0,0-18.55-4.24-18.26-4.67,.29-.44,5.55-2.92,9.79-3.21,4.24-.29,8.91,1.75,11.39-1.02,2.48-2.78,10.66-11.83,6.43-15.05-4.24-3.21-9.35,3.8-14.32,1.9-4.97-1.9-5.41-3.21-20.01-7.74,18.85,1.31,23.96-9.93,20.6-12.71-3.36-2.78-8.33,1.61-13.88,.44-5.55-1.17-10.81,1.17-23.23-2.48-12.42-3.65-21.77-16.8-21.77-16.8,0,0,18.11,3.36,21.91,3.36s3.51-2.19,14.02-3.36c10.52-1.17,27.17-17.86,27.17-17.86,0,0-7.01,4.16-22.68,3.83,10.52-7.34,16-16.65,18.41-19.94,2.41-3.29,4.82-9.09,4.82-9.09,0,0-21.26,13.91-27.28,15.34-6.03,1.42-25.09-1.97-30.68-1.97s-11.29-1.42-19.17-7.78c14.57-.99,17.75-3.94,17.75-6.03s-3.18-4.82-3.18-4.82c0,0,11.83-2.74,22.57-9.2,10.74-6.46,13.91-20.38,13.91-20.38,0,0-3.94,5.92-7.45,8.11-3.51,2.19-14.35,4.82-18.52,5.15-4.16,.33-6.9,.11-11.29-3.51-4.38-3.62-10.63-4.05-12.93-4.71-2.3-.66-5.59-5.37-2.19-7.01s3.83,3.73,16,.55c12.16-3.18,15.67-15.12,21.8-25.42-1.53,1.31-6.68,6.25-10.74,7.34-4.05,1.1-16.54,1.75-16.54,1.75,0,0-2.74-3.51-7.12-4.38,4.82-1.31,10.85-7.67,15.89-15.01-5.92,4.38-16.65,8.55-27.28,6.9-.21-4.6-2.74-4.6-3.51-5.37-.77-.77-.22-5.81,2.63-12.49,2.85-6.68-2.19-11.18-1.31-15.89,.88-4.71-.11-12.49-.99-17.2-.88-4.71-6.57-5.7-7.23-9.75-.66-4.05,.88-9.09-2.08-9.42-2.96-.33-4.05,10.3-2.74,14.24,1.31,3.94,1.42,15.12-.55,21.69-1.97,6.57-1.53,11.5,.44,15.67,1.97,4.16,.77,9.31,.77,11.5s-2.3,4.82-4.82,6.03c-2.52,1.21-11.39,4.27-10.41,10.19s4.16,5.59,17.31,10.08c-.99,2.74-6.03,4.71-14.79,7.01-8.77,2.3-15.01,8.77-15.01,8.77,0,0-7.12-2.3-7.56,2.63-.44,4.93,4.49,5.81,12.38,5.81s12.38,.66,12.38,.66c0,0-1.53,2.85-6.35,5.92-4.82,3.07-7.78,3.62-11.29,4.27-3.51,.66-6.35,8-.33,10.19,6.03,2.19,10.19-1.86,18.63-.77,8.44,1.1,8.44-4.05,9.42-3.29s1.64,6.79-1.86,11.29c-3.51,4.49-14.57,11.5-17.64,11.83-3.07,.33-13.59,8.33-24.1,17.97,14.02,2.41,17.64-4.71,23.56-2.63,5.92,2.08,16.98-2.41,16.98-2.41,0,0-19.94,10.3-19.28,14.79,.66,4.49,20.49,2.52,20.49,2.52,0,0-11.39,10.52-19.39,15.78-8,5.26-17.53,5.48-17.53,5.48,0,0,10.74-7.56,12.71-9.09,1.97-1.53,2.19-6.03-1.1-7.23-3.29-1.21-16.54-.88-23.56-2.41-7.01-1.53-15.67-7.01-15.67-7.01,0,0,6.03-3.51,6.35-5.15,.33-1.64,.11-9.42-2.96-10.96-3.07-1.53-5.15,1.21-9.64,.88-4.49-.33-15.23-5.15-26.62-15.01,4.71,2.52,28.05,5.26,35.61,3.18,7.56-2.08,13.37-1.86,22.35-6.68-5.59,1.86-17.09,2.08-24.87-2.74,12.38-5.37,12.38-11.61,10.96-13.81-1.42-2.19-4.38-1.21-7.67-1.1-3.29,.11-5.59,1.21-12.49-1.21-6.9-2.41-14.57-3.94-14.57-3.94,0,0,16.43-3.83,21.8-7.56,5.37-3.73,10.52-8.11,8.55-13.91,0,0,9.2-1.75,14.13-5.81-5.92,.66-32.43,1.1-44.7,0-12.27-1.1-17.97-.88-21.15-3.62-3.18-2.74-8.33-5.26-8.33-5.26,0,0-.88-5.48,.99-6.25,1.86-.77,9.42,2.3,18.63,2.63,9.2,.33,20.6-2.96,20.6-2.96,0,0-8.87-.66-13.48-2.3-4.6-1.64-9.09-6.68-9.09-6.68,0,0,5.04,2.08,9.64,2.74,4.6,.66,8.66-2.52,15.23-6.25,6.57-3.73,7.45-8.98,4.49-14.24,3.18-2.41,6.46-10.85,6.46-10.85,0,0-7.67,8.11-13.48,9.31-5.81,1.21-10.19,1.97-14.66,.55-4.47-1.42-8.13-.55-12.52-.66-4.38-.11-9.64-3.07-16.65-11.39,2.96,2.96,10.63,1.86,14.68-.22,4.05-2.08,12.82-9.09,14.13-12.05,1.31-2.96-1.31-5.59-3.26-6.25-1.95-.66-2.65,.99-6.6,2.85-3.94,1.86-6.68,2.19-7.12,1.1-.44-1.1,1.75-2.41,5.15-3.29s6.25-4.71,8-9.86-.99-10.74-2.08-12.16c-1.1-1.42-3.73-2.3-6.03,.99s-6.68,6.79-9.64,7.45c-2.96,.66-6.35-.77-14.46-2.96,4.6-.88,10.08-7.45,10.08-7.45,0,0-12.27,1.31-13.04,.99-.77-.33-2.63-4.6-1.42-5.92,1.21-1.31,6.14-11.83,8.22-14.57,2.08-2.74,2.08-6.57,1.42-7.23s-6.35,9.09-7.01,8.55c-.66-.55-1.1-7.89-1.21-13.04-.11-5.15-1.31-9.42-2.63-13.91-1.31-4.49-1.53-11.72-1.86-18.52-.33-6.79-2.85-18.63-2.85-18.63,0,0-2.19,20.6-3.62,26.3-1.42,5.7-.99,12.71-.99,20.27s-2.85,14.79-3.4,21.37c-.55,6.57,2.25,15.12,2.25,15.12,0,0-9.92,4.38-14.85,4.77-4.93,.38-15.01-1.92-15.01-1.92,0,0,5.75,5.75,12.16,6.79-6.03,3.01-15.01,.88-15.01,.88,0,0,.77,4.38,9.86,8.66,9.09,4.27,11.61,1.75,13.04,3.4,1.42,1.64,17.42,14.24,16.87,16.65-.55,2.41-8.33,8.87-12.6,9.86-4.27,.99-16.98,1.97-31.34-2.74,6.9,10.19,22.24,11.07,22.24,11.07,0,0-15.23,1.64-20.82-.66s-9.97-1.86-9.97-1.86c0,0,4.27,8.87,9.75,10.08,5.48,1.21,6.68,1.42,12.93,4.05,6.25,2.63,17.53,.44,17.53,.44,0,0-17.64,14.46-31.45,16.98,3.4,5.48,9.42,6.25,20.93,5.26,11.5-.99,25.09-6.57,25.09-6.57,0,0-3.73,7.12-11.5,13.04-7.78,5.92-10.74,5.04-14.24,4.6-3.51-.44-6.68-.33-10.63,2.85-3.94,3.18-8.11,5.15-13.59,5.81-5.48,.66-9.09,.44-12.27-2.08-3.18-2.52-8.87-2.52-8.87-2.52l.11-1.53s1.86,.99,9.42-.33c7.56-1.31,9.2-8.77,9.2-8.77,0,0-2.41,2.3-5.59,2.52-.11-4.6-5.04-6.25-8.55-12.16s-.44-6.25-3.83-12.27c-3.4-6.03-2.3-8.22-2.52-15.34-.22-7.12-2.08-8-2.74-12.38-.66-4.38,0-16.87,0-16.87,0,0-6.25,13.48-6.25,18.95s.44,16.65-.77,21.04c-1.21,4.38-7.23,13.04-7.23,13.04,0,0-.88-5.7-.55-11.61-5.37,8.33-1.1,18.85-1.1,18.85,0,0-2.96-3.07-5.26-9.75-1.42,15.56,10.85,21.47,10.85,21.47,0,0-2.74,2.52-7.23,5.04-4.49,2.52-3.83,6.68-3.83,6.68,0,0-2.08-2.41-6.03-6.57,2.25,10.13,5.59,14.46,17.09,17.64-3.07,0-7.34,4.93-12.05,4.93s-12.93-4.16-14.57-4.71c-1.64-.55-5.26-.77-3.07,4.6,2.19,5.37,8.98,10.19,8.98,10.19,0,0-5.64-2.19-8.11-2.41,6.9,9.97,22.9,15.01,23.89,16.76,.99,1.75,1.1,10.19-1.1,14.46-2.19,4.27-23.23,17.2-27.72,17.09-4.49-.11-17.64-8.77-17.64-8.77,0,0,7.78-.22,18.74-1.42,10.96-1.21,15.89-7.52,15.89-7.52,0,0-6.21,.73-8.47,.15,7.96-4.82,11.39-10.23,9.64-10.88-1.75-.66-16.07,.95-23.52,.07-7.45-.88-17.09-7.96-17.09-7.96,0,0,14.02-7.67,14.61-11.54,4.02-.29,6.94-5.92,6.43-7.52-.51-1.61-3.51-2.92-5.62-1.17-2.12,1.75-4.31,1.1-7.38,.8-3.07-.29-7.16-3.73-6.79-4.67,.37-.95,4.09,.15,6.43-.44,2.34-.58,2.12-3.51,5.11-3.51s4.53-.51,7.52-2.92c2.05,.66,4.75,1.17,5.77-1.17,1.02-2.34-.51-4.75-.51-4.75,0,0,4.38-4.24,3.87-7.96,3.51-1.61,5.7-3.07,7.96-7.96-2.7,2.63-8.33,5.11-13.59,5.11s-8.62,1.24-11.83,1.24-13.29,1.39-12.93-.15c.37-1.53,3.87-4.16,8.84-5.41,4.97-1.24,8.87-3.94,9.61-6.14,.73-2.19-1.39-5.51-3.4-4.53-2.01,.99-3.51,1.17-5.19,.99-1.68-.18-3.47-2.89-6.35-2.59-2.89,.29-4.89-.69-4.67-1.64,.22-.95,.99-.55,5.48-3.43,4.49-2.89,5.26-8.73,5.26-8.73,0,0-2.3,2.34-4.05,2.48-.69-1.39-3.87-1.28-5.41-1.28s-4.53-1.35-4.67-2.48c-.15-1.13,2.45-1.79,4.24-3.03,1.79-1.24,4.71-3.47,4.13-5.59-.58-2.12-3.8-2.48-4.86-3.14-1.06-.66-3.76-2.45-3.76-4.13s.8-3.8,.95-7.38c.15-3.58,.15-7.23-1.24-10.45-1.39-3.21-.73-11.83-.73-11.83,0,0-2.12,4.67-1.97,10.23,.15,5.55-.95,18.77-2.85,20.16-1.9,1.39-5.41,3.36-5.77,7.01-.37,3.65,4.97,5.92,4.97,5.92,0,0-6.35,.8-8.11,4.24-1.75,3.43,3.43,9.93,3.43,9.93,0,0-2.56,0-5.77-.22-3.21-.22-7.89-2.56-7.89-2.56,0,0-.58,2.41,4.82,5.11-3.36,.07-4.09,3.47-4.09,3.47,0,0-4.27-2.63-8.66-7.67,3.94,15.01,23.56,19.69,23.56,19.69,0,0-1.61,1.53-3.8,2.12-2.19,.58-5.41,.37-10.08,.37s-7.74,3.73-7.67,5.92c.07,2.19,2.19,6.21,7.89,5.33-.29,1.9,3.73,3.29,8.84,5.84-5.55-.73-14.9,.95-18.11,1.9-3.21,.95-9.86-.51-9.86-.51l2.41,10.37s4.16,.29,5.33,2.56c1.17,2.26,5.7,2.19,5.7,2.19,0,0-3.29,2.78-8.8,2.41,3.62,5.48,21.91,.33,21.91,1.97s-9.75,7.67-14.24,9.2c-2.84,.97-6.37,.71-8.59,.39,.58-2.74,.61-5.2-.5-5.65-2.34-.95-7.38,.73-11.25,2.41-3.87,1.68-10.81,.15-10.81,.15,0,0,5.84-1.46,7.01-4.16-4.89-.88-9.35-7.3-11.47-7.6-2.12-.29-5.7,2.48-8.18,2.12-2.48-.37-2.34-2.34-3.29-4.6-.95-2.26,.8-3.65,0-6.94-.8-3.29-4.75-5.92-5.77-7.96s-1.31-8.25-1.31-12.2,1.46-17.68-1.39-17.6c-2.85,.07-1.53,4.67-1.75,10.37-.22,5.7-1.53,6.57-2.34,10.3-.8,3.73,1.39,1.75,.58,6.35-.8,4.6-2.63,9.13-5.92,12.86-2.78,.07-4.75,3.58-6.87,5.04-2.12,1.46-3.07,3.58-1.46,4.16,1.61,.58,2.85,2.19,2.12,2.85-.73,.66-.8,2.48,1.39,2.78,2.19,.29,3.73,4.53,2.92,6.06-.8,1.53-9.71,.29-13.51,.73-3.8,.44-5.99,2.7-8.25,1.97-2.26-.73-5.19-3.14-6.5-1.46-1.31,1.68,.29,3.51,.73,5.04,.44,1.53,2.12,2.78,2.12,5.33-7.82-.95-15.34,3.29-17.31,3.36-1.97,.07-4.46-.29-5.19,.66-.73,.95-1.75,1.75-4.24,.73-2.48-1.02-6.65-.37-6.65-.37,0,0,3.21-4.31,6.79-9.71,3.58-5.41,.95-7.74,1.39-9.35,.44-1.61,7.82-5.41,8.33-11.69-2.34,.29-8.03,5.26-8.03,5.26,0,0,1.53-4.09,2.63-6.72,1.1-2.63,.51-7.67-.07-8.33-.58-.66-2.63-1.17-.58-2.85,2.05-1.68,2.7-6.35,2.7-6.35,0,0-16.73,15.19-17.75,14.9-1.02-.29-1.9-3.94-1.9-3.94,0,0,3.29-.22,5.26-.73,1.97-.51,3.87-5.26,3.87-6.87s-3.43-.88-3.94-1.46c-.51-.58,.8-.88,2.05-2.05,1.24-1.17,.22-5.55-3.14-6.65-3.36-1.1-9.06-3.36-9.93-5.48-.88-2.12,0-6.14,0-6.14,0,0,5.84,.8,11.03,3.65,5.19,2.85,15.19,7.01,28.63,.58-6.28,1.53-16.8-.29-20.82-4.75,3.73,.66,9.42-3.14,10.81-9.86,1.39-6.72-1.53-6.57-3.58-5.62-2.05,.95-6.28,.95-7.96-.88-1.68-1.83-6.21-2.26-7.01-3.94-.8-1.68-4.02-4.02-5.48-5.41-1.46-1.39-3.07-2.92-1.97-7.45,7.67,4.46,14.97,.66,14.97,.66,0,0-1.75-1.75-6.72-3.43,2.41,0,13.66-9.13,12.05-13.51-1.61-4.38-12.2-3.43-14.83-2.41-2.63,1.02-7.41,.22-9.5-.77-2.08-.99-.99-1.86-1.1-3.4-.11-1.53-1.75-.66-2.19-2.85-.44-2.19,.66-4.27,2.52-2.96,1.86,1.31,4.82,1.75,7.78-.77,2.96-2.52,4.71-7.56,2.19-9.09-2.52-1.53-5.48-4.71-7.34-8.87s-6.79-4.49-6.79-4.49c0,0,.22-13.91,0-20.6-.22-6.68-.66-24.65-2.08-24.65s-.66,13.48-.77,18.3c-.11,4.82-2.19,11.94-3.69,15.56-1.49,3.62-1.08,11.12-1.08,11.12,0,0-3.18-3.34-8.6-2.79,3.94,1.53,6.08,8.27,5.59,8.98-.49,.71-5.2,4.55-5.37,8.22-4.93-2.3-13.15,0-13.15,0,0,0,8.93,1.21,11.89,5.2-7.83-.6-10.9,3.63-10.9,3.63,0,0,4.6-.58,9.57-.88,4.97-.29,10.37,.58,12.05,2.85-2.92,5.55-8.84,8.11-12.27,8.11s-6.06,2.78-8.55,2.7c-2.48-.07-4.97,1.31-11.83,1.75,2.85,1.17,6.14,1.83,8.84,1.9,2.7,.07,3.36,2.48,7.23,3.36,3.87,.88,4.46,.37,8.18,3.65,3.73,3.29,8.33,3.21,8.4,4.02,.07,.8-1.39,2.56-4.38,3.21-2.99,.66-9.13,2.26-12.86,2.26s-5.62,1.83-8.91,2.26c-3.29,.44-8.84-1.68-10.23,0-1.39,1.68-.95,4.38,3.8,6.79,4.75,2.41,13.66,6.28,13.66,6.28,0,0-5.41,2.92-7.67,4.6-2.26,1.68-5.11,2.63-10.66,3.07-5.55,.44-13.59,.07-13.59,.07,0,0,4.24,3.73,7.23,4.09,2.99,.37,3.65,1.46,5.19,3.07,1.53,1.61,14.39,1.75,22.28,1.75s10.45-2.78,10.45-2.78c0,0-.8,4.02-3.43,4.46-2.63,.44-2.92,1.61-7.82,4.09-4.89,2.48-6.57,2.56-14.02,2.48-7.45-.07-10.88-1.02-20.82-2.19,7.96,7.6,23.67,6.57,23.67,6.57,0,0-6.14,3.58-13.37,3.94,8.91,3.94,16.36,.37,18.41,.73,2.05,.37,4.75,2.7,7.96,3.87,3.21,1.17,4.16,3.43,7.96,5.04,3.8,1.61,7.09,.88,6.79,1.61-.29,.73-2.78,.66-5.48,1.17-2.7,.51-4.67,3.43-10.15,3.8-5.48,.37-13.15-2.63-15.27-1.53-2.12,1.1-.66,7.6,1.46,11.39,2.12,3.8,11.91,6.87,17.68,7.82,5.77,.95,9.28,3.65,9.42,5.99,.15,2.34-10.59,8.55-15.19,9.64-4.6,1.1-8.03-.44-12.56,0-4.53,.44-8.25,5.41-5.62,10.3,2.63,4.89,12.78,10.23,12.78,10.23,0,0-5.11,2.12-8.84,1.53-3.73-.58-10.52,.37-6.21,5.84,2.78,3.54,12.38,5.46,18.84,6.38-.37,.28-.65,.49-.65,.49,0,0-8.11,6.5-13.95,9.57s-20.05,7.25-20.05,7.25c0,0,6.19-8.05,5.37-10.63-.82-2.57-3.45-3.78-8.33-2.61,12.13-5.84,10.59-13.59,9.64-14.17s-2.7-.51-4.97,1.24c-2.26,1.75-10.81,3.36-14.17,2.78-3.36-.58-9.86-3.65-9.86-3.65,0,0,4.82,.8,6.72,0,1.9-.8,2.85-2.05,6.35-2.34,3.51-.29,7.3-4.75,4.53-11.39,11.18-1.17,20.53-12.2,18.99-12.93-1.53-.73-7.16,5.48-12.2,5.84,2.56-6.94,4.02-16,.44-16.8s-6.14,5.84-8.47,6.21c-2.34,.37-5.04,2.85-7.67,3.29-2.63,.44-3.36-.07-13.91-.58,6.25-.88,10.92-7.67,11.8-12.86,.88-5.19,.07-7.6-1.68-8.11-1.75-.51-3.36,1.39-5.11,1.39s-3.73-.8-5.77-1.83c-2.05-1.02-7.89,0-7.89,0,0,0,6.43-4.75,8.11-7.6,1.68-2.85,5.99-6.35,13.59-13.44-2.26-.37-9.28,3.29-9.28,3.29,0,0-.95-3.36-3.58-4.46-2.63-1.1-9.71,2.19-10.23,1.97-.51-.22-.95-.95-.51-2.78,1.9,0,5.11-8.18,5.55-11.83,.44-3.65,.73-12.71-.73-14.75-1.46-2.05-2.63-3.94-2.05-6.72,.58-2.78-1.02-5.55-5.26-10.23,0,0-.95,18.55-1.24,20.16s-1.1,1.75-3.87,8.03c-2.78,6.28-.88,21.33-2.63,18.44-1.75-2.89-5.84-4.75-9.2-4.38-3.36,.37-3.51,4.49-2.19,6.39,1.31,1.9,5.37,7.67,8.44,12.82,3.07,5.15,1.57,8.22,1.57,8.22,0,0-2.41,.44-7.96,3.73-5.55,3.29-2.41,11.61-2.41,11.61,0,0-5.84-2.99-10.15-2.48,6.28,6.5,20.23,8.91,20.23,8.91,0,0-12.34,4.09-19.65,3.29s-24.03-.73-24.4-.73,15.78,9.79,15.78,9.79c0,0-7.01-1.83-11.32,.29,4.46,4.46,16.73,4.6,16.73,4.6,0,0,5.2,3.12,12.22,3.45-.05,3.4,8.53,7.51,8.53,7.51,0,0-13.59,6.43-18.26,7.16-4.67,.73-6.87-2.63-9.64-.29-2.78,2.34-.58,7.3,4.82,7.45-3.8,.88-21.33,5.26-21.33,5.26,0,0,13.88,1.31,16.36,2.48,2.48,1.17,13.29-.44,17.97-.44s3.94,2.92,3.07,4.82c-.88,1.9-14.02,6.72-21.33,7.6s-16.07,2.19-16.07,2.19c0,0,4.97,.15,11.54,4.09,6.57,3.94,18.26,6.57,18.26,6.57l-11.39,4.24s13.88,0,27.32,2.78c-5.26,4.38-23.23,14.46-38.13,16.8,2.63,2.05,19.43,10.08,33.6,1.9-4.53,6.57-20.31,14.17-27.32,14.17s-13-5.84-13-5.84c0,0,.29,10.81,13.29,15.49-5.41-.15-15.63,2.92-15.63,2.92,0,0,25.42,5.26,47.62-.73-3.8,8.62-15.49,11.69-24.1,13.88-8.62,2.19-11.54,0-25.86,2.19,15.34,11.83,31.26,10.96,31.26,10.96,0,0-3.36,4.38-25.13,6.72-21.77,2.34-35.94-8.91-35.94-8.91,0,0,8.47,14.75,43.1,23.23-15.05,5.7-32.58,7.3-50.98,2.63,3.8,5.41,19.28,8.18,19.28,8.18,0,0-15.78,1.17-30.24-6.14,8.33,17.53,18.99,18.26,22.21,18.55,3.21,.29,18.11,12.56,18.11,12.56,0,0-26,1.9-46.6-8.77,7.01,13.73,29.22,22.21,29.22,22.21,0,0-6.43,.73-19.58-4.38,8.55,8.77,35.5,20.45,79.03,16.65-9.35,13.15-55.51,23.37-98.75,9.64,26.3,28.05,55.07,23.23,55.07,23.23,0,0-14.32,20.74-52.01,14.75,13.59,15.78,41.63,14.61,41.63,14.61H847.3l-23.92-17.42c17.42,8.98,47.77,11.39,57.63,3.07-13.91,4.05-30.35-10.41-30.35-10.41,0,0,6.46,.55,10.96-2.63,4.49-3.18,8-4.38,16.65-6.03,8.66-1.64,12.27-7.78,12.27-7.78,0,0-22.02,.88-28.16,.66-6.14-.22-15.23-.22-33.53-15.89,19.17,9.2,53.69,11.18,66.4,1.64-9.09,2.19-20.16-2.08-20.16-2.08,0,0,6.68-1.31,14.02-4.16,7.34-2.85,14.72-12.97,14.72-12.97ZM165.44,317.52s6.14-3.73,11.5-8c6.57,2.08,14.57,0,14.57,0,0,0-14.13,8.77-26.08,8Zm24.98,20.71c-7.45-2.74-12.82-8.22-12.82-8.22,8.66,2.3,17.09-2.19,19.83-4.93,0,4.38-7.23,6.79-7.01,13.15Zm9.71-51.42s.82-2.8,1.43-4.73c2.7,.35,4.56,.49,4.56,.49l-5.99,4.24Zm54.93-24.07l11.5,2.3s-12.6,1.42-20.6,4.05c4.93-2.3,9.09-6.35,9.09-6.35Zm24.76,33.31c.99,2.3-10.74,22.35-10.74,22.35,0,0,3.4-20.05,.66-22.57s-13.48-4.16-13.48-4.16c8.98-2.19,15.01-15.12,15.01-15.12,0,0,4.49,3.4,7.01,3.4-3.73,3.51-.66,7.45,2.08,8.77-2.63,2.19-1.53,5.04-.55,7.34Zm80.16-60.63c6.43,2.21,16.75-.41,20.8-1.62-2.35,.77-6.5,2.22-8.48,3.52-2.85,1.86-8.66,3.94-14.68,3.03,.82-.95,1.69-2.85,2.37-4.93Zm12.97,31.23c1.9,1.75-7.16,10.96-23.81,17.24,11.98-7.89,17.97-20.89,14.32-22.94-3.65-2.05-6.87,2.56-10.66,1.79-3.8-.77-4.67-1.64-7.16-1.5-2.48,.15-4.09-3.21-7.3-2.92-3.21,.29-5.41-.29-5.41-.29,0,0,10.81-6.72,13.59-6.28,2.78,.44,3.21,4.38,11.54,5.11,8.33,.73,12.56,2.34,18.7,2.19-5.7,1.9-5.7,5.84-3.8,7.6Zm104.2-44.12c1.42-.44,5.48,.33,8.66-2.52,3.18-2.85,6.57-7.56,6.68-9.42,.11-1.86,2.3-3.4,4.71-2.96,2.41,.44,11.39,2.52,15.45,1.1-7.45-2.19-9.31-5.7-9.31-5.7l18.52,1.75c-10.41,8.77-35.28,21.47-38.68,21.37-3.4-.11-7.45-3.18-6.03-3.62Zm38.24,10.08c-2.41,1.9-11.91,6.5-11.91,6.5,0,0,3.8-7.96,1.39-11.03,0,0,7.74-1.46,17.38-3.43-5.48,2.05-4.46,6.06-6.87,7.96Zm35.94,76.42l-9.59-9.92s1.75-2.19,3.67-3.12c1.92-.93,3.94,0,5.42,1.37,1.48,1.37,.55,11.12,.49,11.67Zm20.93-70.51c-.44-6.68,0-9.2,0-9.2,4.49,7.12,12.16,12.16,12.16,12.16,0,0-10.63-1.86-12.16-2.96Zm66.29,114.17c-4.82-.99-6.03-1.86-8.98,.88-2.96,2.74,5.92,13.37,5.92,13.37,0,0-10.63-5.26-14.46-7.01-3.83-1.75-7.99,3.07-9.97,1.1-4.16-4.16-5.7-7.12-5.37-8.22,.33-1.1,5.37-3.4,12.38-3.18,7.01,.22,8.98-1.42,12.16-1.42s8.98,1.42,11.61,1.31c2.63-.11,4.93-.44,4.93-.44l1.64,3.29s-5.04,1.31-9.86,.33Zm32.65-19.72c-7.89,3.29-27.83,4.82-32.65,3.51-4.82-1.31-26.95-19.06-28.71-20.16,0,0,7.23-.58,10.45,.88,3.21,1.46,2.78,1.46,9.06,2.34,6.28,.88,10.37-2.48,14.02-.73s11.25,1.9,14.17,.44c2.92-1.46,9.79,2.05,13.88-.88,4.09-2.92,12.27-2.05,12.27-2.05,0,0-4.6,13.37-12.49,16.65Zm22.57,92.69s-8.55-9.42-14.46-9.97c11.18-4.05,20.16-9.97,20.16-9.97l-5.7,19.94Zm86.92-41.42c-4.09,3.21-1.61,6.28-1.61,6.28,0,0-11.39-1.46-22.5-9.64,12.71-2.78,24.1,3.36,24.1,3.36Zm-19.14,83.71l5.7-10.37,8.91-.58-14.61,10.96Zm1.57-22.35v-13.48s17.42,4.16,34.18,1.42c-14.68,8.77-34.18,12.05-34.18,12.05Zm33.2-73.85c-5.04-1.1-13.37-7.01-16.43-8.66-3.07-1.64-6.9-3.83-9.64-4.82-2.74-.99-6.14-1.97-1.42-4,4.71-2.03,18.41-3.12,18.41-3.12,0,0,5.7,6.25,9.97,6.25,0,0-8.07,3.18-16.22,1.75,23.34,11.07,30.02,2.83,30.02,2.83l.77,8.68c-3.73,3.18-10.41,2.19-15.45,1.1Z"/>
</svg>