<?xml version="1.0" encoding="UTF-8"?>
<svg id="Layer_2" data-name="Layer 2" xmlns="http://www.w3.org/2000/svg" viewBox="0 0 538.08 818.96">
  <defs>
    <style>
      .cls-1 {
        fill: #2b2726;
      }
    </style>
  </defs>
  <path class="cls-1" d="M526.64,703.7c-23.81,2.19-35.79-2.78-35.79-2.78,0,0,2.63-4.97-.44-8.91-3.07-3.94-12.13,0-33.31-11.39-21.18-11.39-30.13-32.65-30.13-32.65,0,0,4.82,.77,15.45,7.01,10.63,6.25,16.87,4.6,20.6,3.51,3.73-1.1-.88-7.78,3.51-7.78s14.02,9.2,22.46,8.87c8.44-.33,9.97-.44,12.27-3.07,2.3-2.63,8-4.05,11.94-6.79,3.94-2.74,7.12-12.27-2.41-8.87-9.53,3.4-19.83-6.79-34.07-13.7-14.24-6.9-20.2-16.36-20.2-16.36,0,0,8.18,0,17.53-1.9,9.35-1.9,13.44-11.54,5.99-12.71-7.45-1.17-21.04-8.33-33.31-17.38-12.27-9.06-26.88-19.9-41.12-29.44,14.24-1.21,25.86,1.86,31.34,5.48,5.48,3.62,9.53,4.05,16.54-.88,14.24,.22,18.85-6.79,18.63-10.52-.22-3.73-6.46-4.82-9.52-4.82s-7.79-3.07-15.24-6.57c-5.26-5.59-18.41-16.43-18.41-16.43,0,0-1.86-12.16-8.33-20.82-6.46-8.66-14.9-7.34-21.47-16.65,6.03,5.48,21.37,.66,21.37,.66,0,0,11.83,7.89,21.37,8.77,9.53,.88,16.76,0,19.61-4.93,2.85-4.93-.11-7.67-5.26-8.44-.88-3.07-5.92-3.18-11.18-6.9-2.19-5.26-10.19-8.98-11.39-10.96-1.21-1.97-8-10.3-16.54-14.13-8.55-3.83-14.5-11.25-14.5-11.25,0,0,13.88,6.43,18.7,6.57,4.82,.15,7.74,.44,11.39-2.78,5.11,0,6.14-2.92,5.7-6.43-.44-3.51-5.26-2.05-6.87-4.53-1.61-2.48-7.6-2.92-15.19-8.33-7.6-5.41-9.06-15.34-9.06-15.34,0,0,24.4,0,26.59-1.75,2.19-1.75,2.19-4.38,2.05-8.18-.15-3.8-1.75-6.14-7.6-6.43-5.84-.29-4.24-2.78-8.47-5.26s-5.99-1.46-9.64-5.55c-3.65-4.09-7.01-6.72-11.54-9.06-4.53-2.34-8.03-5.99-12.27-14.32,4.09-2.19,3.21-6.21,3.21-6.21,0,0,8.33-.07,11.98-.07s8.47,.88,12.42-3.65c3.94-4.53,1.17-11.1-3.94-11.54-5.11-.44-11.39-1.61-16.36-7.74-4.97-6.14-10.96-9.2-15.05-13.29s-8.03-3.21-11.83-7.45c-3.8-4.24-6.87-11.83-6.87-11.83,0,0,13.59,6.43,18.26,7.3,4.67,.88,5.26,1.31,16.22,6.28,10.96,4.97,15.49,2.92,16.95,0,1.46-2.92-1.46-6.28-5.26-9.64-3.8-3.36-7.89-7.74-15.05-10.96-7.16-3.21-10.52-10.77-10.52-10.77,0,0,2.63-1.36,7.6-.48,4.97,.88,9.93,.88,11.39-2.78,1.46-3.65-.73-6.28-6.72-9.35-5.99-3.07-12.56-9.2-18.7-11.98-6.14-2.78-4.97-5.11-15.34-11.83-10.37-6.72-26.59-27.61-26.59-27.61,0,0,3.65,1.46,8.03,3.36,4.38,1.9,5.26,0,14.02-.73,8.77-.73,8.47-1.61,9.93-6.87s-9.2-11.54-17.24-16.65c-8.03-5.11-8.18-8.91-11.4-15.49-3.22-6.57-11.39-8.18-17.82-20.74,7.3,3.51,15.49,2.34,17.53-3.65,2.05-5.99-7.01-14.61-22.5-30.09,5.26,2.92,14.02,1.75,13.44-5.55-.58-7.3-27.17-14.61-28.63-24.83-1.46-10.23-5.26-9.93-7.01-20.16-1.75-10.23-11.98-13.73-11.98-30.09S273.33,0,269.04,0s-9.54,18.11-9.54,34.48-10.23,19.87-11.98,30.09c-1.75,10.23-5.55,9.93-7.01,20.16-1.46,10.23-28.05,17.53-28.63,24.83-.58,7.3,8.18,8.47,13.44,5.55-15.49,15.49-24.54,24.1-22.5,30.09,2.05,5.99,10.23,7.16,17.53,3.65-6.43,12.56-14.6,14.17-17.82,20.74-3.22,6.57-3.37,10.37-11.4,15.49-8.03,5.11-18.7,11.39-17.24,16.65,1.46,5.26,1.17,6.14,9.93,6.87,8.77,.73,9.64,2.63,14.02,.73,4.38-1.9,8.03-3.36,8.03-3.36,0,0-16.22,20.89-26.59,27.61-10.37,6.72-9.2,9.06-15.34,11.83-6.14,2.78-12.71,8.91-18.7,11.98-5.99,3.07-8.18,5.7-6.72,9.35,1.46,3.65,6.43,3.65,11.39,2.78,4.97-.88,7.6,.48,7.6,.48,0,0-3.36,7.55-10.52,10.77-7.16,3.21-11.25,7.6-15.05,10.96-3.8,3.36-6.72,6.72-5.26,9.64,1.46,2.92,5.99,4.97,16.95,0,10.96-4.97,11.54-5.41,16.22-6.28,4.67-.88,18.26-7.3,18.26-7.3,0,0-3.07,7.6-6.87,11.83-3.8,4.24-7.74,3.36-11.83,7.45-4.09,4.09-10.08,7.16-15.05,13.29-4.97,6.14-11.25,7.3-16.36,7.74-5.11,.44-7.89,7.01-3.94,11.54,3.94,4.53,8.77,3.65,12.42,3.65s11.98,.07,11.98,.07c0,0-.88,4.02,3.21,6.21-4.24,8.33-7.74,11.98-12.27,14.32-4.53,2.34-7.89,4.97-11.54,9.06-3.65,4.09-5.41,3.07-9.64,5.55-4.24,2.48-2.63,4.97-8.47,5.26-5.84,.29-7.45,2.63-7.6,6.43-.15,3.8-.15,6.43,2.05,8.18,2.19,1.75,26.59,1.75,26.59,1.75,0,0-1.46,9.93-9.06,15.34-7.6,5.41-13.59,5.84-15.19,8.33-1.61,2.48-6.43,1.02-6.87,4.53-.44,3.51,.58,6.43,5.7,6.43,3.65,3.21,6.57,2.92,11.39,2.78,4.82-.15,18.7-6.57,18.7-6.57,0,0-5.95,7.41-14.5,11.25-8.55,3.83-15.34,12.16-16.54,14.13-1.21,1.97-9.2,5.7-11.39,10.96-5.26,3.73-10.3,3.83-11.18,6.9-5.15,.77-8.11,3.51-5.26,8.44,2.85,4.93,10.08,5.81,19.61,4.93,9.53-.88,21.37-8.77,21.37-8.77,0,0,15.34,4.82,21.37-.66-6.57,9.31-15.01,8-21.47,16.65-6.46,8.66-8.33,20.82-8.33,20.82,0,0-13.15,10.85-18.41,16.43-7.45,3.51-12.19,6.57-15.24,6.57s-9.3,1.1-9.52,4.82c-.22,3.73,4.38,10.74,18.63,10.52,7.01,4.93,11.07,4.49,16.54,.88,5.48-3.62,17.09-6.68,31.34-5.48-14.24,9.53-28.85,20.38-41.12,29.44-12.27,9.06-25.86,16.22-33.31,17.38-7.45,1.17-3.36,10.81,5.99,12.71,9.35,1.9,17.53,1.9,17.53,1.9,0,0-5.95,9.46-20.2,16.36-14.24,6.9-24.54,17.09-34.07,13.7-9.53-3.4-6.35,6.14-2.41,8.87,3.94,2.74,9.64,4.16,11.94,6.79,2.3,2.63,3.83,2.74,12.27,3.07s18.08-8.87,22.46-8.87-.22,6.68,3.51,7.78c3.73,1.1,9.97,2.74,20.6-3.51,10.63-6.25,15.45-7.01,15.45-7.01,0,0-8.95,21.26-30.13,32.65-21.18,11.39-30.24,7.45-33.31,11.39-3.07,3.94-.44,8.91-.44,8.91,0,0-11.98,4.97-35.79,2.78-23.81-2.19-3.51,10.96-.73,13.44,2.78,2.48,17.38,9.79,25.13,10.96,7.74,1.17,27.46,4.53,27.46,4.53,0,0-12.27,10.96-10.52,16.36,1.75,5.41,19.87,1.31,31.12,0,11.25-1.31,27.9-1.75,40.32-12.42-10.52,9.2-12.71,14.17-8.33,16.95,4.38,2.78,30.39,1.31,47.19-3.8-7.16,9.35-6.14,12.56-1.75,15.49,4.38,2.92,41.2,0,41.2,0,0,0-4.09,5.41-1.02,7.74,3.07,2.34,37.11-2.63,44.26-8.47l-1.75,41.49s-165.95,1.02-183.78,1.31c-17.82,.29-35.65,11.69-35.65,11.69h488.9s-17.82-11.39-35.65-11.69c-17.82-.29-183.78-1.31-183.78-1.31l-1.75-41.49c7.16,5.84,41.2,10.81,44.26,8.47,3.07-2.34-1.02-7.74-1.02-7.74,0,0,36.81,2.92,41.2,0,4.38-2.92,5.41-6.14-1.75-15.49,16.8,5.11,42.8,6.57,47.19,3.8,4.38-2.78,2.19-7.74-8.33-16.95,12.42,10.66,29.07,11.1,40.32,12.42,11.25,1.31,29.36,5.41,31.12,0,1.75-5.41-10.52-16.36-10.52-16.36,0,0,19.72-3.36,27.46-4.53,7.74-1.17,22.35-8.47,25.13-10.96,2.78-2.48,23.08-15.63-.73-13.44Z"/>
</svg>