<?xml version="1.0" encoding="UTF-8"?>
<svg id="Layer_2" data-name="Layer 2" xmlns="http://www.w3.org/2000/svg" viewBox="0 0 872.95 503.42">
  <defs>
    <style>
      .cls-1 {
        fill: #2b2726;
      }
    </style>
  </defs>
  <path class="cls-1" d="M1.4,503.42H872.95v-2.19h-85.68s-17.86-8.36-26.84-7.82c1.75-2.96-3.18-3.07-7.89-4.71l-4.71-1.64s9.53,1.1,14.79-3.07c5.26-4.16,4.05-10.3,2.41-10.3s-3.18,2.85-4.38,2.63c-1.21-.22-14.13-5.48-18.52-14.13,9.09,6.35,23.45,0,23.45,0,0,0-5.37-1.53-8.44-1.21,10.41-2.52,12.27-7.45,12.27-7.45,0,0-11.39,3.73-15.89,1.53-4.49-2.19-6.25-4.05-6.25-4.05,0,0,6.25,.77,11.29-1.21-17.75-1.1-24.21-8.87-25.09-12.27s-3.07-6.9-1.64-7.45c1.42-.55,5.59,3.07,12.93,0-1.24-1.39-4.89-2.05-4.89-2.05,0,0,6.65-2.41,6.65-5.11s-5.62-.15-7.82-1.1c-2.19-.95-7.09-5.19-7.09-6.35s6.21-2.26,5.77-5.77c-.44-3.51-5.77-.51-8.33-2.34-2.56-1.83,1.02-5.04-1.75-8.62,2.85-.88,2.85-3.29,2.34-4.31-.51-1.02-3.43-2.63-3.14-5.41,.29-2.78,.37-2.7,1.46-2.63,1.1,.07,.73-2.26-.29-2.63-1.02-.37-4.38-2.26-4.46-3.65-.07-1.39-.66-5.77-.29-8.47,.37-2.7-.88-11.54-1.17-11.69-.29-.15-1.31,7.09-1.24,11.76,.07,4.67-1.53,6.87-1.75,9.5-.22,2.63,.73,5.84,.22,7.3-.51,1.46-2.48,5.7-1.39,7.67,1.1,1.97,2.05,2.19,.44,2.99-1.61,.8-5.19,2.56-4.38,4.31,.8,1.75,1.83,1.53,1.83,1.53,0,0-4.38,2.41-7.6,2.78-3.21,.37-2.92,3.43-.51,4.6,2.41,1.17,4.75,2.92,5.77,2.92s2.92-1.39,3.43-1.17c.51,.22,1.19,4.31-1.55,6.17-2.74,1.86-2.74,.44-4.82,1.97-2.08,1.53-1.48,3.29-3.56,3.51-2.08,.22-3.07,1.53-2.68,2.68,.38,1.15,3.62,1.92,5.15,1.92s4.66-.27,4.66-.27c0,0-1.92,4.55-8.38,8.71,7.56,.82,11.56-5.2,11.56-5.2,0,0-5.04,11.41-12.34,14.92-7.3,3.51-10.74,2.56-11.03,4.02-3.73,.22-4.53-.22-4.53-.22,0,0,3.14,2.92,8.33,3.8,5.19,.88,7.74,.22,7.74,.22,0,0-4.02,2.41-7.38,2.34,6.5,2.05,11.61-.8,11.61-.8,0,0-4.09,5.7-9.28,5.48,1.9,2.99,4.38,2.85,4.38,2.85,0,0-3.51,12.49-20.16,9.86,9.2-1.53,7.99-6.64,9.79-8.47,3.73-3.8,4.24-7.09,2.92-7.23-1.31-.15-19.28,6.57-28.71,.51,9.35,1.68,16.65-1.75,16.65-1.75,0,0-9.06-1.39-10.81-3.07-1.75-1.68,3.21-2.78,6.5-2.48,3.29,.29,12.05-2.99,14.02-6.28,1.97-3.29-1.1-7.09-1.1-7.09,0,0,6.28-2.41,6.94-6.35-9.42,5.19-14.61,5.84-19.21,3.94-4.6-1.9-5.84-.95-8.4-1.75-2.56-.8-6.5-4.89-6.5-4.89,0,0,2.41-1.75,3.14-3.65,7.6,2.78,14.32,1.39,16.43-2.56,2.12-3.94-1.02-7.09-4.67-5.55-3.65,1.53-13.66-7.3-13.66-7.3,0,0,10.88,1.61,18.85-3.94-4.6,.51-7.09,.58-7.09,.58,0,0,8.69-4.24,8.77-11.98,.15-1.46-3.29,1.61-8.33,3.07s-16.29-4.67-16.29-4.67c0,0,9.06-3.73,9.06-9.28s-6.65-2.3-10.7-5.04c-4.05-2.74-5.51-3.94-5.37-4.46,.15-.51,7.05-3.07,10.17-11.45-5.26,1.59-7.07,4.82-7.07,4.82,0,0,.11-13.75-.22-17.48-.33-3.73-3.94-3.73-3.94-5.37s-.62-16.76-4.2-16.54c-3.58,.22-1.46,6.72-.29,7.96,1.17,1.24,.07,4.16-1.46,6.65-1.53,2.48-1.68,5.41-1.68,6.65s-2.78,4.09-2.78,4.89,2.41,4.89,1.68,7.6c-.73,2.7-2.05-.73-1.46,4.75,.58,5.48,3.94,3.14,3.51,4.89-.44,1.75-2.77,.77-4.63,1.84-1.86,1.07-1.86,2.14-2.99,2.16-1.12,.03-6.93-.79-8.24,.82-1.31,1.62-1.21,2.68-1.21,2.68,0,0-2.33-1.01-3.83-2.93,1.56,5.59,3.75,6.85,5.75,7.72,2,.88,4.46,.58,5.51,1.62-1.18,1.45-6.14,1.62-6.14,1.62,0,0,3.45,1.42,8.05,1.4,4.6-.03,8.3-.08,8.3-.08,0,0-4.56,2.99-8.61,4.67-4.05,1.68-3.73,2.96-6.06,3.1-2.34,.15-3.65,.37-4.05,2.05-.4,1.68,1.39,4.16,5.33,4.71,3.94,.55,9.82,.11,9.82,.11,0,0,2.59,1.21,.33,2.99-2.26,1.79-6.06,1.64-7.63,3.36-1.57,1.72-2.85,2.15-5.48,2.15s-3.1,1.61-5.08,1.72c-1.97,.11-4.82,0-5.7,1.64s-.33,3.8-.33,3.8c0,0-4.64-.51-6.32-1.53,3.4,3.73,10.12,7.56,15.45,7.27,5.33-.29,8.62-.88,8.62-.88,0,0,.95,1.97,2.41,1.97-4.16,2.7-4.82,4.6-8.55,4.75-3.73,.15-17.75,0-24.18-5.7,5.48,8.77,11.69,10.59,11.69,10.59,0,0-6.79-.22-7.96,2.7-1.17,2.92,.95,7.45,6.28,8.18,5.33,.73,5.92,2.99,7.96,3.94,2.05,.95,10.45,1.46,10.45,1.46,0,0-3.1,5.77-9.02,5.88-5.92,.11-26.73-5.7-26.73-5.7,0,0,7.34,8.22,13.7,10.74-13.48-.11-49.41-11.5-55.88-19.17,11.39,1.64,33.31-.77,42.07-4.49-28.6-2.19-61.9-14.57-70.12-22.57,21.47,6.57,39.01,.44,39.01,.44,0,0-13.7-8.33-23.01-12.49,12.38-.11,19.5,5.81,25.53,7.34,6.03,1.53,33.97,3.83,41.96-.66,8-4.49,13.37-11.18,11.72-12.49-1.64-1.31-8.44,2.52-17.97,1.86-9.53-.66-20.05-7.34-27.5-8.98-7.45-1.64-9.42-7.89-9.42-7.89,0,0,1.64,.66,10.63-2.52,8.98-3.18,14.57-.88,20.82-3.29,6.25-2.41,16.33-7.67,13.81-11.18-2.52-3.51-14.35,3.18-22.13,2.19-7.78-.99-19.5-2.08-26.62-4.82-7.12-2.74-14.35-1.97-20.49-5.37-6.14-3.4-10.96-7.12-17.31-8.44-6.35-1.31-12.16-13.81-12.16-13.81,0,0,8.55,.66,11.61-1.53,3.07-2.19,2.96-4.05,2.96-4.05,0,0,15.78,5.7,24.98,6.35,9.2,.66,11.72-1.97,15.34-2.96,3.62-.99,10.85-1.42,11.29-4.27,.44-2.85-30.68-13.48-30.68-13.48,0,0,17.42,.44,31.66-3.73-15.12,.11-42.26-2.7-59.35-11.91-17.09-9.2-20.74-16.22-20.74-16.22,0,0,9.64,1.39,11.94-1.02,2.3-2.41-8.87-11.94-8.87-11.94,0,0,11.07,3.73,18.08,3.62,7.01-.11,17.97,.22,27.72-11.18-7.01-1.31-15.89-6.46-15.89-6.46,0,0,24.54-2.52,34.29-19.94-7.12,4.82-16.33,4.93-21.15,3.18-4.82-1.75-12.16-4.82-16.98-4.38-4.82,.44-10.85-6.46-15.56-6.46s-5.59,3.18-14.13,2.08c-8.55-1.1-12.71-4.16-12.71-5.37s3.76-6.1-3.03-11.72c-6.79-5.62-12.71-16.95-11.83-17.9,.88-.95,4.53,2.63,8.47,2.48,3.94-.15,8.98,2.63,13.07,2.78,4.09,.15,4.97-1.75,8.98-1.1,4.02,.66,6.35,1.02,13.73,.51,7.38-.51,13.81-9.64,13.81-9.64,0,0-5.48,2.56-13.22,1.83-7.74-.73-12.93-3.14-12.93-3.14,0,0,11.47,.22,16.07-5.84-6.87,1.68-27.98-2.34-31.92-4.6-3.94-2.26-7.09-15.56-17.09-18.92-10.01-3.36-11.25-8.77-11.25-8.77,0,0,14.24,3.14,21.69-3.07,7.45-6.21,6.72-13.59,4.75-13.73-1.97-.15-2.19,2.34-6.28,1.83-4.09-.51-6.72-6.57-6.72-6.57l5.33,.44s-1.97-5.55-12.86-6.28c-10.88-.73-6.94-4.24-8.18-7.01-1.24-2.78,2.05-3.07,3.51-3.51,1.46-.44,10.74-3.07,16.29-8.11,5.55-5.04,4.38-14.02,2.48-14.02s-2.48,2.92-5.33,2.7c-2.85-.22-6.72-1.46-8.25-4.16-1.53-2.7-6.28-1.39-8.91,0-2.63,1.39-4.16,2.99-5.55,1.68-1.39-1.31-3.07-5.04-3.21-8.47-.15-3.43,4.31-4.24,6.79-9.93,2.48-5.7,1.83-18.99,2.05-22.72,.22-3.73,4.02-11.1,2.05-16.14-1.97-5.04-9.64-15.34-10.74-19.87-1.1-4.53-3.36-17.6-3.36-17.6,0,0-1.83,15.34-1.97,22.64-.15,7.3-1.02,21.04-2.34,25.57-1.31,4.53-.15,9.93-2.48,15.49-2.34,5.55-5.41,11.18-4.31,16.43,1.1,5.26,4.05,6.57,4.05,6.57,0,0,.88,2.3-.44,3.62s-19.95,4.32-25.6,1.13c-6.87-3.87-9.13-10.01-9.13-10.01,0,0-.66,7.23,2.41,13.95,3.07,6.72,8.18,10.81,8.18,10.81,0,0-1.46,4.02,2.63,6.43,4.09,2.41,14.54,3.07,14.54,3.07,0,0-3.87,10.37-7.16,12.56-3.29,2.19-8.77-.66-13.44,2.99-4.67,3.65-9.64,3.07-13.15,6.94-3.51,3.87-2.26,6.28-1.24,6.28s4.24-2.19,6.57-.95c2.34,1.24,3.43,3.51,6.79,4.97,3.36,1.46,6.87,1.83,6.87,1.83,0,0-7.38,8.47-12.86,9.28,13.37,2.92,20.67-8.18,24.47-6.65,3.8,1.53,1.75,9.93-4.97,15.49-6.72,5.55-27.46,14.32-37.4,14.32s-10.74-.51-12.93,1.9c-2.19,2.41,.77,4.6,6.9,5.59,6.14,.99,6.25,2.96,11.61,3.4,5.37,.44,7.34-.22,7.34-.22,0,0-16.33,8.98-11.18,13.37,5.15,4.38,8.11-1.97,13.37-2.08,5.26-.11,8.22,.33,9.64,2.96,1.42,2.63,10.41-2.41,15.01-8,4.6-5.59,.33,9.09-1.42,12.16s-11.07,11.29-19.61,17.97c-8.55,6.68-24.21,14.57-37.03,15.89-12.82,1.31-19.39-.33-20.6,2.52-1.21,2.85,1.31,8.98,9.86,10.52,8.55,1.53,18.63-.55,20.49,1.1,1.86,1.64-4.27,14.24-9.86,15.56-5.59,1.31-8.77,1.31-9.53,5.26-.77,3.94,7.34,6.03,12.38,5.59,5.04-.44,16.54-7.56,16.54-7.56,0,0-3.62,11.07-1.86,15.45-8.11,5.59-33.53,34.4-33.53,34.4,0,0-5.26-3.4-16.87-5.48-11.61-2.08-10.74-7.34-10.74-7.34,0,0,1.97-4.6,10.19-3.73,8.22,.88,23.23-10.96,24.43-16.11,1.21-5.15-3.29-5.04-3.29-5.04,0,0,1.75-10.19-9.53-11.29-11.29-1.1-13.48-4.71-21.58-10.63-8.11-5.92-8.98-4.93-8.98-4.93,0,0,4.6-6.9,7.89-7.78,3.29-.88,10.63-.33,16.11-6.68,5.48-6.35,8.44-8.77,10.41-9.53,1.97-.77,1.86-5.81-5.48-11.61-7.34-5.81-7.38-5.37-10.66-9.82-3.29-4.46-7.23-6.35-7.23-6.35,0,0,2.26-5.41,1.24-7.96-1.02-2.56-5.41-5.19-5.26-8.47,.15-3.29-.51-11.83-5.11-17.46-4.6-5.62-4.53-10.74-4.31-13.44,.22-2.7,.07-10.01-3.43-13-3.51-2.99-.44-9.93-3.36-9.57-2.92,.37-1.1,7.38-1.46,10.08-.37,2.7-2.56,1.53-2.99,9.13-.44,7.6,1.31,13.51-1.53,17.75-2.85,4.24-8.77,10.52-10.66,18.41-1.9,7.89,3.43,10.74,3.43,10.74,0,0,2.34,.8,2.05,5.41-.29,4.6,5.48,9.71,6.87,9.64-1.1,4.67-3.36,7.45-8.25,7.45s-8.55-3.58-14.02,1.39c-5.48,4.97-12.13,3.94-13.15,9.42-1.02,5.48-.15,8.47,6.65,9.2,6.79,.73,13.15-.29,19.65-.8,6.5-.51,7.16-.37,7.52,1.97,.37,2.34,2.52,10.81-3.4,13.77-5.92,2.96-24.43,5.04-39.88,5.26-15.45,.22-27.72-2.63-27.72-2.63,0,0,22.35,13.48,31.88,15.12-16.33,3.18-12.49,14.9-9.64,16.33s12.05-2.19,16.33-1.42c4.27,.77,13.26,6.03,16.98,8.11,3.73,2.08,12.71,3.51,12.71,3.51,0,0-.99,3.07-3.07,4.6-2.08,1.53-9.31-1.53-13.91,3.18-4.6,4.71-8.22,5.37-11.5,5.48-3.29,.11-7.34-.73-14.94,4.75-7.6,5.48-24.69,.88-27.25,3.73-2.56,2.85-3.51,6.79,1.9,8.69,5.41,1.9,46.38,6.87,46.38,6.87,0,0-7.41,5.11-12.23,11.14-4.82,6.03-1.21,10.85,4.38,10.63,5.59-.22,28.82-4.05,29.58-2.3,.77,1.75-17.79,10.63-34.73,12.82-16.95,2.19-81.08-2.19-81.08-2.19,0,0,16.36,8.91,23.37,11.69-8.03,4.82-2.63,9.93,1.02,12.13,3.65,2.19,27.46,8.62,27.46,8.62,0,0-12.56,.29-25.57,7.74,14.46,2.92,26.59,.15,26.59,.15,0,0-5.7,5.55,.15,11.98-4.67,6.43-6.57,10.66-11.39,11.25-4.82,.58-8.47,.73-11.69,3.65-3.21,2.92-7.01,.73-11.25,3.07-4.24,2.34-13.15,4.09-17.82,9.79-4.67,5.7-9.64,13.44-18.99,13.88l-8.33-8.77s2.19-1.61,4.09-1.31c1.9,.29,4.67,1.75,7.45-.73,2.78-2.48,2.05-7.16,2.05-7.16,0,0,8.47,.88,13.73-4.24,5.26-5.11,2.3-7.19,1.21-7.63-1.1-.44-5.81,2.74-8.77,1.31-2.96-1.42-4.49-4.16-6.9-4.49-2.41-.33-7.89-5.7-7.89-5.7,0,0,6.57-1.1,11.39-1.75,4.82-.66,7.01-4.27,5.59-6.79-1.42-2.52-2.23-2.99-8.36-3.14-6.14-.15-9.93-2.41-10.96-5.92-1.02-3.51-1.61-6.57-3.8-8.11-2.19-1.53-1.75-2.63-1.17-2.85,.58-.22,3.14,3.73,5.92,2.92s2.19-2.12,3.07-2.41c.88-.29,4.31,.51,7.67-3.29,3.36-3.8,5.04-7.52,2.99-7.82-2.05-.29-5.55,2.56-7.82,.58-2.26-1.97-2.99-1.02-4.75-2.48s-2.7-7.52-8.18-8.55c-.58-2.56-.15-3.73,.37-4.67,.51-.95,3.58-5.41,3.58-9.06s-1.1-5.11-2.26-8.69c-1.17-3.58,.95-5.84-1.24-9.42-2.19-3.58-1.97-6.94-2.99-10.3-1.02-3.36-1.24-6.72-3.65-6.65-2.41,.07-.07,7.52-.22,12.05-.15,4.53-2.12,8.03-4.09,14.39-1.97,6.35-3.43,9.35-2.78,11.69,.66,2.34,3.58,3.07,4.75,2.85,.58,2.63,.58,2.56-1.68,5.48-2.26,2.92-4.09,2.92-10.15,5.7-6.06,2.78-9.06,6.94-8.18,9.28,.88,2.34,2.41,1.17,4.89,1.9,2.48,.73,2.41,2.7,4.75,2.56,2.34-.15,3.65-1.1,3.65-1.1,0,0,2.41,2.99-.73,5.99-3.14,2.99-2.26,3.36-7.52,3.36s-16.29,2.41-20.53,.37c4.24,4.82,19.31,5.1,13.59,6.87-9.71,2.99-6.72,2.99-10.15,4.31-3.43,1.31-5.19,1.68-5.26,4.24s3.65,2.05,4.53,2.63,1.61,3.07,4.31,3.29c2.7,.22,5.7-1.31,7.96-1.31s6.43,.29,9.35-1.1c-1.1,4.38-2.92,6.28-11.32,8.98-8.4,2.7-20.45,5.55-33.45,3.8,4.46,6.35,26.66,5.41,26.66,5.41,0,0-5.84,3.87-17.82,5.92-11.98,2.05-16.14,3.87-16.14,3.87,0,0,5.55,4.02,10.01,4.97,4.46,.95,7.74-1.02,11.69-.73,3.94,.29,6.06,2.92,11.54,2.34,5.48-.58,7.52-2.63,7.52-2.63,0,0,.58,4.09,4.6,4.46-10.41,11.21-23.56,18.44-31.45,19.32-7.89,.88-16.33-1.86-22.57,.22,10.41,8.98,20.27,9.97,23.67,10.08,3.4,.11,13.91,.22,13.91,.22,0,0-22.13,2.57-23.56,7.67H1.4s-3.14,1.79,0,1.79Z"/>
</svg>