<?xml version="1.0" encoding="UTF-8"?>
<svg id="Layer_2" data-name="Layer 2" xmlns="http://www.w3.org/2000/svg" viewBox="0 0 69.18 94.41">
  <defs>
    <style>
      .cls-1 {
        fill: #231f20;
        opacity: .1;
      }

      .cls-2 {
        fill: #f9f8f7;
      }

      .cls-3 {
        fill: #eaebeb;
      }

      .cls-4 {
        fill: #ffcd48;
      }

      .cls-5 {
        fill: #fcbb38;
      }

      .cls-6 {
        fill: #efefef;
      }

      .cls-7 {
        fill: #ddd;
      }

      .cls-8 {
        fill: #fff;
        opacity: .15;
      }
    </style>
  </defs>
  <g id="OBJECT">
    <g>
      <path class="cls-3" d="M57.2,81.07h-12.33c-6.61,0-11.98-5.38-11.98-11.98v-26.26c0-6.61,5.38-11.98,11.98-11.98h12.33c6.61,0,11.98,5.38,11.98,11.98v26.26c0,6.61-5.38,11.98-11.98,11.98Zm-12.33-44.23c-3.3,0-5.99,2.69-5.99,5.99v26.26c0,3.3,2.69,5.99,5.99,5.99h12.33c3.3,0,5.99-2.69,5.99-5.99v-26.26c0-3.3-2.69-5.99-5.99-5.99h-12.33Z"/>
      <path class="cls-3" d="M52.64,85.24l-1.38-2.8V17.51h-3.42v17.09H10.25V17.51h-3.42V82.45l-1.38,2.8c-1.87,4.34,1.33,9.17,6.09,9.17H46.55c4.76,0,7.96-4.83,6.09-9.17Z"/>
      <rect class="cls-4" x="10.25" y="34.6" width="37.59" height="51.26"/>
      <path class="cls-7" d="M30.76,91.85H11.96c-.94,0-1.71-.77-1.71-1.71h0c0-.94,.77-1.71,1.71-1.71H30.76c.94,0,1.71,.76,1.71,1.71h0c0,.94-.77,1.71-1.71,1.71Z"/>
      <path class="cls-7" d="M38.45,91.85h-1.71c-.94,0-1.71-.77-1.71-1.71h0c0-.94,.77-1.71,1.71-1.71h1.71c.94,0,1.71,.76,1.71,1.71h0c0,.94-.76,1.71-1.71,1.71Z"/>
      <path class="cls-5" d="M43.36,66.85c0,1.06-.86,1.92-1.92,1.92s-1.92-.86-1.92-1.92,.86-1.92,1.92-1.92,1.92,.86,1.92,1.92Z"/>
      <path class="cls-5" d="M23.71,81.39c0,1.06-.86,1.92-1.92,1.92s-1.92-.86-1.92-1.92,.86-1.92,1.92-1.92,1.92,.86,1.92,1.92Z"/>
      <path class="cls-5" d="M26.06,68.78c0,.71-.57,1.28-1.28,1.28s-1.28-.57-1.28-1.28,.57-1.28,1.28-1.28,1.28,.57,1.28,1.28Z"/>
      <path class="cls-5" d="M27.34,46.78c0,.71-.57,1.28-1.28,1.28s-1.28-.57-1.28-1.28,.57-1.28,1.28-1.28,1.28,.57,1.28,1.28Z"/>
      <path class="cls-5" d="M42.72,46.78c0,.71-.57,1.28-1.28,1.28s-1.28-.57-1.28-1.28,.57-1.28,1.28-1.28,1.28,.57,1.28,1.28Z"/>
      <path class="cls-5" d="M17.55,52.97c0,1.18-.96,2.14-2.14,2.14s-2.14-.96-2.14-2.14,.96-2.14,2.14-2.14,2.14,.96,2.14,2.14Z"/>
      <path class="cls-8" d="M14.31,80.75h0c-.94,0-1.71-.77-1.71-1.71v-17.95c0-.94,.77-1.71,1.71-1.71h0c.94,0,1.71,.77,1.71,1.71v17.95c0,.94-.77,1.71-1.71,1.71Z"/>
      <path class="cls-1" d="M57.12,30.85h-5.93v-13.34h-3.42v13.34h-2.97c-3.42,0-6.5,1.45-8.68,3.75h-5.57v59.81h15.93c4.76,0,7.96-4.83,6.09-9.17l-1.38-2.8v-1.38h5.93c6.61,0,11.98-5.38,11.98-11.98v-26.26c0-6.61-5.38-11.98-11.98-11.98Zm5.99,38.24c0,3.3-2.69,5.99-5.99,5.99h-5.93V36.84h5.93c3.3,0,5.99,2.69,5.99,5.99v26.26Z"/>
      <circle class="cls-2" cx="15.42" cy="12.98" r="11.03"/>
      <circle class="cls-2" cx="44.64" cy="14.31" r="8.76"/>
      <circle class="cls-2" cx="32.68" cy="8.76" r="8.76" transform="translate(16.49 38.46) rotate(-76.41)"/>
      <circle class="cls-6" cx="20.95" cy="17.51" r="9.6" transform="translate(-5.05 9.18) rotate(-22.13)"/>
      <circle class="cls-6" cx="35.88" cy="19.77" r="8.86"/>
      <circle class="cls-2" cx="29.9" cy="27.34" r="11.96"/>
      <circle class="cls-2" cx="47.42" cy="27.34" r="10.68"/>
      <circle class="cls-2" cx="11.97" cy="27.11" r="11.97"/>
    </g>
  </g>
</svg>