<?xml version="1.0" encoding="UTF-8"?>
<svg id="Layer_2" data-name="Layer 2" xmlns="http://www.w3.org/2000/svg" viewBox="0 0 280.22 75.02">
  <defs>
    <style>
      .cls-1 {
        fill: #feffff;
      }
    </style>
  </defs>
  <g id="Layer_1-2" data-name="Layer 1">
    <path class="cls-1" d="M83.94,34c.3-15.78,12.87-30.39,28.41-33.38,10.26-1.98,19.66,.93,28.19,6.73,5.36,3.65,9.84,8.21,13.32,13.83,3.3-4.72,7.88-6.84,13.43-6.75,6.3,.1,11.37,3.09,15.53,7.54,6.18,6.6,9.96,14.64,13.01,23.03,.61,1.68,1.29,1.74,2.69,1,4.85-2.55,9.7-5.17,15.12-6.33,7.36-1.58,14.65-1.35,21.55,1.9,8.89,4.19,12.44,13.87,8.54,23.17,1.76-.52,3.32-1.02,4.91-1.43,10.96-2.83,20.59-.11,29.15,7.04,.06,.05,.13,.1,.17,.17,.79,1.32,2.8,2.37,2.13,3.93-.44,1.04-2.45,.37-3.75,.37-91.16,.02-182.32,.01-273.48,.08-2.32,0-2.84-.55-2.86-2.85-.08-6.64,5.2-13.43,11.91-16.26,5.84-2.46,11.99-2.49,18.2-1.68,2.27,.3,4.53,.55,6.76,1.05,2.06,.46,1.73-1,1.52-2.09-.56-2.8-.85-5.62-.9-8.48-.22-11.25,5.53-17.12,15.89-19.14,10.52-2.05,19.96,.46,28.4,6.98,.62,.48,1.26,.92,2.16,1.57Z"/>
  </g>
</svg>