<?xml version="1.0" encoding="UTF-8"?>
<svg id="Layer_2" data-name="Layer 2" xmlns="http://www.w3.org/2000/svg" viewBox="0 0 3557.31 561.54">
  <g id="Layer_1-2" data-name="Layer 1">
    <path d="M0,561.54H3557.31v-184.57c-.75-.83-1.75-1.56-3.12-2.17-1.55-.69-2.2-3.56-3.11-5.5-3.41-7.22-3.83-14.95-3.93-22.76-.04-2.96-.27-5.96-.8-8.86-.15-.8-1.67-1.35-2.65-2.08-1.69,3.46-3.16,6.49-4.76,9.75,3.63,5.88,3.07,12.12,1.43,18.95-2.85-.27-5.33-.5-7.81-.74-9.13,7.77-20.23,13.1-30.06,14.45,1.88-3.18,3.45-6.63,5.75-9.5,2.31-2.87,5.35-5.16,8-7.64-.24-1.83-.46-3.49-.7-5.32,3.71-1.27,7.27-2.48,12.03-4.1-5.52-6.22-2.93-9.78,2.8-12.43,1.04-.48,1.62-1.95,2.71-3.34-.37-3.06-.77-6.38-1.29-10.67-2.05,.36-4.22,.09-4.95,.99-2.43,2.99-5.24,6.14-6.27,9.7-1.99,6.87-7.17,10.56-12.2,14.55-4.3,3.41-7.93,2.06-11.48-2.49,1.37-1.9,2.39-4.89,4.32-5.68,3.99-1.65,5.65-5.24,8.21-8.01,.77-.84,.45-3.01,.05-4.4-.11-.4-2.5-.68-3.44-.21-3.46,1.73-6.63,4.08-10.15,5.66-2.6,1.17-5.58,1.49-7.95,2.08-4.65-5.05-4.04-10.01-1.67-15.01-4.25-1.53-7.75-2.8-10.74-3.88-.41-1.25-.67-1.66-.64-2.05,.05-.85,.53-1.76,.33-2.52-1.1-4.36-3.03-8.72,2.19-12.08,.54-.34,.07-4.01-.78-4.44-3.93-1.98-7.31-4.03-8.42-8.8-.23-.97-2.81-2.14-4.09-1.92-1.33,.22-3.38,2-3.4,3.12-.06,3.83-.99,6.32-4.9,8.01-2.75,1.19-2.4,4.54-.98,6.84,1.29,2.09,3.37,3.71,5.01,5.44-1.15,5.86-6.64,7.86-10.45,10.71,2.71,8.21,13.16,7.61,15.23,15.39-6.38,3.72-12.7-.44-19.51,.59,3.01,6.71,9.21,8.86,13.52,14.24-6.86,5.37,2.55,6.97,3.17,11.5-10.88,5.83-22.22,3.52-33.08,2.38-4.69-.49-9.8-4.03-13.25-7.6-5.15-5.33-9.89-11.62-8.31-20,.29-1.55,1.99-2.81,2.41-4.37,.26-.99-.34-2.62-1.13-3.35-.78-.72-2.44-1.17-3.43-.84-2.01,.66-3.77,2.05-5.74,2.86-.59,.24-1.55-.41-2.55-.71-.4-2.24-.82-4.64-1.38-7.83-4.21,.74-7.89,1.39-11.21,1.98-4.83-7.12-4.82-7.09-11.38-6.49-1.62,.15-3.26,.07-4.73,.09-2.71-8.91-5.24-17.25-7.99-26.3,2.41-2.76,6.16-5.94,4.91-11.75-3.76-2.57-7.74-5.3-11.87-8.12-2.82,4.24-5.14,7.72-7.52,11.29,.51,3.87,1.32,7.67,5.44,9.51,2.2,.98,2.61,2.52,3.16,4.85,1.52,6.38,.41,12.13-3.79,16.66-4.44,4.78-4.53,9.85-3.37,15.52,.32,1.55,.56,3.12,.91,5.1-4.17-.01-7.43-.02-11.29-.04,.44,4.16,1.76,7.77,.96,10.81-1.81,6.87,1.6,10.59,6.46,14.09,1.2,.86,2.01,2.26,4.34,4.96-9.41-1.59-10.89,4.58-14.33,9.75,1.6,4.07,3.27,8.32,5.04,12.8-7.52,2.45-12.65-3.16-18.23-6.33-4.16,2.18-6.58,5.05-6.15,9.41,.35,3.54,3.44,4.67,6.23,5.87,.4,.17,.83,.29,1.19,.52,4.87,3.09,5.97,6.43,4.21,11.98-2.34,7.36-6.45,13.79-10.42,20.3-.27,.45-1.49,.31-3.08,.6,.04-3.4-.66-6.92,.31-9.89,1.09-3.34,3.67-6.2,5.91-9.75-5.4-3.93-10.56-7.77-15.83-11.46-1-.7-2.39-1.01-3.64-1.17-1.13-.15-2.32,.16-3.55,.27,.98,3.57,1.86,6.75,2.73,9.93-2.31,2.08-4.46,3.57-6.02,5.53-1.64,2.07-3.56,2.74-5.5,1.41-1.14-.79-2.14-2.87-1.98-4.24,.28-2.57,.11-4.84-.32-7.45-1.52-9.17,4.89-14.23,14.03-11.67,1.22,.34,2.4,.84,3.6,1.27q3.44-9.43,2.97-14.38-7.51-.34-13.05,4.93c-6.81-1.46-9.32-5.32-7.24-12.23,.36-1.2-.87-2.89-1.3-4.16-6.21,.43-5.13,6.92-9.39,9.17-.05-1.59-.16-2.78-.11-3.97,.32-8.17-2.24-15.16-8.38-20.73-4.05-3.67-6.03-8.75-6.39-13.73-.48-6.45-2.72-12.59-6.69-16.42-5.42-5.23-4.92-12.44-8.77-17.91-.81-1.15-.42-3.32-.18-4.97,.43-2.92,1.16-5.79,1.75-8.57-3.13-3.11-5.8-5.76-9.18-9.12-1.54,4.59-2.71,8.07-4.01,11.95,4.74,7.26,6.74,15.24,5.5,23.86-4.59,2.3-6.75-5.35-12.4-2.44,1.83,7.47,11.87,8.64,13.05,17.15-2.38,2.72-5.13,5.87-7.91,9.06,.21,1.21,.06,2.71,.71,3.66,4.43,6.53,3.75,12.6-.22,19.25-3.91,6.55-5.53,8.06-12.97,7.51-2.95-.22-5.89-.53-8.85-.8-6.13-8.13-7.7-16.32-2.25-25.29,.98-1.61,1.07-3.77,1.61-5.81-4.8-1.55-9.8-.83-12.41-4.91-2.12-3.31-3.53-7.06-5.25-10.61-1.64,1.96-2.01,3.58-1.66,5.04,.58,2.49,2.05,4.82,2.33,7.31,.3,2.72-.81,5.14-5.06,5.42-2.65-3.69-5.58-7.77-8.14-11.33-4.21-.91-6.69,.4-8.56,3.18-3.03,4.51-6.07,9-9.37,13.88-6-4.97-1.18-10.26-2.17-15.6-3.19-3.27-6.49-7.23-6.61-12.87-.04-1.67-.79-3.35-1.32-4.99-1.11-3.42-3.22-4.85-5.46-3.72-2.68,1.34-2.13,3.7-1.12,5.53,3.24,5.83,5.12,11.86,4.07,18.6-.13,.8-.02,1.86,.42,2.48,3.86,5.4,2.23,11.42,2.68,16.71-5.99,4.62-11.28,8.7-17.23,13.29-1.05-2.33-2.37-3.85-2.23-5.22,.39-3.82,1.35-7.58,2.14-11.35,.61-2.89,2.02-5.83,1.79-8.64-.45-5.56,.89-9.95,4.69-14.16,2.88-3.19,2.28-4.09-2.07-9.38-4.51,2.95-8.71,6.62-13.95,6.97-1.59-3.45-2.56-6.29-4.17-8.69-.58-.86-2.72-.66-4.76-1.07,1.15,2.89,1.87,4.72,3.04,7.68-2.92-.79-4.47-1.42-6.08-1.63-17.63-2.29-13.69-4.79-10.25-17-3.08-1.11-6.17-2.21-9.16-3.28-2.25-6.97-2.52-13.93-6.87-19.78-3.75-5.05-2.76-12.88-8.81-17.37-1.12,3.34-2.17,6.06-2.9,8.87-.29,1.12-.34,2.82,.3,3.57,4.01,4.72,2.4,9.15-1.22,12.6-5.37,5.11-7.31,11.19-6.69,18.39-6.59-1.51-8.46-3.91-16.13-20.21,1.07-2.17,2.19-4.43,3.53-7.15-1.5-1.39-2.94-2.7-3.57-3.29-6.54,1.88-8.18,8.83-15.18,9.63-.46-6.8-4.44-12.62,.46-19.6,2.9-4.13,.21-8.14-5.25-11.07-1.83-.98-4.19-1.34-3.53-4.29,8.42-1.66,10.83-3.38,10.06-8.3-.32-2.04-.13-5.15-2.46-5.87-2.81,2.44-5.24,4.56-8.25,7.17-1.57-3.18-2.18-5.93-3.88-7.48-2.02-1.84-4.98-2.65-7.4-3.84,.53-4.96,.97-9.17,1.38-13-3.03-2.78-6.44-4.65-7.75-7.48-1.27-2.73-.37-6.47-.44-10.3-3.55,.29-5.77-1.12-6.82-4.6-.77-2.55,.56-6.47-4.26-7.26-.34,1.09-1.27,2.48-.9,3.19,2.17,4.17,1.64,7.33-2.54,9.87-.78,.48-.82,2.19-1.24,3.44,2.22,1.73,4.22,3.29,5.99,4.67,.24,4.81,.46,9.41,.73,14.88-3.55,3.06-5.75,6.88-3.32,12.93,1.69,4.19-1.81,9.74-5.99,9.62-6.36-.19-7.29,4.67-9.97,7.75,2.72,7.22,5.37,14.25,8.3,22.03,2.12,1.51,5.14,3.66,8.21,5.84-2.75,7.38-6.42,13.7-3.72,22.35-9.89-3.31-17.85-2.28-25.48,4.34,2.69,5.07,5.19,9.78,7.59,14.31-4.04,2.13-6.2-5.05-10.9-1.76,.84,2.8,.96,6.25,2.71,8.32,3.52,4.14,1.05,4.77-2.69,5.68-4.4-4.39-8.6-9.47-14.74-9.98-2.81-5.81-4.77-11.11-7.78-15.73-2.69-4.13-4.2-8.26-4.82-13.11-.53-4.22-2.28-8.27-3.22-12.45-.9-3.98-1.46-8.04-2.19-12.17-.97,.6-2.18,.95-2.25,1.45-.59,4.15-1.66,8.44,.71,12.36,1.78,2.93,1.31,5.72,.16,8.64-.93,2.36-1.76,4.77-2.78,7.58,2.65,3.15,5.26,6.25,8.23,9.78-3.37,1.79-6.16,2.85-8.43,4.59-2.19,1.68-3.01,4.59-1.54,6.99,1.98,3.23,4.74,5.65,4.82,10.16,.07,3.94,2.13,7.85,3.42,12.18-4.56,.5-8.09-.25-10.98-3.25-2.96-3.07-6.61-5.66-6.78-10.55-.1-2.98-.38-5.94-.52-8.92-.17-3.64-1.96-6.09-4.91-7.96-4.34,4.22-5.2,8.28-2.31,13.13,1.76,2.94,3.4,6.05,4.46,9.28,1.95,5.94-1.54,10.85-7.63,9.75-6.3-1.14-9.82,.85-12.52,6.2-.87,1.72-2.73,2.94-4.19,4.35-.35-1.63-1.28-3.67-.63-4.61,3.69-5.34,1.49-9.76-1.45-14.26-1.18-1.8-2.17-3.73-3.46-5.43-.4-.52-1.54-.47-2.36-.69-1.57,1.82-3.15,3.65-3.86,4.47-4.08-2.09-7.47-3.82-11.38-5.82-.04-5.02,.14-10.14-.28-15.22-.1-1.21-2.05-2.61-3.46-3.24-.7-.31-2.27,.72-3.12,1.5-1.36,1.25-1.45,4.4-5.19,2.48,.04-7.52,2.79-15.91-3.62-22.7-2.75-.23-5.57-.47-8.01-.67-.66-1.56-1.27-2.34-1.28-3.12-.12-5.72,2.12-12.39-6.68-14.21-.91-.19-1.65-2.95-1.79-4.58-.22-2.4,.17-4.86,.39-9.14-5.57,5.09-8.99,11.57-16.38,9.44-1.51-4.73,.55-8.04,2.68-11.32,3-4.6-.38-8.77-4-10.54-3.31-1.62-6.89-2.72-10.47-4.1-3.07,2.72-4.65,5.65-3.35,10.17,.86,3,.23,6.42,.27,10.72-3.63-2.33-6.01-4.06-8.57-5.44-1.83-.98-4.91,1.37-4.33,3.32,1.22,4.08,2.8,8.05,4.28,12.19-2.54,4.86-2.58,4.96-.55,11.26-2.48-.76-4.75-2.89-8.23-1.73,1.18,1.65,1.96,2.63,2.61,3.69,4.33,7.01,2.21,14.98,3.02,22.49,.28,2.62-1.66,5.74-4.85,7.09-1.82,.77-3.52,1.8-5.75,2.95,3.19,3.4,5.7,6.07,8.91,9.48-4.96,1.61-8.91,2.89-13.67,4.43,4.08,7.45,3.36,16.41,8.43,23.61,1.18,1.67,1.6,4,1.92,6.1,.17,1.11-.32,3.15-1.01,3.4-1.4,.52-4.08,.74-4.6-.03-4.84-7.05-9.84-5.15-15.29-.92-1.55,1.2-3.64,1.71-4.8,2.22-7.41-4.08-3.49-11.76-7.41-16.5-4-4.84-4.4-11.99-9.34-16.07-2.62,.46-4.7,.83-6.6,1.16-2.28-3.68-4.4-7.11-6.52-10.53-2.09,3.65-4.23,7.27-6.25,10.96-1.85,3.38-3.36,6.96-5.38,10.23-1.63,2.65-5.35,2.7-7.92,.45-2.59-2.26-3.32-5.18-1.43-8.06,1.85-2.82,4.2-5.32,6.14-7.73-1.9-6.01-3.73-11.6-5.42-17.22-.46-1.53-1.25-4.16-.63-4.64,4.91-3.74,1.47-8.66,2.08-12.93,.19-1.34-.59-3.84-1.51-4.15-4.18-1.46-4.15-4.84-4.87-8.21-.29-1.34-2.08-2.36-3.5-3.86-3.14,4.23-5.83,7.86-8.69,11.71-4.93-3.23-9.39-6.14-15.7-10.27,6.54-.71,10.94-1.19,14.84-1.61,.91-1.41,1.54-2.07,1.81-2.86,3.78-11.41,1.73-15.16-9.95-18.1-.35-2.82-.69-5.64-.95-7.81-7.51-4.05-14.29-2.25-20.57,0-3.2,1.15-5.45,4.9-8.17,7.51,.65,2.57,1.26,4.98,1.92,7.62-1.72,1.41-3.37,2.74-4.98,4.11-2.58,2.2-3.37,5.25-2.02,8.05,1.06,2.19,3.04,3.51,2.02,6.68-.62,1.92,.84,4.52,2.09,9.93-4.41-4.95-6.75-7.57-9.22-10.34-4.01,3.03-5.66,6.14-4.84,10.4,.8,4.16,1.65,8.31,2.26,12.5,.62,4.23-1.11,7.44-4.69,9.64-.85-.32-1.75-.42-2.31-.91-5.13-4.49-5.86-4.69-9.81,.19-1.74,2.15-3.52,3.58-6.09,4.19-1.44,3.3-2.43,6.4,2.41,8.06,.97,.33,2.42,1.94,2.24,2.56-1.53,5.28,2.1,7.85,5.11,10.96,1.94,2.01,2.79,4.48-.83,6.56-3.5-2.1-7.05-4.46-10.82-6.42-2.07-1.08-4.28-.49-5.64,1.59-.68,1.05-.83,2.43-1.44,3.55-1.96,3.61-4.72,3.89-6.66,.75-1.79-2.89-3.18-6.13-5.42-8.61-6.18-6.85-10.94-14.08-8.96-23.35-4.01-4.83-7.55-9.1-11.45-13.8-2.38,3.6-1.91,8.64-6.21,10.97-.95,.51-1.51,3.07-1.16,4.41,1.71,6.67-2.22,9.53-7.4,11.62-.52,.21-1.37-.42-2.59-.84,.68-3.2,1.38-6.46,1.82-8.5-2.01-4.1-3.49-7.12-4.95-10.09,1.63-2.89,3.04-5.38,5.38-9.53-5.51,1.67-9.33,2.82-12.59,3.81-2.37-4.66-4.49-8.31-6.12-12.17-2.88-6.81-8.45-13.01-4.73-21.91-2.56-.28-4.62-.3-6.56-.78-1.96-.48-3.82-1.42-5.11-1.92-1.25,.59-1.81,.67-2,.98-2.81,4.47-5.39,8.94-12.09,5.56-1.44-.72-4.13,.49-6.01,1.35-2.33,1.06-4.38,2.73-6.61,4.02-2.34,1.35-5.8,.81-5.5-.71,.29-1.44,1.36-2.86,2.41-3.98,1.12-1.19,3.23-1.75,3.78-3.06,.53-1.26-.39-3.13-.71-4.97-3.38-.18-7.41,3.09-9.08-2.7,2.53-1.17,5.14-2.38,7.27-3.37,.93-4.31,1.92-8.01,2.48-11.78,.49-3.28-.31-4.74-4.46-5.93-5.89-1.68-11.57-5.8-13.69-12.15-1.73-5.2-5.37-6.69-9.9-8.53-1.34,4.3-2.46,7.85-3.57,11.4l.16-.21c1.37,3,2.74,6,3.71,8.13-2.65,2.41-5.01,4.52-7.34,6.68-1.68,1.56-3.63,2.6-5.73,1.3-2.01-1.24-3.86-1.77-5.93-.51-2.27,1.37-4.1,1.06-5.04-1.49-1.01-2.72-2.99-3.81-5.62-4.61-3.99-1.22-7.84-2.89-11.66-4.34-4.12-5.03-1.36-10.65-1.45-16.03-.19-1.35-.37-2.69-.56-4.04-1.69-2.44-3.7-4.55-3.38-8.05,.42-4.49-2.89-6.58-6.99-8.84-2.24,3.89-4.3,7.45-6.26,10.85,2.88,4.41,8.36,8.02,5.73,12.77-2.38,4.29-.43,7.47-.04,11.02,.9,8.13,.31,15.94-2.99,24.03-1.92-.59-3.61-.86-5.06-1.6-7.45-3.83-13.23-2.39-17.37,5.08-.29,.52-1.49,.53-2.3,.79-1.39-1.49-2.78-2.98-4.28-4.58-6.03,3.37-11.89,6.65-18.07,10.09,2.97,7.57,.86,14.93,.01,22.16-3.26,.58-5.67,1-7.67,1.35-3.36,4.01-1.97,9.78-6.17,12.87-.87-.76-1.92-1.22-1.98-1.8-1.09-9.34-2.1-18.69-3.05-28.04-.39-3.81-2.63-5.02-6.05-4.83-3.21,4.41-3.59,10.61-9.27,14.34-4.7-2.1-9.27,.1-13.75,3.01-2.35-7.66-2.29-15.13,.56-20.94,4.5-9.14,5.07-19.04,8.34-27.72-.43-1.46-.46-2.46-.95-3.07-4.95-6.07-6.07-12.23-.92-18.81,.75-.96,1.16-2.36,1.29-3.61,.23-2.1,.45-4.46-2.64-4.57-2.76,4.42-5.17,8.95-8.24,12.99-3.21,4.22-5.22,9.87-11.48,11.09-.54-1.15-1.55-2.31-1.57-3.49-.13-8.1-.25-16.16-4.69-23.41-.42-.68-.24-1.69-.47-2.52-.26-.92-.52-1.83-.77-2.75l-39.28,8.4c-1.99,1.58-3.49,3.65-4.48,6-2.53-.18-4.12-2.77-6.2-3.71l-4.6,.98c2.34,7.82,12.63,10.62,12.76,20.38-1.78,1.06-3.85,2.29-6.08,3.62,.87,4.92,1.73,9.81,2.6,14.71-7.37-2.87-11.62-9.7-17.78-14.06-3.66-2.59-4.85-5.64-4.4-9.86,.12-1.11-.73-2.33-1.13-3.5-1.42-.43-2.61-1.04-3.83-1.1-1.68-.09-3.38,.24-4.67,.35-3.88,2.95-4.75,8.73-10.57,9.36,1.71-7.17,2.34-9,6.88-12.82,3.08-2.59,2.29-5.08,1.04-7.98-2.4-.25-6.29,.27-6.9-.9-2.42-4.66-7.39-3.06-11.26-5.1,.48-2.75,1.1-5.18,1.28-7.64,.18-2.55-1.87-2.26-3.55-2.24l.21-.24c-2.88,2.14-5.76,4.27-8.67,6.43,2.95,3.93,6.13,7.4,4.18,12.79-5.74-1.93-9.59-7.96-16.43-6.61-.26,3.22,.23,6.47-.91,8.99-1.37,3.03-4,5.57-6.38,8.02-.62,.64-2.92,.7-3.46,.12-1-1.08-2.14-3.74-1.7-4.17,4.91-4.75,3.86-10.94,4.29-16.69,.47-6.4-2.74-8.71-8.64-6.61-3.26,1.16-6.37,2.33-8.14,5.83-.51,1.01-3.22,1.91-4.3,1.44-2.52-1.11-1.79-3.64-.9-5.59,.88-1.94,2.56-3.54,3.27-5.52,.86-2.37,2.13-5.39,1.35-7.4-2.46-6.38-.45-11.74,2.23-17.28,.97-2.01,.87-4.26-1.16-5.82-2.24-1.72-4.76-2.2-7.2-.58-1.79,1.18-3.26,2.82-5.02,4.07-.55,.39-1.55,.16-2.34,.21-.72-1.48-1.43-2.96-2.13-4.39-1.92,.66-3.49,1.19-6.72,2.3,.69-11.16-1.67-21.54,1.65-32.85-1.94-1.15-4.55-2.06-6.21-3.85-1.5-1.61-1.96-4.19-2.89-6.33-1.75,3.98-2.52,7.74-2.11,11.36,.43,3.79,1.72,7.39,.28,11.29-1.33,3.59-2.16,7.37-3.34,11.54,2.78,2.3,5.49,4.34,7.94,6.67,.78,.74,.89,2.2,1.41,3.64-2.51,1.9-4.86,3.68-7.04,5.33-3.07-.5-5.88-.95-8.34-1.35-4.54,8.35-3.56,14.66,3.83,19.78,2.02,1.4,3.32,3.84,5.1,5.97-1.48,1.95-3.85,3.65-3.77,5.21,.51,9.28-6.05,12.21-12.65,15.14-.86,3.8-1.7,7.51-2.48,10.98,1.5,2.86,2.86,5.45,4.21,8.04-1.57,.34-3.13,.68-4.7,1.02,.69,1.01,1.63,1.98,1.84,3.08,.19,.98-.47,2.22-1.03,3.18-.12,.21-1.73-.05-2.18-.53-1.45-1.54-2.69-3.27-4.01-4.94-2.55-1.35-5.08-2.77-7.7-3.96-.52-.24-1.73,.31-2.18,.86-.46,.55-.8,1.91-.47,2.29,2.22,2.59,4.67,4.99,6.95,7.53,.52,.58,.64,1.51,.95,2.3-.99,2.25-1.99,4.5-2.81,6.35-2.58,1.41-5.93-.28-7.28,4.12,1.79,2.13,4.11,4.54,5.99,7.25,2.21,3.17,4.29,6.48,5.95,9.96,1.33,2.77,5.1,4.16,5.25,8.34-8.02-.37-12.28-5.43-17.02-9.7-1.47-1.32-2.75-3.46-5.23-1.65,.07,.85-.19,1.99,.25,2.42,4.25,4.17,4.4,8.87,2.74,14.29-1.64,5.33-2.26,10.98-3.92,16.31-.64,2.06-2.88,3.62-4.72,5.79-5.73-8.61-6.98-16.45-2.35-24.93,.88-1.62,2.16-3.96-.73-6.21-2.88,2.77-5.78,5.57-9.48,9.12-1.17-2.51-2.5-4-2.37-5.35,.42-4.27,1.36-8.5,2.15-12.73,1-5.39,1.62-10.76-.27-16.58-2.13,1.13-3.58,2.56-4.99,2.54-5.86-.11-10.37-4.42-11.08-10.14-.32-2.56-.89-5.17-.65-7.68,.42-4.33-1.57-7.49-4.22-10.4-1.71-1.87-3.67-3.51-5.56-5.29-6.47,2.73-9.59-.91-10.95-3.71-.45-7.77,.22-13.55-1.33-18.65-2.21-7.27-5.04-14.53-11.14-19.97-2.43-2.16-3.7-5.62-5.49-8.48-2.36,5.62-3,12.27-8.78,16.71-3.71-3.8-3.37-7.08-.97-10.74,.88-1.33,1.08-3.1,1.46-4.27-1.97-2.42-3.54-4.33-5.37-6.58,2.88-2.52,5.26-4.6,9.89-8.65-4.86,1.31-6.72,2.02-8.63,2.28-2.52,.35-5.09,.42-7.64,.48-3.35,.08-5.69-1.56-6.5-5.04-.53-2.32-.37-4.79-.56-8.05-3.55,.53-6.42,.89-9.26,1.42-1.67,.31-3.27,1.23-4.92,1.27-1.01,.03-2.52-.84-2.97-1.73-.5-1-.56-2.87,.06-3.67,1.29-1.64,3.2-2.78,4.78-4.19,2.87-2.56,3.48-5.96,2.6-9.42-.32-1.26-2.14-2.14-3.58-3.47-2.92,2.88-5.29,5.22-8.35,8.23-.36-4.14-.64-7.31-.88-10.03-2.85-2.15-5.75-3.53-7.44-5.81-2.53-3.41-3.92-7.56-8.3-9.53-1.16-.52-1.62-2.88-2.15-4.47-.56-1.67-.7-3.57-4.74-2.23,1.93,5.68,.66,11.05-4.78,14.94-.57,.4,.45,3.02,.72,4.57-.59,.22-.97,.48-1.35,.48-1.98,.04-4.31-1.84-5.81,.63-1.14,1.89,1.34,2.77,1.73,4.02,2.02,6.37,3.77,12.87,4.96,19.44,.58,3.23-.24,6.71-.41,9.57-6.3,4.72-12.73,.74-18.6,1.59-.68,4.23,1.28,6.35,4.35,7.43,2.48,.87,3.18,2.54,3.2,4.82-4.16,1.93-4.6,5.09-4.09,9.48,.85,7.27,4.11,14.7-.41,21.6,2.69,3.65,6.86,5.99,6.1,11.22-3.25-.23-6.36-.45-10.31-.72,1.6,9.06,3.02,17.01,4.4,24.97,.87,5.04,.31,5.94-5.9,9.33-.05,2.95-.58,6.01,.05,8.81,.61,2.72,2.48,5.17,3.63,7.41-2.12,4.53-4.72,7.71-8.76,9.14-2.64-3.18-4.58-6.93-7.66-8.79-2.83-1.72-6.88-1.41-10.24-1.96-3.43-6.1-4.64-13.49-10.84-19.08-.79,2.61-.86,5.25-1.84,5.66-5.71,2.38-10.24,7.55-17.82,8.03,.5-4.79,.94-8.91,1.29-12.32-3.62-4.41-6.85-8.36-10.52-12.83,.23,5.07,.41,9.24,.67,15.08-6.77-4.88-12.72-7.86-17.23-12.99-1.34-1.53-3.12-2.75-4.88-3.81-3.52-2.11-5.16-4.33-3.36-6.47,5.08-6.05,2.56-14.15,6.13-20.53,.45-.8-.31-2.29-.62-3.52-4.46,2.4-8.91,4.83-13.4,7.17-2.67,1.39-5.32,1.87-8.4-.71,5.62-6.73,9.89-13.53,12.78-20.53-1.64-3.24-5.15-4.54-3.48-8.48,1.14-2.69,1.59-5.99-2.84-7.79-3.01,2.62-6.03,5.6-9.43,8.04-1.53,1.1-3.91,1.66-5.77,1.43-1.31-.17-2.39-2.1-2.65-2.35,1.52-7.86,2.96-14.53,3.97-21.26,.2-1.33-.93-3.5-2.1-4.24-2.03-1.29-2.68-2.14-2.35-4.88,.97-7.94-.33-15.58-7.7-20.36-4.18-2.71-1.48-7.32-4.31-11.32-3.39-.6-7.49-1.32-12.11-2.13-.11-4.34-.22-8.94-.33-13.5-10.94,.03-12.04-9.73-17.05-16.39-3.61,5.14-6.93,9.38-9.54,14.05-.48,.86,3.09,3.58,2.82,5.08-.37,2.04-2.64,3.74-4.09,5.58,1.53,4.99,2.44,10.04,6.44,13.96,1.53,1.51,2.52,4.55-1.28,6.53-2.89-2.31-5.92-4.66-8.85-7.11-1.67-1.4-3.21-2.89-6.07-.89,.19,1.8,.45,3.89,.64,5.99,.57,6.02,2.71,10.6,9.22,12.53,1.82,.54,5.14,1.49,4.67,4.99-7.76,2.28-11.37-6.38-18.73-7.53,2.26,9.2,4.49,17.08,11.32,23.38,2.65,2.44,6.9,5.18,6.93,10.74-8.87,.43-13.32-5.4-17.85-11.32-3.92,9.33-3.85,9.31-3.33,11.34,1.06,4.15,4.15,6.29,7.57,8.35,1.21,.73,1.76,2.58,2.95,4.46-2.94,.16-6.31-.38-6.73,.49-2.28,4.8-5.23-.14-8.37,1.26-.28,1.98-.62,4.41-.99,7.07,2.35,2.58,4.7,5.07,6.94,7.65,1.92,2.21,3.45,4.84,5.64,6.72,2.57,2.21,5.75,3.69,8.48,5.73,2.41,1.81,6.49,1.51,7.67,4.86-6.3,4.68-11.84-2.02-17.56-.35,.46,7.87,8.79,9.48,10.6,15.7,4.15,2.13,8.3,4.26,12.58,6.46-.12,2.17-.85,4.45-.2,6.22,.7,1.9,2.7,3.33,4.58,5.47-7.47-.15-12.65-2.53-16.99-7.38-2.51-2.81-6.57-4.33-8.74-7.31-3.17-4.35-7.84,1.38-11.36-3.35-2.47-5.86-1.99-13.14-1.27-19.71-1.49-1.6-2.33-2.57-3.25-3.47-1.09-1.06-2.25-2.06-3.69-3.36-2.13,4.52-6.08,7.11-4.66,12.24,.45,1.61-1.06,4.12-2.27,5.78-3.85,5.27-8.77,9.26-15.09,11.74-3.44-4.2-3.58-8.11-.7-12.1,.98-1.36,3.41-2.63,3.26-3.67-.92-6.42,5.24-9.78,6.22-15.19-1.51-3.33-.9-7.86-5.23-9.28-3.09,4.26-5.76,8.15-8.69,11.84-.62,.79-2.18,.83-3.82,1.4-1.08-3.32-1.05-7.48-6.28-7.63-1.44,3.81-2.73,7.83-4.5,11.64-1.02,2.19-2.29,4.81-5.69,3.88,2.07-7.61,5.25-14.91,5.66-22.97,.09-1.83,1.9-3.63,3.08-5.33,1.22-1.75,2.61-3.39,3.97-5.04,4.06-4.93,2.58-9.32-.96-14.02-1.9,.84-3.38,1.48-4.83,2.12,2.82-13.78,3.43-27.2-6.52-38.84-.45-.53-1.49-.57-1.18-.46-3.71-.05-3.61,4.57-7.25,3.45-3.3-4.16,1.78-10.46-3.35-14.21-5.17-1.89-9.41,4.85-14.67,1.61q-1.5-14.65-13.26-24.66c.93-2.96,2.01-6.16,2.88-9.41,.19-.7-.41-1.61-.82-3.02-2.29-.9-4.93-1.94-7.23-2.84-1.29-4.17-2.39-7.74-3.79-12.27-1.56,1.74-2.88,2.54-2.95,3.45-.14,1.63,.19,3.43,.8,4.97,2.2,5.53,.08,9.05-4.83,11.58-.58,.3-.73,1.42-1.42,2.88,1.99,2.2,4.19,4.64,6.13,6.78,.2,2.85,.07,5.47,.63,7.93,.67,2.96,1.65,5.46-.77,8.4-1.28,1.55-.82,4.54-1.15,6.88q-8.75-1.71-9.26,5.98c-2.24,.71-4.5,1.41-6.33,1.99-1.36,4.83,2.47,8.69,1.09,12.46-5.08,2.29-6.55-5.18-11.13-2.64-1.38,3.57,.83,6.48,1.98,9.63,1.27,3.44,2.38,6.94,3.67,10.71,2.57,.44,5.11,.76,7.59,1.35,1.75,.42,3.16,1.37,2.32,4.07-2.58,.46-5.38,.95-8.56,1.51,.51,4.54,.98,8.71,1.41,12.62,2.81,2.92,5.38,5.59,8.4,8.73-4.28,2.03-7.59,4-11.16,5.1-1.77,.54-4.21-.12-6.03-.95-3.42-1.54-5.4-4.8-5.29-8.31,.25-7.82-4.28-13.73-7.23-20.28-.25-.55-1.45-.67-2.48-1.1-1.73,1.67-3.54,3.41-5.33,5.14,4.76,5.91,5.81,8.21,6.32,14.72,.2,2.55,0,5.13-.01,7.7l-.25-.13c.32,1.81,.63,3.61,.95,5.42l.07-.25c-.22,5.01,3.23,9.64,2.33,14.63-1.61,.28-2.88,.83-3.16,.51-4.34-4.95-11.7-7.18-12.79-14.71-3.81,.33-7.19,.35-10.46,.99-1.95,.38-3.71,1.74-5.64,2.7-1.35-2.2-2.26-4.18-3.63-5.75-1.24-1.43-3-2.41-4.17-3.31,1.42-3.01,2.83-5.24,3.48-7.67,.4-1.49-.23-4.72-.61-4.75-6.71-.59-2.74-7.17-5.27-9.72-2.04-.37-3.73-.67-5.41-.97q-4.43,10.19-14.44,11.52c.49-1.84,.84-3.42,1.34-4.96,1.99-6.08,4.83-11.93,5.08-18.47,.03-.7-.6-1.43-1.01-2.31-2.72,1.71-5.42,3.41-8.67,5.45-2.29-5.88-6.38-9.99-3.91-16.38,1-2.58-1.66-5.01-4.68-4.61-4.3,.57-4.88-2.55-6.26-5.16-.32-.6-1.32-.83-1.94-1.2-2.86,.14-4.84,4.32-8.68,1.26,.34-6,5.43-8.79,9.27-12.43-.06-2.44,.93-5.12-1.58-7.01-5.82,1.04-6.84,9.97-16.15,9.07,5.07-7.61,10.71-14.32,6.12-23.15-1.82,0-3.43,.02-5.04,.02,.67-1.74,3.41-2.92,1.46-5.41-2.95-1.53-4.72,1.1-7.01,1.94-3.31,1.2-5.94-.8-5.73-4.41,.15-2.46,.61-4.9,.81-7.35,.13-1.55,.55-3.38-.08-4.62-1.8-3.58-4.07-6.92-6.28-10.55q-1.09,6.57-7.07,12.8c2.64,1.94,5.2,3.83,7.77,5.71-1.39,6.37-4.37,10.44-10.66,11.29-.61-3.77-3.06-6.17-6.41-7.29-3.38-1.13-2.32-6.75-6.73-6.5-2.16,2.41,.17,6.06-3.25,8.09-3.29,1.95-2.23,5.18-.6,7.95,.62,1.06,2.39,2.29,2.17,2.85-1.38,3.47-1.2,5.98,1.2,9.38,1.91,2.71,1.45,7.16,1.85,10.85,.25,2.27,4.19,3.48,1.53,6.7-1.27,1.53-1.43,3.98-2.62,7.63-5.47-9.9-7.35-20.87-19.57-21.67-.85-2.44-1.61-4.45-2.23-6.5-.59-1.93-1.03-3.9-2.14-8.15-1.02,6.43-.72,10.96-6.2,12.4-2.25,.59-3,2.86-1.47,5.25,.41,.64,.68,1.66,.47,2.34-.95,3.06-10.29,15.31-14.24,18.88-3.45-2.68-6.96-5.41-10.07-7.83-1.85,1.52-3.22,3.48-4.31,3.34-1.91-.25-4.23-1.38-5.3-2.89-1.11-1.58-1.16-4.04-1.29-6.14-.16-2.5,1.06-5.66-.07-7.41-2.19-3.41-1.78-6.26-.64-9.66,.67-1.98,.56-4.22,.75-5.93-4.17-2.63-7.91-4.99-12.55-7.92,.12,5.52-1.25,9.38-5.65,12.39-3.54,2.42-3.04,6.28-.17,10.21,.76,1.04,1.8,1.85,2.68,2.81,2.47,2.7,.99,5.69,.45,8.53-.12,.62-1.24,1.47-1.92,1.48-1.15,.02-2.81-.16-3.39-.92-3.58-4.68-4.13-11.23-9.29-15.06-.71-.53-.47-2.44-.55-3.71-.19-3,.05-6.08-.56-8.99-.6-2.89-2.62-4.37-6.28-2.58-.22,1.33-.39,3-.77,4.61-.59,2.5-.87,5.24-2.14,7.36-.92,1.54-3.12,2.84-4.95,3.2-2.16,.42-3.74-2.74-3.19-5.97,.29-1.67,.5-3.57,1.44-4.86,2.76-3.79,5.9-7.3,8.81-11,.47-.6,.49-1.55,.72-2.32-1.83-2.71-3.66-5.41-5.69-8.41-2.42,1.32-4.17,2.68-6.15,3.24-2.39,.68-4.98,.67-7.48,.96-2.54,5.76-2.59,5.85-6.74,7.87,.97,6.29,4.27,12.26,2.71,18.89-.11,.48-1.08,.76-1.66,1.14-.8-2.01-1.57-3.95-2.28-5.74q-17.02-.94-22.09-6.4c1.12-3.96,1.95-8.19,3.52-12.12,2.26-5.68,.46-11.55-3.35-14.07-4.21-2.78-7.12-8.46-13.47-8.01-1.99,.14-4.06-.89-6.19-1.41-1.04-5.92-2.01-11.39-3.07-17.4-5.39-2.12-9-5.94-10.21-11.95-.37-1.86-1.71-4.03-5.11-3.8-.27,2.44-.45,4.99-.87,7.49-.47,2.83-.02,6.16-3.45,7.65-2.65-1.45-5.06-3.38-7.8-4.12-3.55-.96-6.59-2.46-8.3-5.6-1.35-2.46-1.89-5.37-2.73-7.92-6.14,.07-8.2,.45-8.79,1.98-2.24,5.77-5.98,11.27-2.86,17.53q-10.77,7.56-7.58,18.37c-3.09-.95-4.5-5.8-8.82-3.76-1.25,2.69-2.89,5.26-3.66,8.08-1.07,3.95-6.3,.35-7.2,5.02,.35,1,1,2.56,1.47,4.18,.97,3.33-.47,5.97-2.85,8.03-.77,.67-2.58,1.03-3.36,.57-.87-.51-1.6-2.14-1.52-3.22,.12-1.62,1.04-3.16,1.55-4.76,.51-1.58,1.73-3.52,1.24-4.74-2.5-6.28-2.24-12.5-1.03-18.99,.69-3.71-1.02-6.68-5.26-7.59-1.53-.33-2.91-1.29-6.04-2.74,7.19-7.58-.29-13.77-.72-20.83-.08-1.3-1.78-3-3.15-3.62-2.14-.98-3.28-2.29-4.22-4.42-1.88-4.26-4.06-8.42-6.49-12.39-.74-1.21-2.72-2.26-4.16-2.31-2.34-.08-4.21,1.6-4.16,4.03,.14,7.57-3.19,15.13,.14,21.64-2.26,3.17-3.91,5.48-5.55,7.8,3.03,5.03-1.52,10.57,1.6,16.03,3.26,5.7,1.64,11.61-3.95,16.64-2.29-1.73-4.68-3.38-6.9-5.25-2.14-1.8-1.25-5.66-5.22-6.68-2.38-.61-4.19-3.45-6.89-5.85-2.93,8.16-.81,16.62-5.21,23.55-.54,.85,.05,2.53,.34,3.78,1.06,4.56,2.22,9.09,3.31,13.64,.54,2.21,.56,4.27-2.28,5.51-4.95-.35-7.27-7.12-14.09-6.13,2.37,3.94,4.48,7.44,6.78,11.25-.4,2.22-.86,4.71-1.34,7.35-3.5,1-6.59,1.88-9.9,2.82,2.21,3.46,4.01,6.32,5.84,9.16,1.95,3.02,3.92,6.02,6.43,9.89-3.36,.32-5.48,.87-7.5,.6-1.57-.21-3.32-1.11-4.46-2.24-6.28-6.22-14.86-8.39-21.81-13.38-2.69,1.29-4.97,2.39-7.25,3.48-4.1-4.89-7.46-10.1-7.99-16.74-.63-7.89-5.4-14.18-8.18-23.47-1.63,3.25-2.96,4.64-2.87,5.93,.35,4.72,.63,9.56,1.96,14.06,1.95,6.57-.45,11.49-4.46,16.55-2.2-1.45-4.25-2.81-6.58-4.34-.02,3.61-.07,6.8-.04,9.99,.03,3.7,.12,7.4,.19,11.56-3.74,1.53-7.62,3.11-12.17,4.97-1.51-3.98-2.82-7.42-4.23-11.11-1.73,2.67-3.29,5.07-5.24,8.09-5.01-4.08-11.24,.22-16.43-3.49,.65-2.41,1.9-4.57,1.54-6.42-.42-2.17-2.24-4.06-3.43-6.03,.89-1.97,2.05-3.84,2.58-5.87,.76-2.9,1.52-5.94,1.43-8.89-.07-2.27,.13-5.36-3.2-6.2-.45,.1-.94,.08-1.25,.3-1.65,1.18-3.02,3.67-5.43,1.79-1.24-.97-2.65-2.69-2.67-4.08-.06-4.61,1.66-9.34-1.43-13.72-4.27-.83-5.05,1.77-5.37,5.18-.23,2.43-1.88,4.37-4.29,3.5-1.74-.63-3.72-2.61-4.14-4.34-.57-2.35,.07-5.06,.5-7.56,1.1-6.45,1.74-12.81-2.16-19.13-7.1-1.33-10.67-6.09-11.64-13.3-.33-2.47-1.42-4.83-2.14-7.16-4.56-.66-8.59-1.24-12.93-1.87q7.9-8.15,3.53-17.54c-2.49-.03-4.99-.07-7.64-.1-1.05-3.82-1.9-7.14-2.88-10.42-.47-1.57-.98-3.34-3.49-2.59,.65,7.01,3.16,14.11,.06,20.81-3.11,1.59-6.65-1.92-9.14,2.51,1.08,1.38,2.62,2.85,3.56,4.63,1.84,3.51,3.06,8.05,.02,10.67-4.41,3.79-5.18,8.66-6.66,13.69,.58,1.01,1.27,2.08,1.85,3.22,.59,1.14,1.25,2.28,1.57,3.5,1.04,4.02-1.24,6.17-5.62,5.41-1.15-.2-2.29-.45-3.47-.69-1.19,4.04-1.97,7.79-3.4,11.25-1.26,3.03-3.72,3.15-8.73,.95,1.12-6.95,2.25-14,3.38-21.02-2.2-1.01-4.12-1.89-6.04-2.77l.24,.15c-3.73-.94-5.82-3.32-6.48-7.11-.51-2.94-1.34-5.82-1.77-8.77-.82-5.59-3.91-9.26-8.81-11.32-2.76-.21-3.86,5.9-7.64,.98-1.09,5.91-2.94,11.34-2.83,16.74,.09,4.8-2.2,8.2-3.91,12.04-1.32,2.96-3.86,4.72-7.04,4.99-4,.33-4.43-3.25-5.83-5.79-.26-.47-1.44-.42-2.2-.61-2.21,5.55-4.2,10.84-2.54,17.29,.85,3.3-1.17,7.5-2.42,11.11-1.04,3-5.06,3.64-7.6,1.41-3.1-2.72-6.01-5.65-10.65-10.06,.91,5.18,.53,8.66,2.08,10.61,3.4,4.28,7.77,7.79,11.85,11.73-1.79,3.83-3.54,7.57-5.49,11.74-2.6-.95-4.94-1.96-7.36-2.63-2.37-.65-4.85-.94-7.38-1.41q5.9-13.21,.15-21.86c-2.14,1-4.28,2-7.13,3.33,.05-5.58,.15-10.22,.05-14.85-.01-.53-1.18-1.04-1.78-1.54-4.17,.17-4.5,6.56-9.43,5.8-5.22-4.1-2.88-10.19-3.88-15.39-2.73-2.64-5.42-5.23-7.86-7.58-5.79,2.75-2.78,8.17-5.03,11.51-2.53-.58-4.9-1.13-7.13-1.64-2.34,4.45,3.34,5.27,2.74,8.27-.92,4.57,5.07,4.47,5.24,8.88-.94,2.13-2.13,4.81-3.57,8.05-4.1-1.41-7.84-2.09-9.88-6.61,.73-2.54,1.74-5.37,2.26-8.29,.14-.79-1.09-2.02-1.97-2.69-.32-.24-1.69,.38-2.15,.95-1.74,2.13-.82,6.35-6.02,6.48-1.17-2.57-2.48-5.46-3.83-8.44-2.05,.71-3.61,1.29-5.21,1.76-.22,.06-.6-.44-1.41-1.07,.18-1.67-.17-4.04,.74-5.75,4.07-7.66,5.62-14.97-1.22-21.97-.52-.53-.72-1.62-.65-2.42,.54-6.01-2.85-8.67-8.15-9.62-4.52-.81-6.5-3.6-7.07-7.97-.31-2.41-.25-5.35-3.66-5.99-3.82,7.25-7.67,19.23-5.64,23.74,3.5,7.81,.52,15.15,.24,22.7-.12,3.18-2.02,4.52-4.74,5.23-2.93,.36-3.77-4.62-8.36-3.18,2.99,3.91,1.55,9.01,6.62,11.18,2.11,.9,2.92,3.12,.92,5.31-1.74,1.91-1.18,3.82-.17,5.9,1.06,2.19,1.8,4.53,2.73,6.95-3.83,2.59-7.9,4.11-9.88,7.04-1.87,2.76-1.53,7.01-2.23,11.02-3.41,.09-6.25,.16-9.08,.23,.16,3.16,.5,6.15,.35,9.11-.05,.99-1.47,2.8-2.04,2.71-1.51-.22-3.84-1-4.14-2.05-.79-2.75-.32-5.86-1.03-8.65-.66-2.57,.39-6.52-4.92-7-2.15,5.36-5.53,10-12.99,10.17-.54-1.77-1.13-3.72-1.75-5.75,2.41-1.73,4.45-3.19,6.33-4.54,.93-8.57-5.94-13.07-9.62-18.98-1.27-2.03-5.95-1.93-7.87-2.47-1.5-3.13-2.13-5.68-3.7-7.35-1.56-1.66-3.85-1.07-5.85,.36-1.25,.89-2.89,1.51-4.42,1.69-5.63,.69-9.82,4.17-9.05,9.19,.88,5.73,1.51,10.99-2.68,15.66,.73,4.12,1.46,8.25,2.19,12.41-2.3,2.62-4.53,5.16-6.63,7.55-3.39-.3-6.37-.56-9.51-.84-1.3-1.51-3.61-2.98-3.86-4.75-.52-3.65,.06-7.46,.18-10.87-2.38-1.58-4.13-2.74-5.19-3.44-4.24-9.6,.96-19.19-1.98-29.25-3.35,1.31-6.51,1.79-8.63,3.53-4.53,3.73-8.56,8.08-12.78,12.2,.15-1.98,.23-3.98,.51-5.95,.12-.87,2.39-17.17,2.71-18.27,1.55-5.38-1.72-7.9-6.09-10.4-3.03,2.15-6.49,4.12-9.43-.26,.05-6.52,4.17-12.17,3.79-17.91-4.58-3.64-5.04,3.08-8.23,1.85-6.95-5.61-1.17-11.42,.54-17.28-6.4-2.23-9.45-6.6-10.86-12.3-.4-1.63-.77-3.31-1.47-4.82-.25-.54-1.6-1.06-2.17-.84-1.1,.42-2.88,1.4-2.85,2.07,.18,3.82,.82,7.62,1.24,10.94-1.77,3.81-3.34,7.18-5.13,11.04,3.35,2.17,6.08,3.94,8.84,5.72-1.45,3.98-2.41,7.82-6.95,8.9-4.59,1.09-8.55-.3-11.97-3.22-3.26-2.77-6.32-5.78-9.38-8.78-2.38-2.34-2.44-6.63-6.4-7.68-3.19-.85-6.38-1.71-9.94-2.67-.03-2.33-.18-4.45-.07-6.55,.18-3.28-1.71-4.72-4.53-5.12-2.81-.4-5.53,2.57-5.2,5.97,.23,2.4,1.26,4.73,1.94,7.14-4.06,2.78-7.54,5.16-11.17,7.64-3.4-4.92-4.63-9.79-4.73-15.03-.09-4.76-.95-9.22-5.02-13.23-3.17,4.14-3.25,8.01-2.11,12.44,1.13,4.4,2.63,9.05-.31,13.87-3.66-.53-6.97-1.01-10.28-1.49-1.71-1.21-3.98-3.56-4.89-3.12-4.36,2.11-10.35,1.61-12.52,7.58-1.76,4.83-6.06,6.86-12.04,9.4-1.61-5.02,1.74-10.29-1.78-14.7,7.38-3.22,10.88-8.93,11.36-17.29-6.4-1.87-12.34-4.03-18.46-5.24-4.26-.85-8.21,1.35-11.69,3.15-.66,2.58-1.19,4.63-1.8,7.02-2.77,.3-5.56,.6-9.73,1.06,5.25,5.97,9.64,10.97,14.31,16.27,.69,3.88,1.47,8.34,2.32,13.17-5.37,.86-8.56-2.85-12.56-3.82-1.42-.34-3.76-.14-4.49,.77-.84,1.05-.86,3.34-.34,4.76,.71,1.9,2.3,3.46,3.48,5.19,2.02,2.96,4.01,5.94,6.01,8.91-3.15-2.12-6.62-2.85-10.36-2.39q-3.52,13.09,.44,23.16c1.1,2.81,2.23,5.62,3.12,8.5,.63,2.03,1.3,4.23,1.12,6.27-.12,1.42-1.81,3.93-2.56,3.85-4.81-.54-6.7,2.03-7.55,6.1-2.86-.86-5.65-1.7-9.86-2.97,1.01,3.6,1.08,6.35,2.43,8.11,2.19,2.85,3.68,5.77,4.17,9.28,.66,4.72,1.76,9.24,4.27,13.45,1.6,2.69,1.44,5.75-1.3,8.07-6.75-2.17-9.43-7.03-9.41-13.73,.02-4.52-.58-8.69-5.54-10.67-.72-.29-1.59-1.13-1.7-1.82-.6-3.89-2.03-5.81-6.65-5.88-3.53-.05-6.42-3.35-5.56-7.36,1.33-6.19-2.76-10.61-4.65-15.6-1.77-4.65-6.62-6.61-11.72-6.65-1.15,0-2.48,.67-3.41,1.44-1.56,1.29-2.87,2.9-4.81,4.94-5.56-3.18-10.65-6.09-15.09-8.64-2.3-5.97-2.07-11.09-1.45-16.29,.14-1.16-.5-2.42-.76-3.51-2.89-1.44-5.55-2.76-7.71-3.84-1.71-4.62-2.95-8.76-4.77-12.63-1.74-3.69-2.09-8.32-5.84-10.94-2.76,2.15-1.4,4.31-1.16,6.3,.62,5.13,1.43,10.24,1.92,15.38,.1,1.09-.8,2.28-1.29,3.53-3.83,.19-7.42,.36-11.14,.54,.26-3.46,.44-6.02,.66-8.58,.34-4.03-1.82-6.46-5.14-8.18l.21,.16c-2.62-.13-5.37-.16-6.13-3.44-.86-3.74-1.02-7.73-2.43-11.24-1.19-2.95-5.19-4.32-4.88-8.55,.13-1.73-1.37-3.57-2.32-5.84-3.08,1.5-6.31,2.03-7.42,3.84-2.14,3.51-5.3,6.84-4.85,11.58,.45,4.71-1.19,8.39-5.57,10.69-.58,.31-.73,1.44-1.13,2.29,1.1,2.66,2.24,5.4,3.39,8.18-2.22,2.9-4.87,5.3-6.14,8.28-1.61,3.76-.21,7.55,2.23,10.88,.42,.58,.34,1.72,.16,2.53-1.32,6.13,1.66,10.68,5.11,15.27,1.09,1.45,.98,3.8,1.5,6.05-7.53,.81-13.52-3.77-19.93-3.26-2.71,7.26,4.44,10.33,5.6,15.83-3.31,1.59-5.35-1.2-7.53-1.12-2.28,.09-4.51,1.8-7.49,3.14,.01-6.2,.07-11.33-.04-16.46-.01-.51-1.06-1-1.66-1.52-1.62,1.06-3.23,2.13-4.58,3.01-5.3-1.89,.88-8.04-4.65-9.97-1.94,1.09-4.1,2.3-6.61,3.71-2.51-3.4-4.98-6.73-7.27-9.83,1.01-5.27,2.98-10.06,1.47-14.63-2.85-1.22-5.75,1.51-6.96-2.86-1.24-4.47-7.19-8.53-13.23-10.63-.93,2.27-1.27,5.21-2.92,6.74-4.3,3.96-2.67,7.57-.48,11.54,.22,.4-.57,1.35-.89,2.04q-6.35-1.51-11.07,.9c3.8,6.04,7.56,12.01,11.67,18.55-9.83,3.53-17.48,9.12-19.17,19.83-3.94,.56-6.43-.95-7.68-4.04-3.32-8.21-9.83-12.53-17.38-15.35-4.97,1.19-9.46,2.26-13.69,3.27-5.82-7.3,.89-13.77-.21-21.1-4.02-2.3-6.87-5.71-4.15-11.27,.29-.59-.99-2.82-1.65-2.87-5.04-.4-3.83-4.93-5.4-7.77-2.76-.21-5.59-.42-8.31-.62-3.25-7.61,4.49-14.93-1.29-22.27-2.06,.75-4.63,2.7-6.52,2.18-8.34-2.3-13.76,1.92-18.28,7.5q-10.84-3.69-20.68-1.82c-1-3.6-2.02-7.23-3.03-10.87-2.37,.14-4.73,.28-7.03,.42-2.52-15.23-4.55-12.9-14.99-15.87-1.05,6.18-1.56,12.55-5.83,17.69-.77,.92,.06,3.17,.21,4.85-2.38,1.28-4.76,2.56-7.14,3.84-3.01-5.85-5.53-11.1-3.05-17.36,.44-1.13-.77-2.91-1.04-3.81-4-1.69-6.79,3.17-10.82,.04,2.22-3.03,4.2-5.72,6.16-8.44,3.31-4.6,1.95-8.54-1.38-12.73-1.93,1.13-3.35,1.96-4.75,2.79-.61-2.03-1.09-5.39-3.11-4.59C20.92,5.83,21.43-.4,17.26,.02c-1.56,4-3.16,8.4-4.98,12.7-1.68,3.97-4.66,6-9.54,5.39-.83-1.32-1.69-2.69-2.74-4.38V561.54Zm3538.19-192.83c.82,4.67,1.3,7.38,1.98,11.24-2.74-1.14-4.55-1.89-6.99-2.9,1.62-2.69,2.84-4.72,5.01-8.33Zm-5.33,34.61c.29,.02,.55,.46,.83,.71-.52,.31-1.03,.62-1.55,.93-.09-.37-.18-.74-.28-1.11,.33-.19,.68-.56,.99-.53Zm-82.65,13.86c-.59-.17-1.19-.31-1.74-.56-.06-.03,.07-.91,.28-1,.6-.25,1.28-.3,1.93-.43-.16,.66-.31,1.32-.47,1.99Zm-33.48-45.67c.15-1.07,2.68-2.87,3.48-2.58,3.17,1.15,6.1,2.99,9.11,4.59,6.74,3.57,12.47,8.95,20.45,10.35,3.98,.69,6.17,4.34,8.3,8.93-11.15-1.6-22.69,.14-26.18-12.56-4.21-.41-7.21-.49-10.12-1.03-3.48-.64-5.61-3.71-5.05-7.7Zm-7.91,6.21c.26,.35-.97,1.8-1.96,3.52-1.44-1.52-2.69-2.44-3.26-3.68-.21-.46,1.56-2.49,1.81-2.38,1.29,.56,2.6,1.43,3.42,2.54Zm-5.37-19.78c.55,.31,1.11,.6,1.62,.98,.05,.03-.29,.59-.46,.91-.55-.31-1.09-.62-1.64-.93,.16-.32,.32-.64,.48-.96Zm-9.73,24.46c.86-.2,1.91,.39,2.87,.64-.87,.69-1.74,1.38-2.45,1.95-1.08-.31-1.82-.52-2.57-.73,.71-.65,1.33-1.67,2.14-1.86Zm-60.09,41.36l.23,.79-.78-.26,.55-.53Zm-10.93,15.99c1.39,.67,3.16,1.09,4.3,2.17,2.95,2.79,5.91,4.55,10.29,3.64,2.03-.42,4.16,.82,4.08,4.34-1.57,.13-3.22,.6-4.74,.32-3.48-.65-6.53-.66-9.67,1.61-3.1,2.25-6.45,1.39-9.59-1.2-.23-4.35,.53-8.27,5.33-10.87Zm-43.13-29.25c.36,.12,.88,.14,1.03,.38,.13,.22-.14,.69-.23,1.04-.36-.14-.72-.28-1.08-.42,.09-.33,.19-.67,.28-1Zm-1.15-19.26c.22,.3,.6,.61,.6,.9,0,.26-.47,.5-.73,.74-.31-.47-.62-.93-.92-1.4,.35-.08,.7-.16,1.05-.25Zm-94.19-33.94c.33,.17,.67,.33,1,.5-.22,.58-.43,1.16-.72,1.7-.02,.04-.65-.24-.99-.37,.24-.61,.47-1.22,.71-1.83Zm-76.03-17.49c.19,.29,.39,.59,.58,.88-.31,.18-.65,.54-.91,.49-.24-.05-.38-.55-.56-.85,.29-.18,.59-.35,.88-.52Zm-31.44-41.81c.31,.12,.63,.23,.94,.35-.09,.28-.16,.77-.28,.79-.3,.04-.62-.15-.94-.25,.09-.3,.19-.59,.28-.89Zm-13.92,40.64c1.6-.04,3.23,1.61,4.29,2.2,.34,3.98-1.85,6.67-4.23,5.93-1.23-.38-2.56-2.08-2.85-3.4-.45-2.09,.21-4.67,2.79-4.72Zm-7.12-24.48c.1-.08,1.42,.74,1.41,1.13-.02,1.15-.43,2.28-.71,3.53-1.88-1.47-2.39-1.86-2.9-2.26,.71-.82,1.38-1.69,2.19-2.4Zm-10.06-11.7c.22,.65,.72,1.37,.57,1.93-.16,.62-.75,1.13-1.22,1.67-.18-.66-.43-1.33-.37-1.97,.06-.57,.66-1.08,1.01-1.62Zm-1.18,4.12c-1.11,1.06-2.22,2.11-3.34,3.16-.29-.54-.58-1.08-.88-1.62,1.4-.51,2.81-1.03,4.21-1.54Zm-68.73,36.12c.97,.15,1.91,.44,3.02,.73-.59,.95-.94,1.5-1.29,2.05-.8-.64-1.61-1.27-2.37-1.95-.03-.02,.46-.85,.64-.83Zm-15.96,1.38c.66,.84,1.32,1.68,1.94,2.47-.67,.78-1.09,1.28-1.52,1.78-.64-.91-1.41-1.76-1.82-2.76-.11-.26,.9-.98,1.4-1.49Zm-60.75,13.22c.96-.03,1.95-.36,2.48-.01,2.82,1.85,5.36,4.21,8.34,5.74,2.37,1.21,5.22,1.48,8.53,2.33-7.53,4.74-14.16,3.8-22.04-2.76,.87-1.71,1.8-3.54,2.7-5.29Zm-10.85,2.78c.63,2.78,1.26,5.58,1.97,8.71,3,.9,6.39,1.46,9.32,2.94,2.61,1.32,5.05,3.56,4.8,7-.11,1.56-.67,3.41-1.69,4.49-1.37,1.45-3.36,1.04-4.23-.81-2.52-5.35-7.88-1.52-11.74-3.78-3.76-6.46-2.72-12.62,1.58-18.56Zm-49.78-51.24c.36-1.03,1.16-1.91,1.86-2.98,.63,.91,1.55,1.74,1.39,2.1-.42,.96-1.31,1.71-2.01,2.54-.45-.56-1.38-1.3-1.25-1.66Zm-10.56-23.73c.12,.27,.41,.61,.33,.77-.12,.24-.5,.35-.78,.51-.13-.27-.42-.62-.34-.8,.11-.23,.51-.33,.78-.49Zm-27.86,6.91c.4,.53,.44,1.68,.15,2.3-.3,.61-1.24,1.3-1.89,1.29-3.47-.08-4.96-2.59-6.22-5.31,2.88-.47,5.82-1.09,7.96,1.73Zm-19.59,110.46c-.32,.19-.65,.39-.97,.58-.18-.32-.37-.64-.55-.96,.51,.13,1.01,.25,1.52,.38Zm-8.67-21.76q5.06,3.58,2.11,9.16-6.56-2.82-2.11-9.16Zm-40.23-19.1c.69-.83,2.05-1.09,4.39-2.19-.77,2.5-.91,4.15-1.76,5.22-.45,.56-2.15,.12-3.29,.13,.19-1.08,.05-2.43,.66-3.16Zm.95,21.34c-.19,.67-2.05,.88-3.12,1.29-.7-3.99-1.34-7.58-2.14-12.12,6.04,2.56,6.48,6.45,5.26,10.83Zm-52.34-116.76c.41-.59,1.17-.95,1.83-1.37,.07,.76,.25,1.58-.02,2.2-.24,.56-1.2,.8-1.85,1.19-.01-.69-.29-1.56,.03-2.02Zm-38.91,72.05c.32,.44,.64,.88,.96,1.32-.36,.06-.73,.13-1.1,.19-.2-.23-.64-.55-.59-.74,.08-.3,.48-.52,.74-.78Zm-11.84,46.23c.27,.03,.5,.41,.74,.63-.46,.25-.91,.5-1.37,.74-.09-.32-.18-.64-.26-.96,.3-.15,.61-.45,.89-.42Zm-160.93-101.53c-2.5-2.45-4.18-4.51-4.73-8.13,3.74,2.16,5,4.42,4.73,8.13Zm-8,3.96c1.39,.03,2.77,1.11,5.14,2.15-1.97,2.47-3.21,4.39-4.88,5.81-.31,.27-3.02-1.2-3.4-2.29-.88-2.57,.97-5.7,3.14-5.66Zm-58.19-16.25c3.95,3.28,6.46,5.36,9.77,8.11-3.52,2.66-6.12,4.62-8.75,6.6,.16,2.87,.21,5.77,.51,8.64,.24,2.33,.78,4.64,1.22,7.13-5.77,.54-4.89-3.34-5.63-6.58-.74-3.21-2.63-6.15-4.51-10.31,1.97-3.62,4.34-7.99,7.39-13.6Zm-56.42,41.56c.14,.35,.46,.76,.36,1.04-.11,.32-.57,.51-.88,.76-.3-.2-.61-.4-.91-.6,.48-.4,.95-.8,1.43-1.2Zm-30.17-56.52c1.08-.82,2.25-1.54,3.39-2.3,.19,.34,.6,.9,.52,.99-.97,1.01-1.99,1.97-3.07,2.86-.13,.11-.66-.28-1.01-.44,.05-.38-.05-.95,.16-1.12Zm-62.5,4.48c-.18-.2-.42-.38-.53-.62-.05-.11-.08-.23-.11-.36,.21,.33,.43,.65,.64,.98Zm-64.04-26.17c.13-.56,1.01-.94,1.57-1.39,.34,.64,.69,1.28,1.03,1.92-.52,.4-1.03,.79-1.55,1.18-.38-.58-1.16-1.25-1.05-1.71Zm-4.53,20.51c1.87,.23,3.66,1.17,5.48,1.82-.26,.91-.51,1.82-.77,2.73-1.99-.23-4.01-.33-5.95-.77-.58-.13-1.45-1.62-1.34-1.74,.74-.84,1.79-2.14,2.59-2.04Zm-71.61-28.12c.3,.17,.59,.34,.89,.5-.09,.33-.09,.79-.31,.95-.21,.16-.65,0-.99,0,.14-.48,.27-.96,.41-1.45Zm-6.08,16.69c.56,.2,.91,.99,1.35,1.52-.71,.05-1.58,.38-2.1,.08-.58-.32-.95-1.03-1.37-1.65,.73-.05,1.49-.19,2.13,.04Zm-19.51,53.57c2.84,.58,5.69,1.16,9.67,1.97-1.59,2.34-2.64,3.89-4.09,6.02-2.74-2.56-4.82-4.5-6.91-6.45,.44-.51,.88-1.03,1.32-1.54Zm-78.37-97.84l-.22,.84-.47-.73,.69-.11Zm-31.42,3.52c1.78-.98,3.55-1.99,5.16-2.89,3.07,2.43,4.35,4.91,1.63,7.76-3.16,3.3-6.4,6.64-12.39,7.4,.05-3.24,.1-6,.15-9.32,1.88-1.02,3.67-1.97,5.45-2.95Zm-2.44-20.91c.56,.41,1.46,.74,1.76,1.36,1.65,3.34-1.62,8.03-5.34,7.65-.6-.06-1.52-1.01-1.6-1.63-.42-3.42,2.17-7.04,5.18-7.38Zm-16.12,43.21c.46-5.11,4.03-5.52,6.83-6.73-1.16,2.98-2.66,5.65-6.83,6.73Zm.51-61.55l.51,.52-.75,.25,.24-.77Zm-1.43,18.95c1.31-1.2,3.14-1.77,4.23,.12,.49,.85,.24,2.57-.33,3.49-1.59,2.54-2.73,2.64-7.97,1.1,1.5-1.76,2.64-3.39,4.08-4.71Zm-27.47,67.41c2.81-.38,4.8,1.27,5.3,5.12-.75,.83-1.73,2.78-3.25,3.38-2.43,.98-4.46-.92-4.95-4.01-.37-2.32,.3-4.14,2.9-4.49Zm-12.97-45.21c.25,.17,.34,.57,.5,.88-.28,.13-.69,.43-.82,.34-.25-.17-.34-.57-.5-.88,.28-.13,.69-.43,.82-.34Zm-1.68,38.74c1.06,.99,2.11,1.99,3.15,2.97-.84,.95-1.28,1.44-1.72,1.94-.69-.9-1.58-1.73-1.99-2.75-.23-.55,.35-1.43,.56-2.16Zm-57.36,36.43c.08,.47,.17,.94,.25,1.41-.33,0-.73,.12-.98-.03-.17-.1-.13-.56-.18-.85,.31-.18,.61-.36,.91-.53Zm-20.96-20.91c1.05-.83,3.31,1.01,3.44,2.93,.05,.7-.65,1.45-1,2.18-1.27-.66-2.55-1.32-3.72-1.93,.65-1.69,.73-2.74,1.29-3.18Zm-24.13-14.33v1.03s-.85-.48-.85-.48l.85-.54Zm-78.95-48.26c-.52-.48-.95-1.06-1.41-1.61,.31-.18,.81-.57,.9-.5,.52,.47,.95,1.04,1.4,1.58-.31,.19-.82,.6-.89,.53Zm-27.05,39.89c.64,.15,1.6,1.06,1.55,1.52-.12,1.04-.78,2.02-1.24,3.04-1.06-.53-2.02-.7-2.39-1.26-.87-1.3,.62-3.66,2.08-3.31Zm-10.34,25.98c.11-.17,1.91,.42,1.89,.53-.17,1.38-.54,2.74-.85,4.09-1.62-.33-2.36-.48-3.11-.64,.66-1.35,1.25-2.74,2.06-3.99Zm-33.08-78.08c.18-.16,.64,.01,1.04,.11-1.05,6.8-4.3,12.1-10.66,15.09-2.01,.94-4.17,1.02-5.3-2.1,4.91-4.32,9.89-8.74,14.92-13.1Zm-56.27-1.73c2.01,1.47,3.49,2.55,5.48,4.01-4.18,1.37-5.67,.29-5.48-4.01Zm-4.76-24.47c.34,.12,.87,.15,.98,.38,.12,.27-.12,.71-.2,1.07-.36,.1-.72,.21-1.09,.31,.1-.59,.21-1.18,.31-1.77Zm-54.95,53.95c.88,0,2.48,1.24,2.48,1.92,0,1.37-.87,2.74-1.59,4.65-1.66-.96-3.01-1.27-3.39-2.06-.96-1.98,.45-4.52,2.51-4.51Zm-75.74-104.38c-.44,3.09-1.87,5.13-6.41,4.99,2.59-2.02,4.52-3.52,6.41-4.99Zm-26.3,33.82c-.57-.31-.82-1.21-1.2-1.86,.41-.55,.82-1.1,1.23-1.65,.59,.85,1.17,1.69,1.76,2.54-.61,.36-1.46,1.16-1.79,.98Zm10.87,21.09l.38-.89,.46,.87-.83,.03Zm1.41-27.65c-.33-.21-.63-.4-.93-.58,.4-.29,.8-.59,1.19-.88,.18,.32,.51,.65,.5,.96,0,.19-.54,.37-.76,.51Zm-12.5-27.99c4.4,4.88,10.3,8.61,12.94,16.38-3.06-.1-5.53-.79-7.5-.08-2.17,.78-3.89,2.84-5.88,4.4-5.17-3.87-3.66-9.65-6.05-14.37,2.34-2.28,4.42-4.3,6.49-6.32Zm-53.14,70.08c0,.35,0,.7-.01,1.07-.32,.06-.73,.26-.95,.13-.28-.16-.4-.59-.58-.9,.51-.1,1.03-.2,1.54-.3Zm-81.43-57.88c.06,.35,.12,.7,.18,1.04-.29,.23-.57,.62-.87,.64-.22,.01-.46-.47-.7-.73,.46-.32,.92-.64,1.39-.95Zm-44.46-34.35c2.72,3.14,1.22,5.95-.17,9.1q-4.44-3.61,.17-9.1Zm-4.79,19.22l-.83,.49-.06-.82,.89,.33Zm-60.09-13.2l-.9,.51-.07-.89,.96,.37Zm-19.14,39.69c.33-.17,.76-.13,1.16-.17,.02,.32,.15,.86,.04,.92-.33,.17-.76,.15-1.15,.2-.02-.33-.16-.9-.05-.95Zm-2.63,9.63c.29,.1,.7,.13,.84,.33,.11,.17-.11,.55-.18,.84-.3-.1-.59-.2-.89-.3,.08-.29,.15-.58,.23-.87Zm-51.16-48.97l.41,.77h-.75s.33-.77,.33-.77Zm-2.16,7.28l.11,.84-.91-.29,.8-.55Zm-29.45,51.65c2.69,3.61,4.66,6.26,6.72,9.04-1.64,2.14-3.1,4.04-4.99,6.51-3.87-.9-8.01-1.78-9.08-6.75-1.1-5.09,3.49-5.96,7.35-8.79Zm-34.38-16.92c.07-.21,.2-.4,.34-.59-.08,.49-.16,.98-.24,1.47-.04-.3-.19-.63-.1-.88Zm-49.68,28.35c.36,.61,.77,1.2,1.04,1.85,.03,.08-.61,.45-.94,.69-.36-.62-.75-1.23-1.02-1.89-.03-.08,.59-.43,.92-.65Zm-35.24-21.65c.69-.06,1.62,.38,2.07,.91,.21,.25-.44,1.24-.9,2.39-.93-.68-1.75-1.27-2.58-1.87,.46-.51,.9-1.4,1.4-1.44Zm-83.15-62.98c.36,.08,.89,.06,1.04,.28,.19,.29,.07,.78,.09,1.18-.48-.1-.96-.2-1.44-.29,.1-.39,.21-.78,.31-1.17Zm-53.68,85.46c.34,.64,.69,1.28,1.03,1.92-.39,.64-.78,1.28-1.17,1.92-.77-.67-1.54-1.33-2.31-2,.82-.61,1.63-1.23,2.45-1.84Zm-9.86,11.95q2.67,5.6-4.17,8.79c1.29-2.72,2.58-5.45,4.17-8.79Zm-84.95-109.68c.64,.26,1.27,.53,1.9,.79-.45,.58-.84,1.22-1.38,1.69-.15,.14-1.06-.25-1.05-.3,.12-.74,.33-1.46,.52-2.19Zm-18.31,84.67c.17,.31,.34,.62,.52,.93-.31,.17-.65,.5-.92,.45-.22-.04-.53-.62-.46-.84,.09-.25,.56-.37,.86-.55Zm-13.76,22.69c.68-.13,1.38-.11,2.07-.14-.03,.4-.06,.8-.09,1.2-.69,.03-1.37,.05-2.06,.08,.02-.4-.02-1.12,.08-1.13Zm-11.34,16.22l.27,.71h-.81s.54-.71,.54-.71Zm-41.7-81.78c.51,.01,1,.88,1.9,1.75-1.39,.17-2.45,.48-3.45,.34-.55-.08-1-.91-1.49-1.4,1.02-.26,2.04-.71,3.04-.69Zm-41.06,45.08c.8-.33,2.09,.56,3.17,.9-1.18,1.52-2.36,3.04-3.86,4.98-1.16-1.38-2.61-2.71-2.43-2.97,.77-1.18,1.87-2.39,3.13-2.91Zm-5.25-32.5c.08-.1,.49,.07,.75,.12-.06,.29-.13,.58-.19,.87-.26-.05-.51-.1-.77-.15,.06-.29,.05-.63,.21-.84Zm-3.92,9.22l-.35,1.01-.69-.7,1.03-.31Zm-12.16-18.82c-.91,.71-1.81,1.42-2.72,2.14-.23-.51-.46-1.03-.69-1.54,1.13-.2,2.27-.4,3.41-.6Zm-84.11-54.29c.09-.25,1.36-.1,2.09-.13,0,1.48-.02,2.95-.03,4.76-1.39-.6-2.52-.84-2.54-1.14-.07-1.16,.1-2.39,.48-3.49Zm-41.32,58.96c-.51-.29-1.02-.57-1.53-.86,.15-.31,.3-.62,.45-.92,.51,.29,1.04,.55,1.51,.9,.05,.04-.27,.58-.43,.88Zm11.36-69.14c2.12,3.08,4.53,6.01,6.24,9.31,4.56,8.8,4.11,10.54-2.66,18.12-1.48,1.65-2.93,3.91-5.07,2.65-1.42-.84-1.86-3.41-2.61-5.26-.46-1.14-.69-2.39-1.27-4.49-2.8,1.15-5.28,2.16-8.02,3.28,1.83-9.53,7.11-16.85,13.4-23.61Zm-43.75,31.88c-2.64,3.63-5.27,1.61-7.71,1.36,2.36-.42,4.79-.84,7.71-1.36Zm-4.05,15.84c-.67,.12-1.29,.3-1.91,.29-.16,0-.47-.66-.4-.94,.07-.28,.69-.7,.81-.63,.53,.32,.97,.8,1.5,1.28Zm-1.87,20.17c3.4,1.35,6.93,2.58,10.27,4.21,.69,.34,.92,2.15,.87,3.26-.03,.56-1.29,1.65-1.75,1.53-3.61-.93-7.2-2-10.71-3.24-1.2-.42-.94-1.5,1.32-5.76Zm-176.96,17.61c.18-.6,1.18-1.41,1.72-1.35,.65,.08,1.19,.98,2,1.73-.56,1.02-.99,2.24-1.8,3.11-.38,.4-1.49,.12-2.27,.15,.09-1.22,0-2.5,.35-3.64Zm-87.47,2.59c.28,.72,.57,1.44,.84,2.12-.24,.36-.46,.7-.69,1.03-.5-.56-1.25-1.06-1.4-1.7-.08-.37,.8-.97,1.25-1.46Zm-11.45,14.9c.33-.16,.74-.17,1.12-.24,.01,.33,.11,.82,.02,.86-.34,.14-.74,.14-1.12,.19-.01-.28-.12-.76-.02-.81Zm-.98-25.9c.18,.33,.36,.66,.54,.99-.57,.49-1.15,.98-1.72,1.47-.19-.34-.6-.89-.52-.98,.5-.55,1.12-1,1.7-1.48ZM94.04,53.1c.11-.17,.95-.15,1.11,.05,1.1,1.42,2.11,2.92,3.42,4.78-3.51,.64-4.52-1.1-5.3-2.91-.2-.46,.4-1.34,.78-1.92Zm-29.88,123.41c.73-.12,1.8-.35,2.17,.03,.86,.88,1.38,2.08,1.95,3-.19,.65-.25,1.35-.43,1.39-.71,.14-1.83,.39-2.14,.03-.81-.95-1.33-2.17-1.85-3.33-.13-.29,.13-1.08,.31-1.11Zm-6.63-123.64c.08,3.58,1.92,7.13,3.33,11.87-5.42-2.73-7.59-6.14-8.4-10.48-.6-3.24-.97-6.53-1.42-9.8,3.3,1.87,6.39,3.53,6.5,8.42ZM27.34,10.51c.37-.51,.81-.97,1.24-1.45-.05,.63-.07,1.27-.29,1.83-.14,.34-.83,.47-1.27,.7,.1-.36,.11-.79,.32-1.08ZM2.91,61.78c.4-2.7,1.05-5.05,4.28-5.37,.34-.03,.87,.27,1.05,.57,1.57,2.55,.95,5-.84,7.07-1.33,1.54-2.91,3.06-6.15,2.89,.71-2.15,1.42-3.62,1.65-5.16Zm-1.43-28.23c.07,.39,.14,.77,.21,1.16-.56-.21-1.13-.42-1.69-.63,.14-.35,.29-.7,.43-1.06,.35,.18,.7,.35,1.05,.53Z"/>
  </g>
</svg>