<?xml version="1.0" encoding="UTF-8"?>
<svg id="Layer_2" data-name="Layer 2" xmlns="http://www.w3.org/2000/svg" viewBox="0 0 3574.25 1773.95">
  <g id="Layer_1-2" data-name="Layer 1">
    <path d="M2758.15,1043.16c1.53,3.83,3.05,7.65,4.69,11.76h6.7c4.16,4.88,3.3,11.99,6.4,17.45,3.04,5.35-2.16,12.23,4.44,17.53,1.23-.31,3.38-.44,5.11-1.36,6.1-3.22,11.36-4.22,14.9,3.56,.39,.85,3.06,1.09,4.53,.83,.73-.13,1.56-2.05,1.59-3.17,.04-2.12,.03-4.49-.84-6.34-3.74-7.97-1.48-16.67-4.21-24.71,4.95-.69,9.06-1.27,14.23-1.99-2.56-3.92-4.57-6.99-7.12-10.89,2.39-.75,4.25-1.47,6.17-1.91,3.38-.78,5.83-3.51,6.01-6.14,.51-7.53,3.98-15.01,.93-22.67-.46-1.16-1.06-2.26-1.93-4.08,3.75-.56,5.62,2.13,8.04,3.25,.77,2.97,1.77,5.82,5.26,6.52,.63,.13,1.69-.39,2.08-.94,.4-.56,.56-1.7,.26-2.29-1.66-3.23-4.8-3.04-7.79-3.09q-.95-6.9,2.45-11.32c-.74-4.33-1.6-8.52-2.1-12.75-.24-2.02,3.21-3.79,4.84-2.51,2.29,1.8,4.33,3.91,7.5,6.84,.7-4.24,1.92-7.51,1.59-10.61-.49-4.68,1.57-7.29,5.07-9.44,3.29,1.98,6.61,3.68,9.6,5.85,3.26,2.38,5.86,7.06,2.1,11.08-2.67,2.85-5.27,5.76-4.61,10.68,6.91,3.38,11.4-2.41,17.77-6.45-.96,4.17-1.77,6.52-1.97,8.93-.14,1.63,.11,4.48,.97,4.82,8.36,3.33,4.99,9.51,4.11,15.16-.12,.78,.34,1.65,.72,3.3,2.36,.62,5.1,1.35,7.77,2.05,5.13,7.8,.96,15.59-.38,22.99,3.34,2.54,3.98-.54,5.54-1.54,.97-.62,2.7-1.36,3.33-.93,1.28,.87,2.96,2.58,2.84,3.79-.47,5.07-1.53,10.09-2.37,15.03,3.51,2.65,6.54,4.94,10.2,7.71,.84-.69,2.71-2.21,4.58-3.73,.77,.36,1.9,.51,2.21,1.09,.98,1.9,1.62,3.97,2.47,5.95,2.12,4.94,3.52,9.68-1.05,14.3-.85,.86-.16,3.26-.17,4.96-5.41,5.14-7.58,11.09-4.97,18.19,3.41,2.9,9.35,.06,10.9,5.76,.54,1.98,2.43,2.73,4.03,1.53,1.2-.89,2.06-2.62,2.45-4.13,.84-3.35-1.17-5.98-3.51-7.73-2.62-1.97-5.87-3.11-8.67-4.52-.16-3.34-.3-6.31-.44-9.28,1.72-1.21,3.89-2.09,5.08-3.69,3.59-4.8,7.4-6.14,13.4-3.93,5.81,2.14,10.1-2.08,9.21-8.28-.49-3.37-1.56-6.72-2.78-9.92-2.01-5.27-.45-9.13,4.55-12.53,2.58,2.36,3.92,5.08,3.46,8.69-.38,2.95-.62,5.92-1.04,8.87-.68,4.84,2.46,8.03,4.84,11.57,2.33,3.45,5.67,4.8,10.25,5.11-.53-4.49-1.88-8.69-1.26-12.59,.71-4.45-1.59-7.31-2.98-10.84-1.03-2.62,.28-5.34,2.73-6.62,2.53-1.32,5.46-1.88,9.1-3.06-2.31-3.99-4.34-7.5-6.41-11.06,1.5-2.59,2.73-4.82,4.06-6.98,1.64-2.67,2.58-5.33,1.34-8.53-1.66-4.28,.15-8.31,1.45-12.3,.16-.49,1.41-.62,2.47-1.04,0,4.19-.15,8.29,.04,12.37,.2,4.28,1.22,8.57,1.01,12.82-.24,4.88,.53,9.22,2.47,13.75,2.16,5.07,3.17,10.63,4.93,16.84,5.96,1.57,9.22,7.3,12.78,12.39,3.84-.25,6.38-.44,3.64-5.13-1.37-2.34-.88-5.76-1.22-8.66,5.2-2.43,6.07,5.02,10.43,3.62-1.58-4.88-3.22-9.95-4.99-15.41,8.66-5.19,16.69-4.82,25.85,.15-1.15-8.99,3.56-14.57,7.55-21.37-2.64-2.68-5.24-5.32-7.07-7.18-1.53-8.17-2.92-15.56-4.34-23.14,3.18-2.56,4.93-7.19,11.17-5.9,4.09,.85,8.5-4.01,7.57-8.43-1.35-6.38,1.49-9.76,5.51-12.15,.68-5.42,1.26-10,1.87-14.78-1.51-1.67-3.21-3.55-5.09-5.64,.63-1.17,.96-2.84,1.82-3.18,4.57-1.78,5.64-4.79,4.22-9.28-.24-.76,.92-1.97,1.44-2.99,4.61,1.61,2.62,5.24,2.93,7.89,.43,3.61,2.37,5.38,5.92,5.72-.6,3.78-2.13,7.31-1.36,10.22,.8,3.02,3.83,5.45,6.33,8.72-1.07,3.7-2.24,7.77-3.62,12.56,2.17,1.59,4.95,2.9,6.62,5.07,1.41,1.82,1.53,4.63,2.52,8.04,3.42-2.05,6.18-3.71,9.37-5.63,2.16,1.11,1.44,4.15,1.4,6.21-.09,4.97-2.77,6.25-11.35,6.42-1.16,2.79,1.1,3.55,2.74,4.84,4.87,3.83,6.82,8.26,3.25,11.82-6.04,6.02-3.13,12.44-3.86,19.22,7.03,.42,9.85-6.13,16.62-6.85,.52,.69,1.7,2.23,2.94,3.86-1.79,2.44-3.29,4.48-4.72,6.43,4.72,17.38,6.14,20.07,12.37,22.7,.64-7.19,3.61-12.85,9.78-16.94,4.17-2.77,6.52-6.85,3.39-12.19-.5-.85-.15-2.52,.33-3.57,1.2-2.64,2.71-5.13,4.39-8.23,5.18,5.48,2.84,13.01,5.66,18.64,3.26,6.52,2.32,13.42,3.33,20.67,2.84,1.62,5.76,3.29,8.68,4.96,0,0-.18-.25-.18-.25-5.53,11.53-9.94,13.3,7.09,18.63,1.55,.49,2.98,1.37,5.71,2.66-.64-3.11-1.04-5.04-1.66-8.09,1.94,.75,4.08,.93,4.5,1.88,1.17,2.65,1.64,5.61,2.6,9.29,5.23,.57,10-2.32,14.95-4.44,3.37,5.96,3.79,6.96,.41,9.6-4.47,3.49-6.55,7.58-7.07,13.13-.27,2.81-2.17,5.45-3.26,8.2-1.43,3.58-3.04,7.12-4.08,10.81-.37,1.33,.66,3.06,1.29,5.53,6.66-3.49,12.57-6.59,19.28-10.1,.48-5.29,3.12-10.93,.26-16.92-.33-.69-.24-1.75,.02-2.51,2.21-6.46,1.41-12.72-.77-19.03-.68-1.98-.81-4.4,2.06-5.25,2.4-.72,4.23,1.05,4.73,4.62,.24,1.71,.69,3.49,.43,5.15-.86,5.58,1.7,10.04,4.27,13.82,.05,5.43-5.61,9.8-.57,15.74,4.1-4.24,7.88-8.13,11.64-12.04,2.32-2.41,4.99-3.27,8.98-1.65,1.9,3.95,4.08,8.48,6.05,12.57,4.24,.47,5.76-1.73,5.93-4.46,.16-2.5-.89-5.05-1.03-7.6-.08-1.5,.56-3.03,2.51-4.67,1.08,3.8,1.82,7.74,3.33,11.37,1.86,4.47,6.92,4.63,11.37,6.99-.88,1.91-1.35,4.02-2.59,5.44-6.92,7.89-6.8,16.23-2.18,25.3,2.87,.78,5.71,1.59,8.57,2.32,7.23,1.84,9.09,.63,14.07-5.14,5.06-5.86,6.79-11.73,3.56-18.92-.47-1.05-.07-2.5-.07-3.73,3.3-2.66,6.56-5.28,9.37-7.55,.32-8.59-9.37-11.48-9.87-19.16,6.07-1.89,6.88,6.02,11.79,4.55,2.72-8.28,2.14-16.49-1.27-24.46,1.96-3.6,3.71-6.82,6.03-11.07,2.75,3.9,4.92,6.98,7.46,10.58-1.06,2.64-2.28,5.34-3.21,8.14-.52,1.58-1.28,3.65-.69,4.92,2.84,6.05,1.1,13.07,5.52,19.16,3.24,4.46,4.39,10.9,3.74,17.34-.5,4.96,.56,10.31,3.91,14.63,5.08,6.55,6.38,13.87,4.65,21.87-.25,1.16-.35,2.35-.58,3.93,4.58-1.48,4.65-8.06,10.84-7.4,.2,1.33,1.13,3.2,.56,4.33-3.25,6.44-1.45,10.68,5.01,13.3q6.38-4.23,13.71-2.59-.39,4.96-5.43,13.65c-1.11-.63-2.18-1.33-3.33-1.88-8.56-4.11-15.75-.24-15.85,9.05-.03,2.64-.26,4.91-.98,7.39-.39,1.32,.23,3.55,1.22,4.52,1.68,1.65,3.69,1.32,5.67-.43,1.87-1.66,4.24-2.75,6.88-4.4-.31-3.28-.62-6.57-.97-10.26,1.24,.1,2.46,0,3.55,.35,1.2,.38,2.51,.92,3.38,1.78,4.55,4.55,8.96,9.22,13.6,14.03-2.82,3.11-5.87,5.47-7.52,8.57-1.47,2.76-1.4,6.35-2.03,9.69,1.62,0,2.79,.34,3.14-.05,5.04-5.72,10.21-11.34,13.79-18.18,2.7-5.16,2.2-8.65-2.06-12.53-.32-.29-.72-.48-1.08-.72-2.54-1.68-5.38-3.32-5.12-6.87,.33-4.37,3.21-6.78,7.69-8.2,4.94,4.09,9.02,10.51,16.85,9.4-.96-4.72-1.86-9.19-2.74-13.48,4.3-4.5,6.82-10.31,15.81-7.11-1.82-3.07-2.38-4.58-3.41-5.64-4.17-4.28-6.88-8.55-3.91-15,1.32-2.86,.65-6.64,.93-10.81,3.81,.68,7.01,1.26,11.12,2,0-2,.04-3.59,0-5.18-.15-5.78,.81-10.76,6.02-14.7,4.92-3.72,7.02-9.2,6.63-15.74-.14-2.39-.27-3.98-2.27-5.33-3.74-2.53-3.87-6.41-3.7-10.31,2.96-3.1,5.85-6.13,9.37-9.81,3.57,3.49,7.02,6.87,10.27,10.06,.22,5.94-4.03,8.41-6.88,10.71,1.14,9.4,2.18,18.05,3.3,27.29,1.44,.23,3.05,.59,4.67,.73,6.56,.55,6.56,.52,10.08,8.37h11.39v7.95c.93,.47,1.76,1.28,2.39,1.14,2.09-.46,4.06-1.52,6.15-1.82,1.02-.15,2.58,.58,3.23,1.42,.65,.85,.96,2.57,.53,3.49-.68,1.46-2.57,2.41-3.13,3.88-3.01,7.98,.57,14.99,4.71,21.14,2.77,4.12,7.19,8.49,11.72,9.79,10.5,3,21.26,7.25,32.99,3.4,.18-4.57-8.81-7.77-1.13-11.87-3.31-6.05-9.04-9.25-10.84-16.37,6.88,.17,12.39,5.36,19.31,2.81-.69-8.02-11.09-9.25-12.33-17.8,4.25-2.14,10-3.16,12.16-8.73-1.31-1.99-3.07-3.94-3.99-6.22-1-2.5-.77-5.86,2.15-6.56,4.14-.99,5.49-3.27,6.22-7.04,.21-1.1,2.54-2.5,3.89-2.49,1.3,0,3.64,1.61,3.69,2.6,.26,4.89,3.23,7.5,6.76,10.13,.76,.57,.58,4.26,0,4.51-5.73,2.4-4.58,7.03-4.26,11.51,.06,.78-.57,1.6-.77,2.43-.09,.38,.09,.83,.28,2.13,2.76,1.58,5.99,3.44,9.91,5.68-3.2,4.51-4.67,9.29-.96,15.07,2.44-.17,5.43,.03,8.19-.67,3.74-.94,7.27-2.7,10.98-3.81,1.01-.3,3.3,.39,3.35,.81,.15,1.44,.09,3.64-.82,4.33-3.01,2.29-5.27,5.53-9.48,6.47-2.04,.45-3.56,3.21-5.24,4.85,2.7,5.1,6.04,7.06,10.87,4.45,5.65-3.06,11.39-5.79,14.54-12.21,1.63-3.33,4.94-5.95,7.86-8.47,.88-.76,2.97-.12,5.05-.12-.23,4.32-.42,7.65-.58,10.73-1.32,1.18-2.15,2.52-3.25,2.82-6.11,1.61-9.27,4.66-4.92,11.75-4.97,.77-8.68,1.35-12.56,1.95-.08,1.85-.16,3.52-.24,5.36-3.04,1.98-6.43,3.7-9.2,6.13-2.76,2.42-4.9,5.55-7.31,8.35,9.91,.38,21.77-2.94,32.12-9.01,2.4,.66,4.81,1.32,7.56,2.08,2.8-6.44,4.44-12.49,1.89-18.91,2.13-2.94,4.11-5.66,6.38-8.78,.84,.89,2.24,1.7,2.25,2.51,.01,2.96-.27,5.94-.75,8.87-1.25,7.71-2.18,15.4-.08,23.1,.56,2.07,.7,5.01,2.11,5.95,4.45,3,4.1,6.69,3.55,11.23-.55,4.53,3.95,4.94,6.97,6.32v526.26H0V220.99c4.28-.2,8.22-1.1,10.51-5.27l-.21,.21c2.26-.47,3.9,.05,5.61,1.95,3.76,4.18,8.25,6.21,13.49,2.18,3.21-2.46,5.6,.88,8.42,1.13,5.21-3.71,5.89-8.88,4.39-14.2,4.85-5.12,9.42-9.61,17.88-8.83-4.01-8.39-8.73-14.44-7.16-23.04,7.85-2.49,15.38-6.34,18.21-16.59,5.25,10.23,17.13,10.66,24.44,18.84-1.29,4.34-2.69,9.06-4.41,14.87,3.42-1.31,5.61-2.16,8.4-3.23,2.94,5.15,1.5,10.13,.06,14.89-2.36,7.8-5.16,15.47-7.7,23.21-.75,2.28-.25,4.67,2.07,5.33,1.8,.52,4.7,.42,5.89-.7,4.32-4.1,8.12-8.76,12.13-13.19,.84-.93,1.56-2.18,2.62-2.65,1.06-.47,2.64-.55,3.67-.08,.99,.45,2.41,2.11,2.2,2.74-2.27,6.57-.78,14.85-8.38,19.09-.69,.39-1.63,1.3-1.59,1.91,.47,7.38-4.82,10.32-9.98,13.55-1.33,.83-2.65,2.52-2.92,4.01-.66,3.62-2.89,6.1-4.97,8.86-2.38,3.17-1.88,4.1,2.73,7.87,12.33-2.85,21.25-10.42,28.35-23.17,2.19,5.4,3.39,8.37,4.53,11.18,4.71,1.45,8-.03,10.34-3.65,2.54-3.92,4.88-7.97,7.11-11.65,4.18,.31,2.59,6.35,7.58,5.33,2.22-.45,2.01,3.24,2.3,5.31-.6,.48-1.23,.92-1.78,1.45-.25,.25-.34,.66-.5,1.01,.47-.14,1.18-.15,1.37-.46,.39-.63,.49-1.44,.72-2.17,1.58-.59,3.16-1.17,5.33-1.98,2.55,4.71,3.21,8.83-.85,12.78-2.39,2.33-4.82,4.64-7.53,7.24,3.43,3.78,7.02-.52,10.67,1.84,.11,.93,.99,2.9,.36,3.93-3.53,5.73-1.96,11.34,0,17.63,2.64-.87,5.27-1.74,7.89-2.61-.12,3.42-.35,6.83-.32,10.24,.04,4.42,1.59,8.15,6.45,11.78-.56-4.91-1.76-8.72-1.22-12.26,.76-4.93-2.13-7.09-5.12-9.57,.18-1.69-.29-4.15,.65-4.94,5.1-4.32,6.71-10.5,8.82-16.41,9.76,4.74,12.17,2.79,12,18.23,2.36,.27,4.79,.55,7.22,.83l-.24-.2c.37,3.81,.74,7.63,1.11,11.4q10.02-.13,20.05,5.38c5.42-4.71,11.49-7.93,19.3-4.21,1.77,.84,4.64-.64,6.8-1.02,4.42,8.24-4.48,14.1-2.6,22.16,2.64,.67,5.39,1.37,8.07,2.06,1.05,3.07-.92,7.33,3.97,8.59,.64,.17,1.52,2.58,1.13,3.11-3.64,5-1.43,8.85,2.13,11.82-.2,7.41-7.92,12.62-3.46,20.81,4.34-.26,8.95-.54,14.05-.84,6.95,4.09,12.61,9.47,14.45,18.14,.69,3.26,2.88,5.19,6.86,5.32,3.53-10.24,12.03-14.42,22.33-16.19-2.91-7.15-5.58-13.68-8.27-20.29q5.07-1.55,11.06,1.04c.44-.63,1.38-1.43,1.23-1.86-1.46-4.29-2.44-8.13,2.48-11.28,1.89-1.21,2.74-4.05,4.05-6.13,5.58,3.12,10.73,8.15,11.18,12.77,.44,4.52,3.76,2.34,6.36,4.03,.69,4.76-2.08,9.14-3.99,14.15,1.72,3.45,3.57,7.16,5.46,10.94,2.72-.95,5.06-1.77,7.16-2.51,5.11,2.86-2.04,7.84,2.85,10.63,1.48-.64,3.26-1.41,5.04-2.17,.5,.62,1.45,1.28,1.37,1.78-.78,5.07-1.73,10.12-2.82,16.22,3.17-.79,5.66-2.1,7.92-1.79,2.16,.3,3.68,3.4,7.22,2.41-.19-5.62-6.69-9.89-2.76-16.56,6.39,.61,11.51,6.16,19.06,6.68-.11-2.3,.4-4.6-.42-6.22-2.61-5.12-4.75-10.11-2.38-15.92,.31-.77,.6-1.87,.28-2.52-1.82-3.7-2.55-7.67-.31-11.1,1.78-2.72,4.79-4.62,7.49-7.09-.65-2.95-1.29-5.83-1.92-8.65,.54-.77,.88-1.86,1.51-2.06,4.71-1.5,6.96-4.85,7.34-9.56,.38-4.75,4.07-7.48,6.79-10.57,1.41-1.6,4.68-1.55,7.98-2.5,.55,2.4,1.7,4.48,1.27,6.15-1.04,4.12,2.67,6.16,3.32,9.27,.78,3.69,.25,7.65,.44,11.49,.17,3.36,2.88,3.87,5.44,4.45l-.18-.2c2.97,2.27,4.68,5.04,3.64,8.95-.66,2.49-1.28,4.98-2.14,8.34,3.7,.47,7.27,.92,11.07,1.4,.69-1.15,1.79-2.16,1.88-3.25,.41-5.15,.5-10.32,.78-15.48,.11-2-.85-4.37,2.24-6,3.23,3.24,2.77,7.86,3.85,11.79,1.13,4.12,1.62,8.42,2.51,13.27,1.95,1.44,4.33,3.2,6.93,5.12,.06,1.12,.47,2.47,.14,3.59-1.51,5.01-2.63,10.02-1.4,16.29,3.94,3.28,8.44,7.03,13.36,11.13,2.27-1.67,3.84-3.03,5.6-4.03,1.04-.59,2.48-1.03,3.6-.82,5.01,.92,9.46,3.7,10.39,8.59,1,5.24,4.26,10.31,1.87,16.17-1.55,3.8,.72,7.55,4.19,8.21,4.54,.87,5.62,3.01,5.53,6.95-.02,.7,.7,1.68,1.36,2.08,4.54,2.82,4.4,7.02,3.6,11.47-1.19,6.6,.61,11.85,6.88,15.16,3.1-1.8,3.79-4.79,2.68-7.72-1.74-4.59-2.04-9.23-1.87-13.99,.13-3.55-.83-6.68-2.49-9.87-1.03-1.97-.62-4.69-.98-8.41,3.93,1.98,6.53,3.29,9.2,4.63,1.54-3.86,3.85-6.07,8.49-4.69,.72,.21,2.82-1.97,3.19-3.34,.53-1.99,.25-4.26-.02-6.37-.37-2.99-1-5.95-1.6-8.91q-2.14-10.62,3.59-22.89c3.98,.21,7.44,1.66,10.26,4.6,2.7,.13,5.07,3.66,8.71,.16h-8.9c-1.55-3.48-3.08-6.96-4.64-10.42-.86-1.91-2.16-3.73-2.52-5.72-.27-1.49,.15-3.74,1.16-4.63,.87-.77,3.21-.56,4.55,.02,3.77,1.65,6.27,5.87,11.71,5.95v-13.37c-3.68-6.04-7.13-11.72-11.27-18.51,4.19,.28,6.98,.46,9.77,.65,1.02-2.25,1.9-4.18,3-6.6,3.74-1.17,8.01-2.65,12.06-1.08,5.82,2.26,11.29,5.42,17.27,8.37-1.93,8.16-6.37,13.17-14.19,15.06,2.7,4.96-1.51,9.57-.8,14.79,6.33-1.46,10.92-2.72,13.49-7.17,3.18-5.5,8.99-3.96,13.65-5.28,1.01-.29,2.92,2.63,4.42,4.07-7.41,5.58-13.94,11.9-17.41,21.01,2.89-.63,5.51-1.19,8.47-1.84,.21,2.17,.21,3.44,.47,4.64,.42,1.95,.41,4.57,1.66,5.64,1.89,1.62,3.71-.36,5.46-1.73,7.99-6.29,8.73-7.92,5.77-17.38-1.14-3.64-3.08-7.02-4.65-10.52,3.2,1.06,6.41,2.11,9.96,3.28,3.73-4.24,3.06-9.08,2.71-13.61-.35-4.56,.4-8.35,4.24-11.88,3.32,4.65,3.39,9.2,2.65,13.9-.81,5.17-.45,10.19,2.05,15.62,4-1.81,7.84-3.55,12.32-5.58-.26-2.49-.86-4.96-.67-7.37,.27-3.41,3.46-5.85,6.16-4.97,2.71,.88,4.32,2.63,3.57,5.83-.48,2.05-.7,4.16-1.07,6.46,3.34,1.56,6.33,2.96,9.32,4.35,3.72,1.72,3.03,5.96,4.96,8.67,2.49,3.49,4.99,6.98,7.71,10.28,2.86,3.46,6.53,5.53,11.23,5.25,4.66-.28,6.27-3.88,8.39-7.55-2.4-2.23-4.79-4.45-7.71-7.17,2.44-3.49,4.57-6.54,6.97-9.98,.16-3.34,.19-7.19,.68-10.99,.09-.67,2.01-1.33,3.16-1.54,.6-.11,1.83,.63,1.99,1.2,.43,1.61,.5,3.32,.61,5,.4,5.86,2.64,10.69,8.56,14-2.7,5.47-9.41,10.19-3.53,16.92,2.93,1.76,4.55-4.77,8.43-.39-.62,5.72-5.66,10.57-6.84,16.98,2.14,4.83,5.88,3.49,9.24,1.9,3.87,3.22,6.66,6.27,4.19,11.3-.5,1.03-5.57,16.68-5.84,17.52-.65,2.02-1.1,4.11-1.63,6.16-1.34,0-2.68,0-4.01,0,.14,.55,.28,1.09,.41,1.64,1.14-.61,2.28-1.22,3.43-1.83,4.97-3.37,9.77-7.04,14.98-9.98,2.39-1.35,5.59-1.27,9.11-1.98,1.15,10.42-5.63,18.96-3.13,29.15,.92,.88,2.45,2.33,4.52,4.29-.71,3.34-1.94,6.99-2.06,10.68-.06,1.78,1.96,3.63,2.98,5.34,3.05,.82,5.93,1.6,9.22,2.48,2.49-1.99,5.12-4.1,7.84-6.28v-12.6c4.94-3.87,5.23-9.16,5.36-14.95,.11-5.08,4.85-7.78,10.51-7.48,1.54,.08,3.26-.24,4.64-.9,2.22-1.06,4.58-1.24,5.83,.66,1.26,1.91,1.43,4.53,2.36,7.88,1.79,.86,6.42,1.58,7.32,3.8,2.6,6.46,8.58,12.09,6.18,20.36-2.09,1-4.35,2.09-7.02,3.37,.25,2.11,.5,4.13,.72,5.97,7.38,1.13,11.52-2.85,14.56-7.76,5.15,1.4,3.43,5.11,3.63,7.75,.22,2.87-.79,5.85-.49,8.7,.11,1.08,2.27,2.26,3.72,2.74,.54,.18,2.26-1.35,2.48-2.32,.66-2.89,.84-5.89,1.23-9.03,2.8,.42,5.61,.85,8.98,1.35,1.39-3.82,1.8-8.07,4.11-10.46,2.46-2.54,6.74-3.33,10.96-5.22-.5-2.55-.82-4.98-1.48-7.32-.64-2.23-.86-4.21,1.19-5.78,2.35-1.81,1.94-4.14,.02-5.39-4.62-3.02-2.31-7.79-4.58-12.16,4.77-.62,4.74,4.43,7.68,4.58,2.8-.22,4.91-1.22,5.58-4.32,1.58-7.38,5.8-14.09,3.7-22.39-1.21-4.79,4.66-15.92,9.68-22.39,3.25,1.23,2.67,4.11,2.56,6.53-.2,4.4,1.26,7.49,5.57,9.08,5.05,1.86,7.93,5.07,6.36,10.89-.21,.77-.19,1.89,.22,2.5,5.52,8.09,2.73,15.01-2.61,21.85-1.19,1.52-1.26,3.92-1.73,5.53,.69,.76,.98,1.32,1.21,1.3,1.65-.18,3.3-.49,5.44-.83,.82,3.17,1.6,6.24,2.31,8.97,5.14,.77,4.97-3.54,7.05-5.34,.56-.48,2.02-.86,2.29-.57,.75,.81,1.75,2.24,1.47,2.99-1.01,2.79-2.5,5.4-3.66,7.77,1.22,4.8,4.78,6.13,8.58,8.23,1.98-2.94,3.61-5.38,4.91-7.31,.6-4.37-5.31-5.31-3.62-9.65,1.12-2.86-4.33-4.64-1.26-8.62,2.1,.89,4.35,1.84,6.74,2.85,2.8-2.9,.78-8.75,6.95-10.46,1.99,2.74,4.19,5.76,6.42,8.83,.09,5.29-3.28,10.88,1.15,15.83,4.72,1.61,6.15-4.63,10.29-4.07,.51,.6,1.57,1.3,1.49,1.83-.7,4.58-1.61,9.12-2.63,14.61,3.03-.82,5.32-1.43,7.6-2.04q4.16,9.52-3.94,21.5c2.41,.9,4.8,1.62,7.02,2.67,2.28,1.08,4.4,2.48,6.8,3.87,2.65-3.77,5.01-7.14,7.45-10.61-3.34-4.59-7.03-8.8-9.63-13.61-1.18-2.19-.2-5.55-.2-10.81,3.8,5.15,6.16,8.54,8.74,11.76,2.12,2.64,6.18,2.71,7.73-.06,1.86-3.34,4.58-7.13,4.32-10.52-.51-6.64,2.37-11.5,5.51-16.58,.71,.32,1.88,.48,2.06,.98,.94,2.74,.73,6.34,4.74,6.71,3.19,.29,5.99-1,7.8-3.69,2.35-3.49,5.2-6.44,5.94-11.18,.83-5.33,3.6-10.36,5.69-15.99,2.87,5.5,5.02-.32,7.7,.36,4.47,2.89,6.88,7.03,6.71,12.68-.09,2.98,.23,5.96,.22,8.94-.01,3.85,1.63,6.56,5.15,8.13l-.21-.19c1.74,1.2,3.47,2.4,5.47,3.77-2.33,6.72-4.67,13.46-6.98,20.11,4.55,3.04,7,3.34,8.76,.58,2.02-3.17,3.43-6.72,5.31-10.49,1.12,.44,2.2,.89,3.3,1.28,4.18,1.51,6.8-.21,6.48-4.35-.1-1.26-.56-2.5-.94-3.72-.38-1.21-.86-2.4-1.26-3.49,2.33-4.7,3.94-9.36,8.94-12.33,3.45-2.05,3.04-6.73,1.83-10.51-.61-1.92-1.87-3.63-2.7-5.18,3.23-3.92,6.1,.15,9.44-.88,4.22-6.06,2.97-13.48,3.55-20.5,2.61-.31,2.8,1.53,2.99,3.16,.4,3.4,.66,6.82,1.03,10.76,2.61,.5,5.06,.96,7.51,1.43q2.67,10.01-6.53,16.66c4.16,1.37,8.03,2.64,12.41,4.09,.3,2.42,.96,4.94,.86,7.43-.3,7.27,2.39,12.58,9.15,15.12,2.74,6.9,1.01,13.05-1.2,19.22-.86,2.39-1.96,4.95-1.81,7.36,.11,1.78,1.72,4.08,3.32,5,2.22,1.27,4.18-.34,4.83-2.7,.91-3.3,2.14-5.73,6.19-4.16,2.28,4.85-.23,9.21-.98,13.76-.23,1.38,.87,3.31,1.92,4.48,2.04,2.27,3.83,.06,5.65-.82,.34-.17,.82-.06,1.28-.08,3.14,1.4,2.4,4.41,2.08,6.66-.42,2.92-1.7,5.78-2.95,8.51-.88,1.91-2.34,3.55-3.56,5.34,.83,2.15,2.29,4.33,2.33,6.53,.03,1.88-1.58,3.79-2.64,6.05,4.46,4.55,11.35,1.41,15.57,6.29,2.45-2.63,4.4-4.73,6.57-7.05,.74,3.88,1.44,7.5,2.24,11.68,4.81-1.04,8.9-1.93,12.85-2.78,.65-4.11,1.2-7.77,1.82-11.42,.53-3.15,1.13-6.28,1.78-9.83,2.03,1.92,3.81,3.61,5.73,5.42,4.83-4.29,8.04-8.71,7.26-15.52-.53-4.66,.04-9.48,.51-14.19,.13-1.28,1.68-2.42,3.85-5.34,1.13,9.64,4.73,16.66,3.98,24.53-.64,6.7,1.82,12.47,5.06,18.05-.27,.29-.62,.54-.8,.88-.13,.23-.04,.59-.05,.89,.22-.64,.45-1.29,.67-1.93,2.46-.69,4.92-1.38,7.83-2.19,5.98,6.12,14.05,9.75,19.16,16.96,.93,1.31,2.49,2.5,4.01,2.98,1.94,.61,4.13,.44,7.49,.71-1.81-4.24-3.22-7.54-4.62-10.85-1.31-3.12-2.59-6.25-4.16-10.04,3.43-.35,6.62-.68,10.24-1.06,.93-2.52,1.81-4.9,2.6-7.01-1.6-4.16-3.07-7.97-4.72-12.26,6.9,.22,8,7.28,12.81,8.49,3.01-.73,3.35-2.75,3.21-5.03-.29-4.67-.65-9.34-.89-14.01-.07-1.28-.36-3.03,.32-3.78,5.54-6.06,4.93-14.76,9.23-22.29,2.24,2.83,3.53,5.95,5.77,6.96,3.73,1.69,2.18,5.33,3.98,7.48,1.86,2.22,3.93,4.27,5.88,6.37,6.38-3.97,9-9.52,6.78-15.7-2.13-5.92,3.32-10.58,1.21-16.06,2.03-1.99,4.05-3.99,6.82-6.72-2.15-6.99,2.44-13.85,3.62-21.33,.38-2.4,2.51-3.73,4.8-3.25,1.41,.3,3.17,1.67,3.7,2.99,1.71,4.33,3.13,8.81,4.24,13.33,.56,2.27,1.45,3.75,3.39,5.09,1.23,.85,2.62,2.81,2.47,4.11-.8,7.03,5.49,14.42-2.91,20.64,2.82,1.97,4.02,3.16,5.47,3.75,4.02,1.63,5.19,4.85,3.86,8.38-2.32,6.18-3.66,12.25-2.28,18.88,.27,1.29-1.28,2.98-2.05,4.45-.78,1.49-1.95,2.85-2.36,4.42-.27,1.05,.16,2.77,.93,3.43,.68,.58,2.53,.55,3.4,.02,2.7-1.62,4.58-3.97,4.2-7.41-.18-1.68-.55-3.33-.72-4.37,1.69-4.45,6.21,0,7.96-3.7,1.24-2.64,3.31-4.89,5.01-7.32,4.61-1.26,5.15,3.77,8.03,5.24q-1.26-11.2,10.66-16.77c-1.98-6.7,2.66-11.47,5.86-16.76,.85-1.4,2.95-1.42,9-.42,.39,2.66,.42,5.61,1.32,8.28,1.14,3.39,3.87,5.39,7.2,6.96,2.57,1.21,4.61,3.52,6.96,5.41,3.63-.87,3.77-4.23,4.72-6.94,.85-2.4,1.47-4.87,2.16-7.23,3.39,.37,4.33,2.74,4.37,4.63,.15,6.14,3.04,10.53,7.98,13.55v17.67c2,.88,3.87,2.26,5.85,2.46,6.33,.66,8.21,6.76,11.88,10.23,3.31,3.14,4.07,9.23,.86,14.43-2.23,3.6-3.78,7.62-5.57,11.33q4.04,6.26,20.64,10.14c.39,1.89,.81,3.93,1.25,6.05,.64-.28,1.64-.38,1.83-.84,2.7-6.3,.45-12.78,.61-19.18l-.21,.17q4.65-1.33,8.21-6.64c2.51,.15,5.05,.6,7.53,.35,2.04-.21,4.01-1.25,6.62-2.12,1.48,3.31,2.8,6.28,4.14,9.27-.36,.72-.54,1.65-1.11,2.16-3.5,3.13-7.21,6.04-10.58,9.3-1.15,1.11-1.69,2.94-2.26,4.54-1.11,3.09-.1,6.48,2.1,6.44,1.87-.04,4.25-.93,5.43-2.29,1.62-1.87,2.37-4.52,3.39-6.88,.65-1.52,1.11-3.13,1.56-4.41,3.92-1.13,5.64,.69,5.73,3.63,.09,2.97-.68,5.96-1.02,8.95-.14,1.27-.72,3.11-.11,3.75,4.41,4.67,3.82,11.21,6.53,16.45,.44,.85,2.04,1.31,3.18,1.49,.67,.11,1.92-.53,2.15-1.12,1.03-2.71,3.01-5.4,1.04-8.48-.7-1.09-1.58-2.08-2.15-3.23-2.14-4.37-1.96-8.26,1.94-10.03,4.86-2.2,6.88-5.76,7.72-11.22,4.07,3.7,7.34,6.67,10.98,9.98-.49,1.65-.77,3.88-1.77,5.71-1.71,3.15-2.61,5.88-1.05,9.62,.8,1.92-.95,4.82-1.22,7.31-.23,2.09-.61,4.53,.21,6.27,.79,1.68,2.88,3.2,4.71,3.77,1.05,.33,2.73-1.37,4.82-2.54,2.64,2.92,5.62,6.22,8.56,9.46,4.52-2.83,15.84-13.27,17.31-16.12,.33-.63,.24-1.69-.05-2.39-1.09-2.62,.04-4.73,2.36-4.92,5.65-.46,6.15-4.98,8.26-11.13,.35,4.38,.45,6.4,.69,8.4,.26,2.13,.66,4.23,1.07,6.79,11.89,2.9,11.84,14.04,15.5,24.73,1.81-3.4,2.39-5.78,3.91-7.06,3.18-2.71-.5-4.58-.35-6.86,.25-3.71,1.48-8.01,.06-11.01-1.77-3.77-1.52-6.28,.45-9.45,.32-.52-1.21-2.04-1.64-3.19-1.12-3.01-1.61-6.38,1.97-7.73,3.73-1.4,2.06-5.41,4.61-7.41,4.39,.52,2.37,5.87,5.5,7.57,3.15,1.71,5.16,4.55,5.05,8.45-2.42,1.65-4.85,3.3-7.59,5.17,1.53,5.07-.97,10.5,3.46,15.2,2.23-1.19,4.28-2.92,6.56-3.31,2.06-.35,4.37,.75,7.37,1.39-1.27-8.22-6.55-12.93-10.04-18.6,6.49,.36,10.19-3.16,12.7-9.26-2.2-2.3-4.39-4.6-6.66-6.97q6.97-5.1,9.19-11.38c1.54,3.96,3.2,7.65,4.35,11.48,.4,1.33-.33,3.06-.73,4.56-.62,2.38-1.51,4.7-2.08,7.1-.84,3.51,1.4,5.95,4.87,5.34,2.4-.42,4.6-2.71,7.24-.69,1.53,2.87-1.6,3.5-2.46,5.21-2.22,1.18-4.44,2.35-7.47,3.96,4.62,.96,6.35-.97,7.29-4.14,1.67,.29,3.34,.57,5.23,.9,2.98,9.49-3.74,15.12-10.05,21.73,9.01,2.5,11.56-6.11,17.48-6.13,2.14,2.3,.7,4.76,.33,7.18-4.42,2.92-9.91,4.78-11.29,10.63,3.26,3.67,5.93-.1,8.77,.26,.55,.47,1.49,.87,1.7,1.52,.91,2.81,.94,5.98,5.27,6.17,3.04,.13,5.24,2.99,3.81,5.36-3.54,5.86-.23,10.62,1.01,16.81,3.55-1.44,6.51-2.65,9.49-3.86,.24,.94,.74,1.77,.59,2.45-1.38,6.4-5.19,11.67-8.21,17.31-.76,1.43-1.38,2.93-2.18,4.65q10.09,.43,16.22-8.83c1.6,.59,3.2,1.18,5.15,1.9,2.05,2.95-3.01,8.74,3.5,10.48,.37,.1,.43,3.38-.22,4.78-1.06,2.28-2.84,4.23-4.76,6.95,1,1.09,2.55,2.36,3.53,3.98,1.08,1.79,1.62,3.89,2.57,6.29,2.07-.61,4.04-1.64,6.03-1.68,3.33-.07,6.67,.5,10.47,.84-.23,7.6,6.63,11.07,10.04,16.71,.22,.36,1.56,.05,3.2,.05,1.75-4.76-.83-9.92,.25-14.81l-.12,.24c0-1.83,0-3.67,0-5.5l.22,.17c.46-2.52,1.1-5.03,1.35-7.58,.63-6.5,0-8.94-3.67-15.59,2.06-1.39,4.15-2.79,6.14-4.13,.94,.6,2.1,.93,2.25,1.51,1.76,6.96,5.2,13.57,3.59,21.23-.72,3.43,.66,6.98,3.76,9.1,1.65,1.12,3.94,2.21,5.77,1.98,3.71-.46,7.31-1.83,11.88-3.09-2.43-3.61-4.49-6.69-6.75-10.05,.25-3.92,.51-8.12,.8-12.67h8.69c1.29-2.51,.07-3.69-1.58-4.41-2.34-1.01-4.79-1.76-7.24-2.65-.61-3.93-1.1-7.57-1.75-11.18-.59-3.3-2.26-6.55-.28-9.82,4.95-1.71,5.1,5.9,10.5,4.53,2.01-3.47-1.09-7.94,1.09-12.46,1.9-.25,4.25-.55,6.58-.86q1.85-7.49,10.16-4.28c.73-2.25,.8-5.27,2.33-6.57,2.9-2.48,2.37-5.11,2.22-8.14-.12-2.52,.45-5.07,.75-7.92-1.54-2.45-3.28-5.22-4.86-7.74,.93-1.32,1.28-2.4,1.9-2.59,5.27-1.64,7.98-4.74,6.77-10.56-.34-1.62-.35-3.45,.07-5.03,.24-.88,1.67-1.44,3.51-2.89,.59,4.7,1.05,8.41,1.6,12.74,2.11,1.29,4.53,2.77,6.63,4.06,.16,1.45,.59,2.46,.29,3.11-1.42,3.06-3.05,6.02-4.47,8.77q9.84,11.9,8.77,26.59c4.61,4.11,9.96-1.8,14.72,.96,4.4,4.59-1.7,9.9,.83,14.58,3.39,1.74,4.1-2.83,7.74-2.13-.28-.16,.73,.06,1.08,.66,7.83,13.29,4.8,26.49-.43,39.66-.72,1.95-1.44,3.89-2.16,5.83-.41-.14-.97-.52-1.21-.37-5.71,3.42-11.39,6.9-16.97,10.31,.57,3.27,2.71,3.57,4.85,2.99,6.81-1.85,10.95-6.54,13.16-13.1,.71-1.96,1.43-3.91,2.14-5.86,1.64-.4,3.27-.8,5.42-1.32,2.67,5.24,3.37,9.82-1.49,13.97-1.63,1.39-3.28,2.76-4.79,4.27-1.46,1.47-3.55,2.93-3.96,4.72-1.8,7.86-6.2,14.49-9.56,21.63,3.19,1.51,4.89-.86,6.28-2.84,2.4-3.43,4.37-7.18,6.45-10.68,5.12,1.05,4.37,5.15,4.86,8.6,1.71-.27,3.25-.05,4-.71,3.52-3.12,6.83-6.48,10.62-10.15,4.01,2.15,2.62,6.5,3.53,10.04-1.9,5.16-8.56,7.39-8.77,13.88-.03,1.05-2.65,1.88-3.85,3.05-3.52,3.43-4.07,7.3-1.41,12.03,6.66-1.35,12.2-4.42,16.9-8.94,1.48-1.42,3.4-3.63,3.24-5.3-.51-5.3,3.82-7.16,6.71-11.25,1.19,1.53,2.16,2.72,3.05,3.95,.75,1.04,1.41,2.15,2.6,3.98-1.85,6.35-3.58,13.43-2.17,19.63,2.65,5.26,8.24,.44,10.61,5.27,1.62,3.31,5.36,5.52,7.34,8.72,3.43,5.53,8.12,8.77,15.45,10.22-1.48-2.44-3.2-4.19-3.56-6.18-.34-1.86,.78-3.98,1.28-6.09-3.84-2.91-7.55-5.73-11.27-8.55-.7-6.44-8.63-9.47-7.71-17.31,5.92-.65,10.21,6.91,17.23,3.39-.58-3.5-4.65-3.92-6.71-6.12-2.33-2.49-5.22-4.49-7.36-7.12-1.83-2.23-2.88-5.09-4.39-7.6-1.76-2.93-3.64-5.79-5.5-8.74,.83-2.55,1.59-4.89,2.2-6.79,3.33-.83,5.38,4.55,8.46,.22,.56-.78,3.78,.33,6.71,.68-.85-2.06-1.07-3.97-2.13-4.9-3.01-2.62-5.68-5.27-6-9.54-.16-2.09-.23-2.09,5.25-10.59,3.44,6.61,6.81,13.13,15.62,14.25,.93-5.49-2.78-8.93-4.96-11.79-5.64-7.39-6.46-15.54-7.09-24.99,7.05,2.42,9.1,11.57,17.14,10.67,1.07-3.37-2.04-4.88-3.73-5.73-6.07-3.03-7.39-7.91-6.9-13.94,.17-2.1,.29-4.2,.41-6.01,3.16-1.47,4.42,.26,5.82,1.93,2.46,2.93,5.04,5.76,7.48,8.54,4.09-1.29,3.64-4.45,2.39-6.21-3.25-4.56-3.28-9.69-3.92-14.87,1.75-1.56,4.28-2.83,5-4.78,.53-1.43-2.52-4.73-1.89-5.49,3.38-4.15,7.39-7.75,11.84-12.18,3.78,7.43,3.17,17.23,13.94,19.1-.68,4.51-1.37,9.06-2.02,13.36,4.41,1.6,8.32,3.03,11.55,4.2,2.09,4.43-1.37,8.5,2.28,11.89,6.43,5.99,6.38,13.73,4.05,21.38-.8,2.64-.31,3.59,1.46,5.21,1.03,.94,1.76,3.27,1.33,4.54-2.16,6.45-4.74,12.77-7.6,20.25,.21,.29,.94,2.38,2.2,2.77,1.79,.56,4.23,.41,5.93-.4,3.78-1.81,7.27-4.22,10.69-6.28,4.05,2.54,3.03,5.71,1.44,8.16-2.33,3.59,.89,5.49,1.95,8.96-4.07,6.39-9.44,12.34-16.15,17.99,2.59,3.07,5.29,3.06,8.15,2.16,4.89-1.54,9.74-3.19,14.61-4.79,0,0-.19-.19-.19-.19,.04,1.3,.64,3.05,.02,3.81-4.63,5.66-3.55,14.08-9.6,19.15-2.14,1.8-.91,4.26,2.18,6.95,1.55,1.35,3.08,2.87,4.14,4.6,3.56,5.83,8.9,9.8,14.72,15.78,.76-5.8,1.3-9.93,1.96-14.97,2.84,5.04,5.34,9.49,8.13,14.46-.94,3.29-2.09,7.28-3.41,11.9,7.56,.84,12.91-3.46,18.95-4.81,1.04-.23,1.56-2.82,2.8-5.25,5.14,6.58,5.04,14.07,7.36,20.67,3.21,1.13,7.25,1.53,9.74,3.71,2.7,2.37,3.96,6.4,6.01,9.99,4.23-.72,7.33-3.39,10.21-7.48-.74-2.41-2.16-5.14-2.29-7.93-.14-2.92,.96-5.9,1.52-8.85l-.21,.22c6.87-2.31,7.59-3.06,7.6-8.22,.02-8.08,0-16.16,0-25.36,3.85,.96,6.87,1.71,10.03,2.5,1.65-5.01-2.04-8.05-4.06-12.11,5.65-6.01,3.73-13.9,4.16-21.2,.26-4.46,1.25-7.51,5.79-8.66,.07,.32,.14,.64,.21,.96-.12-.26-.23-.53-.35-.79,.42-2.31,.04-4.12-2.3-5.43-2.83-1.6-4.39-4.03-2.99-8.07,5.93,.18,11.57,5.21,18.6,1.66,.66-2.79,2.08-6.07,2.06-9.36-.03-6.68-.62-13.38-1.51-20.01-.17-1.3-2.46-2.6-1.01-4.26,1.91-2.18,3.88,.08,5.83,.39,.37,.06,.79-.13,1.41-.24,0-1.57-.54-4.33,.08-4.63,6.03-2.89,8.22-7.95,7.31-13.89,4.21-.62,4.02,1.28,4.28,3.02,.25,1.66,.29,4.06,1.34,4.78,3.97,2.7,4.62,7.03,6.52,10.83,1.27,2.54,3.89,4.4,6.32,7.02-.24,2.72-.51,5.89-.87,10.03,3.53-2.44,6.27-4.33,9.65-6.66,1.18,1.56,2.82,2.74,2.92,4.04,.27,3.56-.92,6.8-4.19,8.82-1.81,1.12-3.89,1.91-5.44,3.3-.76,.68-1.02,2.53-.7,3.6,.28,.95,1.62,2.07,2.62,2.22,1.63,.24,3.37-.38,5.07-.4,2.89-.03,5.78,.12,9.37,.21-.37,3.25-.97,5.66-.84,8.03,.19,3.56,2.21,5.59,5.52,6.09,2.52,.38,5.07,.76,7.61,.85,1.93,.07,3.89-.3,8.9-.75-5.26,3.19-7.96,4.82-11.24,6.8,1.41,2.53,2.62,4.69,4.15,7.41-.58,1.09-1.09,2.8-2.18,3.96-3,3.18-3.9,6.36-.91,10.74,6.46-3.38,8.24-9.8,11.55-14.93,1.27,3.12,1.92,6.75,3.93,9.3,5.06,6.42,6.59,14.06,7.5,21.6,.64,5.29-1.03,10.87-1.93,18.6,.85,3,3.28,7.12,10.13,5.56,1.55,2.08,3.2,4.04,4.55,6.18,2.11,3.33,3.52,6.78,2.35,10.97-.68,2.44-.57,5.11-.7,7.68-.29,5.76,3.4,10.78,9.15,11.91,1.39,.27,3.06-.89,5.36-1.63,.85,6.06-.69,11.23-2.61,16.37-1.51,4.03-3.17,8.03-4.33,12.16-.36,1.3,.69,3,1.4,5.68,4.25-2.86,7.6-5.11,10.92-7.33,2.46,2.72,.79,4.81-.36,6.25-6.03,7.55-6.16,15.49-2.02,24.96,2.19-1.82,4.67-2.97,5.65-4.89,2.55-4.96,4.15-10.41,6.69-15.38,2.58-5.05,3.25-9.7-.21-14.55-.36-.5,.1-1.58,.18-2.43,2.75-1.34,3.65,.98,4.86,2.54,3.92,5.02,7.24,10.75,15.07,12.51,.58-4.14-2.9-6.17-3.72-9.13-1.04-3.71-2.51-7.34-4.13-10.84-1.39-2.99-3.25-5.76-4.64-8.18,2.1-4.11,5.1-1.86,7.89-2.79,1.12-1.67,2.5-3.73,3.87-5.76-.17-.83-.13-1.77-.53-2.43-1.8-2.9-3.8-5.68-5.53-8.62-.26-.44,.31-1.72,.86-2.18,.55-.46,1.83-.79,2.3-.47,2.46,1.68,4.77,3.59,7.13,5.41l-.24-.2c1.02,1.87,1.93,3.81,3.1,5.58,.37,.55,1.9,1.08,2.06,.9,.72-.84,1.58-1.95,1.57-2.95-.01-1.19-.87-2.36-1.36-3.54,0,0-.19,.2-.19,.2,1.78-.07,3.57-.14,5.35-.21,.38,.73,.6,1.65,1.19,2.12,.47,.38,1.37,.21,2.09,.28-.34-.6-.55-1.45-1.06-1.74-.67-.38-1.6-.31-2.41-.44-.91-2.85-1.82-5.7-2.82-8.86,1.38-3.28,2.85-6.79,4.35-10.39,7.01-1.74,13.98-3.48,15.09-12.71,.19-1.55,2.82-2.81,4.62-4.48-1.38-2.41-2.24-5.04-3.99-6.77-6.39-6.33-6.25-12.72-.33-20.15,2.36,.82,5.04,1.76,7.98,2.78,2.44-1.25,5.06-2.59,7.86-4.03-.27-1.51-.12-2.97-.76-3.83-2.01-2.71-4.32-5.2-6.66-7.94,1.89-3.9,3.36-7.48,5.29-10.78,2.1-3.6,1.46-7.36,1.69-11.17,.22-3.64,1.64-7.2,4.05-10.82,.53,2.28,.55,4.89,1.74,6.74,1.33,2.05,3.73,3.41,5.45,4.87-5.24,10.56-4.72,21.19-7.33,32.06,3.37-.53,5.01-.79,7.02-1.1,.44,1.53,.88,3.11,1.33,4.69,.79,.09,1.73,.49,2.35,.2,1.94-.92,3.68-2.28,5.65-3.13,2.69-1.17,5.08-.25,6.99,1.82,1.73,1.89,1.44,4.11,.13,5.93-3.6,4.99-6.51,9.92-5.19,16.63,.42,2.12-1.36,4.87-2.62,7.06-1.05,1.82-2.98,3.11-4.18,4.87-1.21,1.77-2.38,4.14-.08,5.67,.98,.65,3.8,.24,4.48-.67,2.36-3.15,5.62-3.75,9.03-4.33,6.17-1.05,8.94,1.78,7.36,8.01-1.42,5.59-1.47,11.86-7.12,15.69-.51,.35,.15,3.16,.95,4.4,.43,.67,2.71,1,3.42,.48,2.77-2.01,5.8-4.05,7.68-6.79,1.56-2.28,1.65-5.57,2.46-8.7,6.97-.13,9.72,6.47,15.03,9.37,2.86-4.97,.34-8.94-1.89-13.33,3.24-1.62,6.45-3.22,9.66-4.83l-.25,.2c1.66,.27,3.73,.34,3.11,2.82-.59,2.39-1.63,4.67-2.58,7.3,3.45,2.68,8.63,1.96,10.2,6.97,.4,1.26,4.32,1.42,6.64,2.09,.73,3.07,1.07,5.66-2.41,7.68-5.13,2.98-6.08,4.66-9,11.43,5.84,.39,7.7-5.14,12.03-7.38,1.29,.11,3.02,.09,4.66,.46,1.19,.27,2.26,1.08,3.59,1.75,.19,1.23,.82,2.57,.51,3.65-1.18,4.08-.54,7.29,2.62,10.47,5.36,5.41,8.36,12.96,15.24,17.05,.02,.34,0,.69,.08,1.01,.07,.25,.27,.47,.41,.7-.22-.51-.44-1.03-.66-1.54v-15.22c2.42-.92,4.68-1.77,6.62-2.51,1.57-9.64-8.08-14.19-9.03-22.29,5.75-3.08,6.22,3.58,10.16,4.56,2.1-3.24,5.23-5.7,9.25-6.52,0-9.87,.29-19.32-.11-28.73-.23-5.23-3.29-9.63-5.92-14.11-1.92-3.27-.27-5.65,3.77-7.09,.56-17.79,.57-35.8-.29-53.81-.82-17.2-1.56-34.41-2.58-51.6-1.05-17.61-2.56-35.2-3.55-52.82-.79-14.17-1.12-28.37-1.62-42.55-.09-2.54-.01-5.08-.01-8.09-3.85-.78-7.1-1.44-10.1-2.05-5.64,9.18-11.01,17.93-16.2,26.38-5.69,2.43-11.13,1.22-15.7-.25-5.76-1.85-10.63-1.03-15.02,1.28-3.51-1.68-.71-3.16-.97-4.73-2.03-2.37-8.27-1.67-6.06-7.61,.55-.42,1.1-.84,1.65-1.26-.49,.48-.99,.97-1.48,1.45-.97-.66-1.94-1.31-2.91-1.97,3.78-3.64,2.46-8.61,3.47-12.98,1.05-4.53,2.66-8.94,4.38-14.56,.62-.36,2.43-1.39,4.31-2.47-.35-3.55-4.29-6.66-.92-11.44,2.33,.47,5.03,1.02,7.71,1.57,3.78-2.49,3.59-5.78,1.49-8.99-1.37-2.1-3.61-3.61-5.12-5.63-.98-1.3-2.36-3.72-1.85-4.5,2.89-4.37,.73-8.09-.41-12.22-.4-1.45,1.63-3.56,2.43-5.13,1.45,0,2.4-.28,3.07,.04,8.21,3.94,12.35,3.4,17.89-2.8,2.26-2.53,4.2-5.35,6.78-8.67-1.72-2.29-3.71-4.4-4.98-6.89-.59-1.15-.28-3.56,.59-4.43,.95-.94,3.22-1.35,4.55-.9,1.45,.49,2.52,2.19,3.67,3.44,2.56,2.78,5.25,2.35,8.03,.46-2.84-15.73-3.23-12.17,6.66-20.91-1.21-8.99-2.45-18.29-3.73-27.83-5.12-1.69-9.4-1.6-13.71,1.52-2.36,1.7-5.29,2.77-8.11,3.63-2.46,.75-5.25-1.25-5.28-4.11-.08-6.42-3.58-11.02-7.6-15.24-3.33-3.5-5.25-7.46-7.2-12.53,5,1.54,8.86,2.86,12.79,3.87,1.14,.29,2.51-.28,3.66-.44,2.9-6.58,2.93-6.59-1.44-13.19-6.75,1.38-13.79,2.81-21.76,4.43,6.39-5.05,16.68-9.84,25.52-12,.29-1.27,.74-2.83,.98-4.43,1.17-7.81,2.28-15.63-8.48-17.77-2.43-8.16-7.81-1.39-11.67-2.3l.27,.18c1.36-6.09,2.5-11.99-5.14-15.16-3.13-1.3-3.96-4.49-4.08-7.56-.11-2.97,.32-5.95,.48-8.51-4.58-5.76-11.52-4.43-17-7.48-2.29,1.62-4.57,3.42-7.03,4.92-2.17,1.32-4.54,2.3-6.79,3.42-2.54,6.23-.93,15.09-10.95,15.63q-2.16-3.73-2.12-10.74c-2.15,.68-4.3,.86-5.81,1.94-3.5,2.49-6.89,4.8-11.59,4.29,.72-4.34,4.92-14.76,7.35-16.1,4.07-2.26,6.5-5.45,7.97-9.65,.14-.39,.37-.81,.68-1.08,2.36-2.13,7.46-2.06,6.57-6.69-.61-3.2-2.76-6.11-4.21-9.16-.49-1.02-.96-2.04-1.47-3.12-5.7,2.29-2.87,6.65-3.24,10.61-2.16,.74-4.5,1.54-6.79,2.33-2.11-1.5-4.12-2.93-6.83-4.86-2.73,3.56-5.22,6.81-7.68,10.01-.33-.24-9.28-2.83-10.62-2.9-.98-4.59-1.12-10.29-8.26-12.14-1.14,1.76-2.64,3.69-3.7,5.83-1.5,3.05-2.32,6.48-4.12,9.32-1.38,2.19-3.68,1.49-6.04-.74,.69-3.78,1.45-7.92,2.19-11.99-1.32-1.25-2.51-2.38-3.56-3.38,1.76-2.25,3.51-4.48,5.25-6.72l-.16,.18c2.02-.72,4.1-1.3,6.05-2.18,3.09-1.38,4.95-3.86,3.65-7.2-1.43-3.66-.96-6.33,1.67-9.29,.67-.75-1.12-3.67-2.07-6.44,2.34-1.91,4.85-4.09,7.51-6.07,3.08-2.29,6.41-4.25,9.45-6.59,9.42-7.23,13.23-17.16,13.7-28.73,.37-9.14-5.08-13.46-13.66-10.59-1.44,.48-2.85,1.07-5.76,2.17,1.74-5.48,2.98-9.39,4.51-14.21,2.78,1.18,4.6,1.95,6.49,2.75,2.46-2.87,4.94-5.78,9.26-2.87,1.06,.71,2.3,1.16,3.45,1.72,0,0,.06,.05,.06,.05,1.25,2.83,3.21,2.81,5.52,1.36,0,0-.17,.18-.17,.18,2.71-2.52,5.42-5.05,8.55-7.96,3.48,2.78,6.59,5.26,9.47,7.56,4.77-1.35,6.32-4.72,7.65-8.28,.65,.01,1.3,.02,1.95,.03-.65-.4-1.29-.8-1.94-1.2,.24-1.26,.26-2.61,.75-3.76,1.23-2.89,4.46-4.57,5.79-2.83,6.38,8.36,16.02,8.56,24.94,10.63,.37,.09,.81-.15,2.48-.51,2.12-3.57,4.7-7.92,7.28-12.26-.01,.13,.49-.27,.17,.16-2.96-3.2-2.87-6.83-1.65-10.7,.76-2.41,1.34-4.89,2.01-7.33l-.21,.09c4.52,1.63,8.92,.68,13.08,.09,2.22-4.31,.61-6.98-2.11-9.45-3.74-.52-7.48-1.06-11.22-1.53-2.44-.31-3.91,1.08-4.97,3.07l.13-.22c-9.54-1.39-18.35,2.27-30.11,5.26,3.53-3.51,5.08-5.05,7.38-7.34-4.63-.94-10.14,1.02-12.33-4.57-.18-.45-2.28-.18-3.49-.19-5.94-.06-11.89-.13-17.83-.14-2.97,0-6.05,.62-8.9,.06-3.71-.74-7.24-2.38-11.03-3.71-1.9-4.44-4.46-8.71,1.4-12.21l-.2-.17c2.28,.98,5.02,3.3,6.74,2.69,4.68-1.64,9.1-1.83,12.84,.04,1.61-1.12,2.67-1.46,2.96-2.13,3.33-7.75,11.78-9.17,17.4-14.07,1.18-1.03,3.33-1.76,4.8-1.47,5.1,.99,10.06,1.58,15.24,.35,1.23-.29,3.31,.99,4.33,2.14,3.82,4.3,8.15,4.05,13.3,1.43,3.16,4.86,6.45,9.67,13.26,7.92,1.88-8.87,1.3-16.44-2.45-29.07-6.07-.53-12.41-1.56-18.75-1.56-21.49,.02-43.04-.65-63.96,6-7.81,2.48-8.82,1.81-16.82-4.74,4.25-2.78,8.12,4.04,11.94,.81,3.14-2.66,5.18-6.57,8.05-9.6,6.24-6.59,14.16-8.23,22.41-5.39,3.92,1.34,7.25,1.17,11.14,.92,7.26-.47,14.33-.51,20.89-4.53,1.8-1.1,4.99-.28,7.46,.13,4.27,.7,7.41-.41,10.03-4.07,1.66-2.32,4.25-3.97,7.07-6.5-1.71-1.68-2.88-3.53-4.55-4.33-2.68-1.28-2.9-2.72-1.49-4.99,.42-.67,.97-2.06,.88-2.12-6.55-3.83-2.7-7.4-.15-11.51,1.66-2.69,2.28-6.09,2.98-9.26,.23-1.05-.42-2.76-1.26-3.48-2.57-2.22-5.2-5.32-8.21-5.88-6.27-1.16-12.8-1.15-19.23-1.12-2.74,.01-2.77,2.73-2.7,4.93l.17-.21c-5.84-1.1-11.68-2.2-18.53-3.49,3.15-5.16,5.69-9.32,8.42-13.79,6.96-.72,14.04-1.9,18.96-8.07,5.32-6.68,10.09-5,15.8-1.27,2.38,1.55,4.05,4.18,5.9,6.17,3.16-.89,3.25-3.26,3.21-5.29-.11-5.16-.39-10.32-.88-15.46-.79-8.19-.09-16.22,1.57-24.23,2.95,.23,2.67,2.2,2.5,3.78-.64,6,.39,11.21,6.06,13.64,1.15,5.66-5.7,8.52-3.04,14.39h11.95l-.2-.22c-.34,2.22-1.14,4.09-3.51,4.86-2.75,.9-5.49,1.82-8,2.65q-.41,8.05,5.12,12.11c-1.49,1.96-2.97,3.91-4.42,5.82,.64,.8,1.16,1.99,1.66,1.98,5.87-.05,11.67,1.77,17.67,.14,2.21-.6,4.95,.77,7.45,1.25l-.22-.19c-3.17,2.12-6.34,4.25-10.39,6.96,.16-.25-.55,.4-.69,1.17-.61,3.3-.37,6.96-1.77,9.84-1.21,2.49-4.32,4.01-6.42,6.12-1.8,1.82-3.47,3.79-4.99,5.85-1.82,2.46-.75,6.69,2.23,7.58,4.07,1.21,8.4,2.65,12.51,2.37,5.95-.4,12.23-1.3,17.61-3.7,9.57-4.26,19.98-5.21,29.63-8.82,3.33-1.24,5.73,.24,9.16,1.35-1.81,5.43-9.03,6.56-8.78,12.45,.26,6.01-7.27,7.01-7.46,12.36-10.13,2.28-21.02,.47-30.19,8.42,3.72,1.63,6.68,3.11,9.76,4.21,3.33,1.19,5.58-1.41,8.24-2.71,4.06-1.97,5.62-.52,5.57,4.93,0,.85-.23,1.7-.46,3.22-2.35,.96-5.02,2.06-7.64,3.13,.06,.95-.17,1.95,.22,2.53,3.67,5.42,6.72,10.71,5.75,17.93-.67,4.96,3.63,8.94,8.73,9.32,2.93,.22,5.97-.36,8.9-.89,2.5-.45,4.89-1.74,7.39-1.96,10.97-.97,10.97-.88,20.26-5.66,2.51,4.22,5.06,8.49,8,13.43,4.88-1.02,9.79-2.89,14.67-2.82,4.59,.06,9.1,2.53,13.75,3.22,2.33,.35,4.9-.9,7.38-1.43,2.11,1.98,1.81,4.19-.45,5.14-3.1,1.31-6.53,2.07-9.89,2.53-12.05,1.65-24.11,.97-36.11-.63-12.9-1.73-25.82-1.53-38.76-.84-2.53,.14-5.03,.75-8.11,1.23-.63,3.55-1.22,6.89-1.81,10.21-.94-.49-1.88-.97-.75-.39-1.26-.2-.24-.04,.78,.12-2.83,4.88-5.75,7.98-12.36,4.78-3.94-1.91-9.1-1.29-14.05-1.84-1.65,4.2-3.17,8.09-4.99,12.75,4.92,.07,6.58,3.88,9.41,6.43,2.68,2.42,6.91,3.11,10.97,4.77,7.08-5.05,14.46-10.07,21.55-15.49,4.45-3.4,8.41-2.79,12.36,.38,1.94-1.9,3.67-3.59,7.01-6.84-.29,3.56,.13,5.5-.63,6.3-2.34,2.46-5.17,4.47-7.76,6.7-3.23,2.78-6.25,5.82-9.65,8.35-4.01,2.99-8.33,5.57-13.07,8.7,1.3,2.07,2.6,4.15,3.87,6.17,1.91-.88,3.39-1.56,4.8-2.21,.85,.48,2.02,.73,2.21,1.31,2.87,8.66,11.46,11.1,17.65,16.05,2.74,2.19,6.36,1.55,9.53-.91,3.33-2.6,7.1-4.64,9.9-6.43,8.25,.13,8.15,11.1,17.5,9.69,4.95-3.74,11.87-5.29,19.32-3.73,.66,.14,.95,2.05,1.42,3.15-.14,.68-.29,1.36-.44,2.04,.08-.74,.15-1.49,.23-2.23q5.89,1.41,13.69-1.33c.37,1.63,.65,3.21,1.12,4.74,.36,1.16,.95,2.25,1.66,3.89,5.09-.91,10.02-1.79,14.98-2.68,.7,6.01-1.57,9.56-6.96,8.7-3.74-.6-6.24,.32-9.5,1.26-4.38,1.26-9.39,1.76-13.86,.98-14.19-2.45-28.09-.44-42.06,1.39-1.62,.21-3.79,.51-4.9-.32-5.45-4.06-11.56-2.03-18.09-2.49-1.79,3-3.71,6.22-5.64,9.45,0,0,.18-.16,.18-.16-4.64-.99-4.37-6-7.48-9.11-4.62-.67-9.47-1.21-14.4,1.63-1.75,1-4.6,.08-6.94,.04-1.42,9.92-7.05,3.75-11.29,2.98-.37-.07-.8,.18-1.72,.41-4.48,5.4-.32,11.19,.11,16.85,.45,5.95,1.26,11.88,1.94,18,6.66,3.62,13.37,3.05,20.14,1.53,1.2-.27,2.78-.8,3.33-1.73,4.59-7.65,14.75-8.87,18.82-18.1,4.15,5.03-1.83,7.7-.66,11.18,1.81,2.48,3.71,.48,5.6-.03,1.88,.8,3.76,1.6,5.64,2.4-.09,1.25-.28,2.51-.17,3.74,.02,.21,1.31,.35,2.03,.4,.1,0,.46-.85,.33-1.04-.73-1.02-1.57-1.95-2.38-2.92-1.87-.8-3.74-1.61-5.61-2.41,1.47-.85,2.94-1.7,4.89-2.84,4.41,3.29,8.76,6.54,13.01,9.72,8.32-2.61,9.51-11.45,16.4-15.93,.86,1.14,1.86,2.45,2.91,3.85,2.3-1.48,4.74-3.04,7.76-4.98,1.03,3.77,1.84,6.77,2.72,10.01,12.23-3.7,23.52-9.34,36.64-4.44-2.27,1.92-3.85,3.26-5.71,4.84,4.99,4.18,10.03-.82,14.78,.55-.6,5.92-1.63,7.34-5.6,7.4-12.03,.18-24.06,.31-36.09,.49-2.15,.03-4.35-.04-6.44,.4-5,1.06-9.66,3.21-15.17,2.21-4.5-.82-9.28-.04-13.93,.01-.43,0-.89-.25-1.28-.15-17.45,4.25-35.16,.97-52.72,1.83-2.11,.1-4.2,.52-6.61,.82,2.34,4.68,5.75,6.3,10.21,6.76,20.11,2.09,40.2,4.35,62.48,6.79-11.58,1.11-21.04,1.34-30.54-.02-9.37-1.34-18.75-2.72-28.16-3.75-3.38-.37-6.92-.02-10.3,.54-1.48,.24-3.26,1.55-3.94,2.87-.68,1.31-.15,3.24-.15,5.44,3.19,.44,6.05,.84,8.93,1.24,1.74,6.35-5.28,4.27-7.51,8.21,.24,3.73,.55,8.37,.85,13.07,1.79,1.31,3.51,2.56,5.97,4.36,4.22-.16,8.5-5.57,14.34-1.49-.15,1.65-.37,4.08-.61,6.76,1.83,.62,3.71,1.26,6.1,2.07-4.68,9.99-14.91,7.04-22.95,9.84-1.98,16.06-.09,31.53,2.64,46.5,4.52,2.82,4.93-3.32,8.53-2.51v7.69c10.74,.41,16.1-10.81,25.74-12.18,3,3.58,1.32,6.86,.15,9.88-1.53,3.92-3.58,7.63-5.21,11.02,3.57,6.46,10.64,5.01,15.13,9.35,.3,1.98,.68,4.49,1.06,7.06-1.13,1.01-1.93,2.16-3.01,2.6-4.37,1.77-8.8,3.36-13.25,4.92-2.64,.93-2.69,2.98-2.51,5.2l.16-.19c-1.23-.3-2.53-.44-3.69-.91q-8.04-3.3-18.34,.47c-.17,2.58-.91,5.55-.43,8.32,1.02,5.87,1.35,11.61,.45,17.55-.32,2.12,1.23,4.52,2.23,7.78,1.99-3.1,3.31-5.16,4.64-7.22,0,0-.24-.19-.24-.19,.71,3.7,1.41,7.39,2.25,11.79,10.53-.64,20.88-1.7,28.55-9.71,3.47,1.23,3.92,4.24,2.38,5.17-5.4,3.26-5.2,8.2-5.33,13.32-.05,2.04-.68,4.06-.99,5.77,3.26,3.2,6.42,3.65,9.98,2.48,1.62-.53,3.29-1.26,4.93-1.27,.9,0,1.96,1.18,2.63,2.07,.2,.27-.51,1.73-1.09,1.99-3.07,1.34-6.23,2.46-9.58,3.75,1.07,6.31,5.83,1.38,8.06,3.2,1.8,6.22,1.62,7.65-2.17,9.41-2.67,1.24-5.68,1.72-8.47,2.72-5.92,2.12-7.13,4.4-7.11,12.9,4.21,1.25,3.77-4.27,7.99-4.82,1.72,.93,4.42,2.12,6.82,3.75,3.51,2.39,7.4,2.91,11.08,1.52,7.16-2.69,15-4.02,20.78-9.67,2.78,1.45,2.41,3.55,.71,5.07-3.15,2.81-6.65,5.22-10.22,7.96,2.7,4.62,7.48-.36,10.35,2.54,0,.71,.32,1.74-.05,2.19-2.18,2.58-4.52,5.01-6.6,7.27,1.01,3.77,3.37,2.64,5.32,2.4,3.36-.41,4.63,1.54,5.08,4.39,.49,3.09-1.08,4.97-3.92,5.68-3.33,.83-6.88,.99-10.05,2.18-1.71,.64-2.85,2.83-4.25,4.32l.19-.19c-7.87,1.54-15.73,1.94-23.34-.71-4.72,3.27-9.15,6.34-13.58,9.4-.1-.64-.2-1.27-.27-1.7,.1,.37,.26,.95,.42,1.52,.57,3.93,.88,7.99,5.28,9.87l-.14-.19c-1.22,5.21-4.09,8.22-9.86,8.03-2.06-.07-4.15,.87-6.55,1.43-1.96,4.53-4.2,9.13-5.93,13.91-.84,2.32-1.24,5.03-.97,7.47,1.19,10.67,.77,21.41,2.85,32.11,1.79,9.19,1.1,18.86,1.6,28.31,.39,7.3,.91,14.59,1.38,21.88,.8,12.42,1.43,24.86,2.45,37.27,.56,6.82,1.96,13.57,2.66,20.38,.45,4.36,2.91,6.96,6.39,8.67,1.08,3.97-2.43,7.5,.18,11.47,1.99,3.02,2.79,6.83,4.34,10.86,2.5-1.48,4.91-2.9,8.44-4.99,.16,11.1-4.82,19.89-6.37,29.35-.61,.39-1.23,.79-1.84,1.19,.55-.46,1.11-.92,1.66-1.39,2.19,.38,4.37,.94,4.67,3.6,.82,7.24,1.54,14.49,2.26,21.74,.09,.85-.26,1.82,.03,2.56,3.12,7.91,1.83,15.86,.55,23.86-.19,1.16,.61,2.48,.94,3.71,6.38-.11,9.34-5.33,13.23-8.93,3.72-3.44,6.88-7.49,10.37-11.36,3.03,.65,2.4,2.93,1.81,4.96-.35,1.2-.99,2.51-1.9,3.33-6.22,5.59-6.18,11.85-2.36,18.69,.38,.69,.23,1.68,.41,3.19-4.73,7.98-7.01,17.62-13.03,25.85-3.82,5.22-5.17,12.56-4.19,20.52,4.91-2.08,9.8-3.46,14.06-.58,6.31-2.72,7.72-8.87,11.75-12.64l-.27,.11c3.49,.37,5.55,1.95,5.26,5.83-.69,9.38-1.33,18.76-1.87,28.14-.03,.58,.92,1.22,1.64,2.12,4.67-2.31,4.3-8.24,8.31-11.6h7.79c2.09-6.96,5.44-13.85,3.84-21.82,6.68-2.32,13.02-4.53,19.55-6.8,1.2,1.84,2.31,3.55,3.42,5.26,.84-.11,2.03,.09,2.4-.37,5.38-6.64,11.32-7.04,17.99-1.98,1.29,.98,2.91,1.54,4.7,2.45,4.66-7.4,6.59-14.98,7.12-23.15,.23-3.56-1.13-7.03,1.96-10.84,3.42-4.22-1.35-8.73-3.42-13.57,2.52-3.01,5.16-6.16,8.05-9.6,3.65,2.93,6.55,5.57,5.35,9.92-.93,3.39,.68,5.82,1.93,8.51-.05,1.36-.1,2.72-.15,4.08-.85,5.31-4.54,10.37-1.36,16.04,3.51,2.09,7.01,4.4,10.73,6.3,2.45,1.25,4.22,2.66,4.74,5.52,.49,2.67,2.23,3.3,4.71,2.34,2.26-.87,3.99-.04,5.75,1.54,1.84,1.64,3.94,.95,5.87-.29,2.66-1.72,5.36-3.39,8.39-5.3-.59-2.27-1.42-5.46-2.24-8.65l-.19,.18c1.71-3.3,3.42-6.61,5.49-10.6,4.14,2.6,7.47,4.7,8.27,10.12,.98,6.62,5.86,11.66,11.37,14.34,3.89,1.89,4.41,3.47,3.37,6.61-1.21,3.62-2.83,7.09-4.49,11.17-2.27,.6-5.05,1.34-7.74,2.05,.64,5.99,5.18,3.48,8.47,4.24,0,1.87,.58,3.87-.16,5.02-.77,1.19-2.95,1.38-4.25,2.36-1.23,.92-2.53,2.13-3.06,3.5-.56,1.44,2.75,2.57,5.29,1.65,2.43-.88,4.73-2.17,7.21-2.81,1.99-.51,4.86-1.24,6.15-.28,6.02,4.49,9.32,.54,12.87-3.37,.24-.27,.81-.25,2.14-.62,1.19,.72,2.85,1.96,4.7,2.78,1.83,.81,3.86,1.19,6.33,1.91-5.21,8.12-.8,15.19,.85,22.4,.93,4.08,2.39,8.05,3.92,13.05,3.38-.4,7.34-.88,13.06-1.56-3.03,3.68-4.84,5.89-6.95,8.45,.92,3.18,1.85,6.4,3.13,10.79-.78,1.93-2.04,5.02-3.27,8.06,1.12,.62,1.86,1.39,2.4,1.27,5.46-1.16,9.82-3.3,9.3-10.16-.1-1.38,.89-3.8,1.91-4.14,4.65-1.55,5.06-6.6,8.03-9.72,3.03,5.31,5.78,10.13,8.88,15.58-3.56,8.78-.13,16.74,4.77,24.55,1.77,2.83,2.59,6.26,3.85,9.42,1.37,3.43,4.13,3.64,6.69,.42,.79-.99,1.18-2.33,2.03-3.25,1.7-1.82,3.98-2.01,5.83-.59,3.37,2.58,6.46,5.52,9.54,8.2,3.93-1.43,3.52-4.01,1.96-6.32-2.43-3.59-5.55-6.75-3.13-11.68,.28-.57-.87-2.41-1.77-2.91-4.59-2.54-2.9-5.5-.83-8.57l-.18,.22c2.65-.15,4.66-1.24,6.76-3.07,4.74-4.12,5.42-3.8,9.69,1.51,.47,.58,1.33,.83,2.11,1.3,3.91-1.54,6.17-4.41,6.3-8.68,.13-4.23,.01-8.47-.05-12.7-.07-4.34,2.1-7.11,6.58-9.4,1.95,3.16,3.8,6.15,7.28,11.79-.29-5.55-1.28-8.36-.33-10.14,1.56-2.94-.17-4.58-.83-6.93-.84-2.99,.47-5.86,3.39-7.58,1.83-1.07,3.69-2.09,5.62-3.19-.2-2.72-.38-5.2-.57-7.84,3.12-2.1,6-5.4,9.35-5.98,6.57-1.13,13.57-1.73,20.26,3.57-.12,2.21-.27,5.09-.43,7.96-.78,.36-1.72,.56-2.29,1.13-.39,.39-.27,1.3-.38,1.98,.7-.27,1.69-.34,2.02-.85,.42-.64,.31-1.63,.43-2.47,11.21,4.97,12.63,9,6.88,19.66-.39,.73-1.14,1.27-2.27,2.5-3.92-.26-8.33-.55-14.9-.99,5.49,5.16,9.38,8.8,13.68,12.84,3.48-3.3,6.77-6.41,10.59-10.03,1.14,1.73,2.73,3.04,2.78,4.41,.12,3.44-.49,6.77,3.37,8.93,.84,.47,1.19,3.06,.76,4.35-1.35,4.1,1.19,9.54-4.3,12.38-.69,.36-.37,3.09-.19,4.67,.69,5.84,1.52,11.66,2.35,17.9-2.34,2.04-5.08,4.09-7.39,6.55-2.36,2.51-2.15,5.51,0,8.19,2.14,2.66,5.81,3.26,7.88,.93,2.55-2.88,4.67-6.13,7.07-9.14,2.65-3.32,5.43-6.55,8.15-9.81l-.19-.15Zm-477.62-666.85c-.54,1.77-2.74,3.33-.19,5.97,0-2.4,0-4.26,.02-6.1,.78-.06,1.58-.03,2.34-.2,.42-.09,.76-.52,1.13-.8-.38,.09-.76,.15-1.12,.28-.73,.26-1.45,.57-2.17,.86Zm793.74,697.96c-1.69,.3-3.37,.6-5.06,.9,.19,.58,.39,1.17,.58,1.75,1.43-.94,2.85-1.88,4.27-2.82,.58-.51,1.38-.93,1.67-1.57,.24-.52-.13-1.32-.23-2-.45,.47-1.12,.87-1.28,1.42-.2,.71,.01,1.54,.04,2.32Zm-1047.21-274.66c-3.02,.78-6.76,.4-8.14,5.5,4.43-.35,6.36-2.86,8.05-5.7l.59-.59-.5,.79Zm250.32-568.85c-.73-.76-1.45-1.52-2.18-2.28-.27,.52-.55,1.05-.82,1.57,1.09,.12,2.18,.24,3.27,.36-1.2,1.26-2.46,2.51-.18,4.61,1.72-.56,3.76-1.09,5.67-1.92,.6-.26,1.36-1.63,1.16-1.96-.57-.95-1.68-2.34-2.42-2.26-1.55,.18-3,1.2-4.49,1.87Zm29.54,16.19c10.56,5.03,21.74,4.83,33.69,3.79,1.14-2.56,2.45-5.48,3.92-8.78-5.05-2.97-9.22-5.7-14.55-5.73l.18,.17c-7.28-4.19-14.95-5.96-25.05-3.81,3.57,4.85,3.46,9.69,1.96,14.55-.8-.09-1.62-.3-2.41-.25-1.98,.14-4.2,.01-4.78,2.65-.07,.31,.2,.9,.47,1.04,2.23,1.12,3.8-.07,5.19-1.64,.53-.6,.92-1.33,1.37-2Zm-23.28,65.5c3.88-5.97,4.28-6.91,3.63-10.86-.42-2.54-.96-5.1-1.83-7.51-1.34-3.68-5.32-5.06-8.38-2.82-3.42,2.5-6.64,5.11-10.52,7.04-2.42,1.21-4.44,4.23-5.54,6.89-2.11,5.09-3.45,10.5-5.03,15.54,3.26,3.84,6.02,7.08,8.58,10.1,6.81,1.26,12.92,1.52,18.66-2.88,3.74-2.86,5.99-6.01,6.04-10.82-1.62-1.36-3.24-2.71-5.6-4.68Zm16.42-171.62c-1.11-.44-2.27-1.16-3.5-1.33-7.31-.99-9.48,1.02-10.13,7.88-.7,7.34,2.86,13.28,5.55,19.53,.35,.81,2.19,1.56,3.13,1.36,.97-.2,2.12-1.48,2.41-2.51,.54-1.93,.52-4.01,.69-5.64,1.51-.67,2.27-1.22,3.08-1.32,3.94-.51,8.5-.89,8.62-5.9,.1-4.24-4.29-4.89-7.52-5.76-3.92-1.06-1.63-4.08-2.33-6.3ZM30.87,238.47c-7.05,3.54-6.23,9.43-6.78,14.78,1.76,1.13,3.52,2.26,5.39,3.45-.45,5.17-1.99,10.45-1.01,15.19,.88,4.26,1.97,10.25,8.59,10.67,2.78-4.45,2.47-8.24-.1-12.28-4.6-7.25-3.06-13.77,2.87-19.65,1.35-1.34,2.25-3.14,3.54-5q-7.8-2.24-12.51-7.17Zm3435.09,992.69c-1.3-4.89-2.82-8.86-6.63-10.24-7.62-2.76-12.33-9.06-18.35-13.74-2.69-2.09-5.25-4.41-8.18-6.1-.74-.42-3.54,.91-3.87,1.93-1.25,3.82,.32,7.22,3.63,8.46,2.78,1.04,5.71,1.64,9.79,2.78,1.23,13.11,12.9,13.4,23.6,16.91ZM2206.56,293.42c2.43,5.02,6.5,5.69,10.85,4.69,5.09-1.17,5.49-5.77,5.87-10.09,4.42,1.17,8.02,.32,10.56-3.09,.84-1.13,.78-2.93,1.12-4.42-1.2-.25-2.59-1.03-3.56-.67-8.8,3.25-17.54,6.67-24.84,13.59Zm240.83,634.01c-3.98,5-7.07,8.88-9.64,12.1,1.13,4.43,2.49,7.65,2.65,10.94,.17,3.32-1.37,6.98,4.41,7.46,0-2.53-.13-4.89,.03-7.23,.2-2.88,.65-5.75,.99-8.6,2.93-1.49,5.83-2.97,9.76-4.98-2.79-3.29-4.89-5.77-8.21-9.69ZM2247.33,50.3c6.29,5.92,13.29,7.27,20.74,7.17,2.88-.04,3.62-1.38,3.54-6.45-3.24-.75-6.54-1.5-9.83-2.29-3.61-.86-1.96-6.9-6.32-6.87-2.73,2.83-5.26,5.45-8.14,8.44Zm1093.77,1216.81c.69-3.45-1.18-5.04-3.26-4.98-4.47,.14-7.08-2.11-9.5-5.38-.94-1.26-2.61-1.98-3.86-2.88-5.18,1.73-6.6,5.45-7.13,9.78,2.64,3.1,5.79,4.53,9.23,2.85,3.48-1.69,6.49-1.14,9.8,.1,1.45,.54,3.16,.37,4.73,.51Zm-401.86-156.75c-3.11-1.42-5.87-2.17-8-3.78-2.67-2.02-4.75-4.78-7.21-7.1-.46-.44-1.49-.27-2.44-.42-1.18,1.57-2.42,3.21-3.57,4.74,6.61,7.84,12.99,9.91,21.22,6.55ZM1183.49,581.42c-4.29,2.12-8.96,2.18-8.76,7.39,.19,5.08,4.12,6.66,7.77,8.22,2.29-2.1,4.05-3.72,6.04-5.54-1.55-3.09-3.03-6.04-5.05-10.07Zm863.15,203c-1.75,.61-3.66,1.3-5.58,1.95-1.92,.66-3.85,1.28-5.88,1.96-.63,3.26-1.15,5.97-1.77,9.15,6.03,.3,9.8-2.43,13.48-5.14,3.18-2.33,2.35-5-.25-7.93Zm148.52-541.69c3.13,5.87-1.05,12.73,7.59,15.58,1.45-3.36,2.99-6.26,3.94-9.35,.87-2.83-.67-5-3.4-5.77-1.86-.52-3.94-.27-8.13-.46Zm.98,58.32c-2.02,.39-3.32,.47-4.47,.92-1.57,.61-3.09,1.41-4.54,2.29-3.76,2.29-3.66,5.11,.34,7.69,1.02,.66,2.38,.79,3.28,1.07,1.97-1.7,3.61-3.41,5.53-4.69,3.24-2.16,1.36-4.27-.14-7.28ZM537.87,429.67c-2.96,3.8-3.41,4.82-2.3,5.45,3.25,1.83,6.59,3.51,9.99,5.05,.43,.2,1.87-.65,1.99-1.2,.24-1.09,.33-2.91-.29-3.37-3.01-2.19-6.27-4.02-9.38-5.93Zm1730.3-76.09c.97,1.25,1.57,2.33,2.45,3.08,.96,.81,2.13,1.43,3.29,1.94,3.31,1.45,5.6,.45,6.78-3.26,.46-1.45,.08-3.16,.08-5.77-4.53,1.74-8.99,.47-12.59,4.02Zm30.76,67.13c-1.33-3.04-2.37-5.61-3.63-8.07-.15-.3-1.69-.25-2.31,.12-2.45,1.45-2.64,4.28-.44,8.95,.47,.99,2.05,2.39,2.64,2.19,1.25-.42,2.19-1.78,3.74-3.19ZM8.66,233.88c.79,1.64,1.2,3.47,1.75,3.51,5.57,.41,8.78-1.58,12.86-8.12-2.19,.45-3.7,.58-5.07,1.1-1.52,.59-2.83,1.71-4.35,2.29-1.47,.56-3.08,.74-5.2,1.21Zm2286.16,159.32c1-6.56,1.55-10.47-.59-14.62q-4.63,4.98,.59,14.62Zm-252.52,372.17c-3.02-.19-6.2,2.93-6.38,6.37-.03,.63,.71,1.72,1.29,1.88,3.6,1.02,7.63-3.03,6.59-6.61-.19-.66-1.02-1.14-1.5-1.64Zm-51.32,65.22c.18-3.89-1.5-5.86-4.33-5.97-2.61-.1-3.59,1.58-3.63,3.92-.05,3.14,1.61,5.35,4.18,4.81,1.6-.34,2.91-2.09,3.79-2.77Zm248.31-495.32c-.93,0-1.42-.15-1.75,.02-2.85,1.46-2.81,4.09-2.39,6.66,.43,2.65,1.46,5.01,4.75,5.1,.41,.01,1.15-.12,1.18-.29,.11-.58,.19-1.56-.11-1.75-3-1.82-2.28-4.07-1.18-6.65,.36-.84-.32-2.13-.5-3.09Zm553.35,774.14q3.88-4.99-.49-9.39-5.49,5.47,.49,9.39ZM118.33,309.69c3.16,.73,4.98-.49,6.55-1.78,2.12-1.73,3.15-4.03,2.05-6.82-.13-.33-.6-.72-.94-.75-3.24-.24-4.29,1.95-5.15,4.55-.49,1.48-1.45,2.8-2.52,4.8Zm2151.37-44.27q10.48-1.88,13.62-6.79c-4.95,1.15-9.69,1-13.62,6.79Zm820.27,846.64c-.94-.76-2.26-2.67-3.84-2.91-2.55-.39-3.65,2.03-3.57,4.17,.05,1.35,1.07,3.26,2.21,3.85,2.21,1.15,4.84-1.12,5.19-5.1Zm-757.72-612.39c-3.37,2.54-6.75,5.08-11.19,8.43,7.3,.76,11.05-1.38,11.19-8.43Zm417.51,584.14v12.31c1.13-.22,3-.1,3.3-.73,1.96-4.1,2.2-8.01-3.3-11.58Zm-243.21-127.27c-2.15-1.44-3.32-2.74-4.69-3.01-2.13-.42-4.49,2.35-4.07,5.03,.18,1.14,2.59,3.06,2.95,2.85,1.89-1.11,3.45-2.78,5.81-4.87ZM911.71,566.99q7.29-1.96,5.64-7.93c-2.15,3.02-3.89,5.48-5.64,7.93Zm1458.22-2.1q4.96,3.23,9.02,.05-4.67-3.28-9.02-.05Zm-237.14,333.46c-.52,.43-1.05,.86-1.57,1.29,1.72,2.28,3.43,4.56,5.69,7.55,1.8-1.85,3.1-3.2,5.07-5.22-3.78-1.49-6.48-2.56-9.18-3.62Zm-112.22-131.41c4.9,2.42,6.03,2.53,8.05,.3,.72-.8,1.27-2.46,.93-3.37-.74-2.05-2.65-1.81-4.15-.85-1.64,1.05-3.05,2.46-4.83,3.93Zm1528.46,454.43c-2.77,3.18-4.32,4.97-6.38,7.34,2.23,1.42,3.88,2.48,6.38,4.08v-11.41ZM2263.69,278.4c-2.63,.84-4.89,1.46-7.03,2.36-.37,.15-.53,1.71-.21,2.31,.31,.59,1.4,1.16,2.08,1.09,2.8-.28,4.75-1.67,5.16-5.76Zm24.26-6.82c-4.74-5.38-4.76-5.41-9.69-2.57-.36,.21-.13,1.41-.2,2.57h9.9Zm-926.28,274.96q-5.5,4.61-1.75,8.93c1.92-2.86,3.89-5.36,1.75-8.93Zm254.63,180.83c1.04-1.76,2.14-2.96,2.38-4.3,.12-.67-1.24-2.17-2.11-2.32-2.03-.36-3.85,1.89-3.25,4.01,.24,.84,1.52,1.38,2.99,2.62Zm623.37,151.66c.41-.85,.82-1.71,1.23-2.56-1.68-.96-3.27-2.19-5.08-2.75-.76-.24-2.02,.87-2.9,1.56-.13,.1,.47,1.72,1.01,1.95,1.84,.77,3.81,1.22,5.73,1.79Zm-69.5-560.84c.83,1.26,1.14,2.22,1.76,2.53,.64,.32,1.91,.33,2.36-.1,1.21-1.14,2.44-2.46,3.05-3.95,.34-.83-.37-2.25-.95-3.2-.17-.28-1.78-.13-2.26,.32-1.48,1.38-2.74,3.01-3.96,4.4Zm86.71-48.07c-.33-.18-.64-.49-.98-.52-1.98-.18-4.51,1.96-3.96,3.45,.21,.58,1.55,1.36,1.78,1.2,1.22-.85,2.28-1.95,3.31-3.03,.16-.17-.09-.72-.16-1.1Zm1160.64,940.77c1.28-1.52,2.74-2.73,2.54-3.12-.61-1.24-1.75-2.32-2.92-3.1-.22-.15-2.32,1.54-2.19,2.03,.35,1.32,1.42,2.44,2.57,4.19ZM2291.92,111.11c5.13,1.34,8.63,1.36,11.96-3.17-4.97-1.69-7.65,1.37-11.96,3.17Zm468.62,961.7c-2.49,.68-3.88,.71-4.7,1.4-.73,.61-.82,1.97-1.2,2.99,1.12,.19,2.72,.91,3.26,.44,1.03-.91,1.44-2.5,2.64-4.83ZM164.76,432.21c-.4-1-.7-2.28-1.4-3.29-.3-.44-1.4-.4-2.13-.4-.17,0-.57,.73-.49,1.04,.31,1.24,.61,2.53,1.24,3.6,.24,.41,1.39,.36,2.11,.35,.19,0,.37-.68,.67-1.29ZM23.84,294.32c1.16,1.11,1.85,1.92,2.72,2.46,.15,.09,1.48-1,1.46-1.5-.05-.97-.67-1.92-1.06-2.88-.88,.54-1.75,1.08-3.12,1.91ZM1891.7,820.29c1.05,.81,2.19,1.68,3.33,2.55,.48-.66,1.29-1.27,1.37-1.97,.21-1.92-1.69-4.12-2.88-3.48-.63,.34-.89,1.36-1.82,2.91Zm411.88-692.29c-1.34-.93-2.33-2.14-3.14-2.03-.92,.13-1.69,1.43-2.52,2.22,.81,.82,1.62,2.28,2.43,2.28,.91,0,1.82-1.32,3.23-2.48ZM215.72,317.72c-.97-2.07-1.7-3.71-2.54-5.3-.12-.23-.95-.39-1.08-.24-.48,.51-1.21,1.27-1.1,1.76,.46,1.92,1.15,3.81,4.72,3.79ZM2284.9,72c.75,1.37,.96,2.42,1.49,2.63,1.85,.73,3.14-.2,3.58-2.01,.13-.56-.69-1.93-.88-1.9-1.38,.26-2.71,.79-4.19,1.28Zm222.29,870.2c-.09,3.66,1.2,5.99,3.24,8.83,.92-3.61,.07-6.05-3.24-8.83ZM711.71,505.59c1.82-1.65,3.24-2.94,4.67-4.24-1-.52-2.12-1.62-2.96-1.44-1.33,.29-2.62,1.3-3.58,2.32-.22,.23,.98,1.79,1.88,3.35Zm1619.76,83.65c-1.38-.96-2.19-1.8-3.15-2.06-.43-.12-1.74,1.05-1.66,1.42,.23,1.07,.96,2.04,1.5,3.04,.9-.65,1.8-1.3,3.31-2.4Zm-803.99,42.24c.26,.71,.35,1.64,.86,2.04,.29,.23,1.27-.41,1.93-.66-.43-.94-.86-1.87-1.29-2.81-.5,.47-1,.94-1.5,1.42Zm157.72,75.51c-1.7-1.78-2.97-3.1-4.7-4.9-.94,4.2,.34,5.52,4.7,4.9Zm1719.15,505.37c.8-.43,1.77-.96,2.75-1.49-.91-.41-1.83-1.17-2.72-1.13-.83,.04-1.62,.94-2.43,1.46,.69,.34,1.39,.67,2.4,1.16ZM1068.37,554.1c.65-1.06,1.47-1.92,1.3-2.2-.36-.61-1.19-1.19-1.88-1.26-.5-.05-1.08,.75-1.63,1.18,.71,.73,1.41,1.46,2.21,2.28Zm-440.82-162.51c.32-1.78,.59-3.23,.86-4.68-.72-.09-1.95-.47-2.08-.23-.56,1.02-.94,2.19-1.08,3.35-.04,.3,1.04,.74,2.3,1.57Zm302.27,159.48c-.23-.69-.45-1.38-.68-2.07-.91,.46-1.82,.92-2.73,1.39,.64,.79,1.29,1.58,1.93,2.37,.49-.56,.99-1.13,1.48-1.69Zm825.04,249.88c.54-1.27,1.13-2.55,1.55-3.88,.03-.11-1.63-1.01-1.77-.85-1.01,1.09-1.84,2.36-2.72,3.57,.71,.28,1.41,.56,2.95,1.17Zm1230.35,298.43c-.47-.88-.98-1.83-1.48-2.77-.58,.41-1.7,.95-1.64,1.22,.23,1.06,.84,2.03,1.31,3.04,.51-.42,1.02-.84,1.81-1.49Zm98.06-10.86c.49-1.18,1.09-2.23,1.31-3.36,.07-.38-1.08-1.42-1.19-1.35-.92,.55-1.73,1.29-2.58,1.98,.43,.48,.87,.96,2.46,2.73ZM364.15,417.28c-.67-.88-1.05-1.86-1.67-2.05-.52-.16-1.64,.47-1.92,1.03-.54,1.07-.67,2.34-.98,3.53,.77,.11,1.82,.58,2.26,.24,.95-.72,1.59-1.84,2.32-2.75Zm2000.21,481.45c.31,.21,.77,.69,.91,.6,1.21-.69,2.39-1.46,3.52-2.29,.09-.07-.22-.7-.34-1.06-1.25,.55-2.52,1.05-3.74,1.67-.24,.12-.24,.7-.36,1.07Zm-33.6-318.45c-.44,.56-.89,1.11-1.33,1.67,.61,.4,1.22,1.09,1.84,1.11,.42,.01,.87-.93,1.3-1.44-.6-.45-1.2-.89-1.81-1.34Zm-20.18-221.42c-.98,.7-1.57,1.12-2.17,1.55,.84,.55,1.62,1.33,2.54,1.54,.48,.11,1.19-.76,1.8-1.19-.75-.66-1.5-1.31-2.17-1.9Zm-101.57-73.32c-.83-.69-1.62-1.62-1.87-1.5-1.02,.52-1.87,1.37-2.79,2.09,.55,.44,1.27,1.35,1.62,1.23,1.05-.37,1.97-1.14,3.04-1.82Zm-1110.62,295.05c.37-.18,1.06-.43,1.04-.52-.16-.69-.45-1.34-.7-2-.36,.16-1.03,.4-1.01,.48,.15,.7,.43,1.36,.67,2.04ZM2288.09,132.43c.76-.82,1.54-1.66,2.32-2.51-.51-.37-1.02-.73-1.54-1.1-.64,.93-1.28,1.85-1.87,2.8-.02,.03,.56,.42,1.08,.81Zm714.43,966.84c-1.04-.47-1.92-.93-2.85-1.24-.17-.06-.79,.68-.77,.7,.63,.8,1.32,1.57,2,2.34,.44-.48,.88-.97,1.63-1.8Zm-1233.69-322.29c.62-.93,1.45-1.78,1.75-2.78,.13-.45-.66-1.51-1.26-1.77-1.37-.6-3.25,1.46-2.62,2.89,.27,.62,1.18,.95,2.14,1.66ZM763.24,464.72c-.73-1.01-1.06-1.96-1.56-2.06-.99-.19-2.07,.08-3.12,.15,.4,.57,.7,1.47,1.22,1.64,.96,.31,2.06,.19,3.46,.27Zm2109.41,573.49c-.88,.92-1.81,1.66-2.35,2.61-.19,.34,.6,1.22,.94,1.85,.83-.7,1.84-1.29,2.42-2.15,.22-.33-.54-1.31-1.01-2.31ZM47.49,259.4c-.81,1.02-1.61,1.59-1.6,2.14,.01,.7,.69,1.39,1.08,2.08,.54-.33,1.55-.71,1.52-.97-.12-1-.57-1.96-1-3.25Zm2337.19,37.11c.2,.54,.39,1.07,.59,1.61,1.34-.43,2.69-.87,4.03-1.3-.24-.63-.47-1.27-.71-1.9-1.3,.53-2.61,1.07-3.91,1.6Zm31.91-39.85c0-.27,0-.53,0-.8h-4.49c0,.27,0,.53,0,.8h4.49Zm-440.65,562.52c-.86-1.15-1.72-2.31-2.59-3.47-.34,.68-1.06,1.45-.93,2.03,.23,1.07,.96,2.04,1.49,3.05,.52-.41,1.03-.82,2.03-1.61Zm319.75-584.26c.03,.33,.06,.66,.09,.99,.6-.24,1.23-.43,1.77-.77,.14-.09-.02-.64-.04-.98-.6,.25-1.21,.5-1.81,.75ZM274.42,405.85c-.15-.71-.3-1.48-.45-2.24-.53,.41-1.5,.84-1.48,1.22,.03,.65,.69,1.28,1.08,1.91,.28-.29,.56-.59,.86-.9Zm2066.14-107.56c.34-.22,.69-.44,1.03-.66-.69-.28-1.36-.66-2.08-.81-.28-.06-.67,.4-1.01,.62,.69,.28,1.37,.57,2.06,.85Zm-1536.27,239.54c.1-.39,.2-.77,.3-1.16-.69-.09-1.38-.23-2.07-.22-.09,0-.18,.72-.27,1.1,.68,.1,1.36,.19,2.04,.28ZM263.98,391.69c-.12-.36-.24-.71-.36-1.07-.65,.37-1.34,.71-1.93,1.16-.1,.08,.22,.69,.34,1.06,.65-.38,1.3-.77,1.95-1.15Zm732.86,82.48c-.17,.36-.34,.73-.51,1.09l1.36,.54c.05-.4,.25-.86,.12-1.18-.11-.25-.63-.31-.97-.46Zm1249.49,381.12c-.23-.69-.45-1.38-.68-2.07-.63,.35-1.56,.57-1.79,1.1-.19,.43,.46,1.23,.73,1.86,.58-.3,1.15-.59,1.73-.89Zm22.94-632.98c-.06-.34-.11-.68-.17-1.03-.63,.25-1.29,.46-1.87,.8-.12,.07,.06,.64,.1,.98,.64-.25,1.29-.5,1.93-.75Zm934.06,926.97c-.3-.22-.6-.44-.9-.66-.34,.56-.67,1.12-1.01,1.68,.32,.19,.88,.58,.91,.54,.38-.48,.69-1.02,1.01-1.55Zm-1399.48-411.82c-.36-.61-.68-1.25-1.11-1.8-.07-.09-.64,.21-.97,.33,.36,.62,.68,1.26,1.11,1.83,.06,.08,.63-.23,.97-.37Zm425.34-470.78c.37,.41,.73,.81,1.1,1.22,.17-.32,.41-.62,.48-.96,.06-.32-.06-.69-.1-1.03-.49,.26-.98,.51-1.47,.77Zm1188.38,921.52c.48,.4,.97,.8,1.45,1.2,.21-.28,.65-.78,.61-.82-.43-.45-.94-.84-1.42-1.24-.21,.28-.42,.57-.64,.86ZM124.34,276.85c-.32-.23-.63-.47-.95-.7-.2,.32-.41,.64-.61,.97,.52,.3,1.04,.61,1.56,.91,0-.39,0-.79,0-1.18Zm3329.62,976.97c.27-.62,.54-1.25,.81-1.87-.66,.01-1.34-.06-1.97,.09-.22,.05-.5,.9-.45,.93,.5,.34,1.06,.59,1.62,.86ZM852.75,436.28c-.32,.68-.65,1.36-.9,2.06-.02,.05,.8,.58,.98,.48,.61-.38,1.11-.94,1.66-1.43-.58-.37-1.15-.75-1.74-1.11Zm-278.72,.16c.45,.37,.9,.74,1.36,1.11,.2-.28,.62-.75,.57-.8-.4-.42-.87-.77-1.33-1.15-.2,.28-.4,.55-.6,.83Zm2962.67,818.43c.03,.38,.05,.76,.08,1.14,.56-.21,1.12-.43,1.69-.64-.23-.3-.41-.77-.69-.85-.31-.08-.71,.22-1.07,.35ZM1399.49,589.16v-1.06c-.51,.23-1.02,.46-1.53,.7,.18,.3,.35,.81,.56,.84,.3,.03,.65-.3,.97-.47Zm1938.53,650.87l-.64,.43,.73,.39-.09-.82Zm-51.39-21.52c.33,.2,.66,.4,.99,.61,.15-.34,.51-.75,.41-.99-.11-.27-.61-.38-.95-.56-.15,.31-.3,.62-.45,.94ZM1266.35,586.81c.27,.15,.55,.3,.82,.45,.12-.27,.4-.61,.32-.8-.1-.23-.5-.32-.77-.47l-.38,.82Zm2022.94,611.6c-.36,.02-.72,.04-1.08,.06,.22,.51,.44,1.02,.67,1.54,.3-.2,.79-.36,.84-.61,.06-.29-.27-.66-.43-.99ZM1541.57,629.21c.25-.1,.8-.18,.84-.37,.07-.31-.2-.69-.33-1.03-.44,.22-.89,.44-1.33,.66,.26,.24,.53,.48,.81,.74Zm797.32-458.32c.37,.03,.74,.1,1.09,.04,.08-.02,.08-.51,.11-.78-.37,0-.74-.06-1.09,.02-.09,.02-.08,.47-.11,.73Zm-869.46,489.41c.07-.36,.13-.71,.2-1.05-.52,.01-1.05,.02-1.57,.03,.13,.34,.18,.78,.42,.99,.19,.16,.63,.03,.95,.03Zm1326.43,463.06c.35-.14,.7-.27,1.05-.41-.48-.21-.95-.42-1.43-.64,.13,.35,.25,.7,.38,1.04Zm-1115.28-444.63c.15-.34,.46-.73,.39-1.02-.07-.24-.58-.37-.89-.55-.2,.56-.41,1.12-.61,1.68,.37-.04,.75-.08,1.12-.12Zm1450.03,439.46c-.32,.12-.64,.24-.96,.36,.13,.33,.18,.84,.41,.93,.24,.1,.64-.2,.98-.32-.14-.32-.28-.65-.42-.97ZM1272.16,577c-.39-.03-.81-.14-1.17-.04-.12,.04-.09,.62-.12,.95,.39,.02,.81,.11,1.17,0,.12-.04,.08-.59,.12-.91Zm1022.65-357.67c.29-.22,.84-.61,.82-.64-.35-.56-.75-1.1-1.2-1.58-.04-.04-.57,.39-.87,.6,.42,.54,.84,1.08,1.26,1.62Zm8.89-1.71c-.7-.42-1.08-.64-1.46-.87,.01,.29-.06,.79,.05,.83,.3,.12,.67,.04,1.41,.04Zm346.63,861.61c.03,.33,.06,.66,.09,.99,.49-.17,.98-.33,1.47-.5-.2-.26-.36-.67-.62-.75-.26-.08-.63,.16-.95,.26Zm-619.81-334.05l-.41-.6-.37,.72,.78-.12Zm1077.25,326.87c-.29-.17-.58-.34-.86-.51-.14,.28-.29,.55-.43,.83,.29,.15,.58,.4,.88,.41,.13,0,.28-.47,.42-.73Zm-437.21-35.08h1.12l-.71-1.47c-.3,.21-.74,.35-.86,.64-.08,.18,.3,.56,.46,.83ZM787.88,551.07l.8,.13-.14-.75-.66,.62Zm2076.14,464.54c-.3,.11-.71,.13-.86,.34-.11,.16,.12,.55,.19,.84,.3-.11,.69-.15,.85-.37,.11-.14-.11-.54-.19-.82Zm-480.25-55.37c.35-.19,.84-.3,1-.6,.14-.26-.1-.72-.18-1.09-.54,.31-1.08,.62-1.62,.93,.26,.25,.53,.5,.79,.75Zm-125.2-626.57c-.34,.02-.79-.09-1,.08-.21,.17-.17,.64-.25,.97,.56-.03,1.12-.05,1.68-.08-.15-.33-.29-.65-.44-.98Zm-386.52,466.41l.18-1.01-.94,.39,.75,.62ZM543.22,410.13c-.44-.56-.79-1.11-1.26-1.52-.1-.09-.78,.22-.9,.48-.12,.26,.08,.96,.23,.99,.6,.12,1.25,.05,1.93,.05Zm-281.99,6.13c-.39,0-.79-.06-1.14,.04-.11,.03-.08,.52-.12,.8,.38,.02,.78,.09,1.14,.01,.09-.02,.08-.52,.13-.85Zm559.12,101.23c-.11-.34-.23-.67-.34-1.01-.33,.12-.81,.16-.94,.39-.11,.2,.1,.82,.31,.9,.25,.1,.65-.17,.98-.28Zm1481.8-22.07c-.6-.17-1.01-.28-1.42-.4,.1,.29,.21,.59,.31,.88,.3-.13,.59-.26,1.11-.49Zm-1594.81-19.91l.56,.81,.52-.93-1.07,.13Zm1202.2,366.47c0,.3-.12,.74,.03,.87,.22,.19,.63,.14,.96,.2,0-.48,0-.96,0-1.43-.32,.12-.65,.24-.99,.36Zm261.44-7.73l-.79-.65c-.22,.45-.43,.9-.65,1.35,.33,.07,.74,.3,.97,.18,.24-.12,.32-.57,.47-.88ZM714.26,468.06l.34-.82c-.25-.09-.62-.33-.72-.24-.2,.17-.25,.52-.36,.79,.24,.09,.49,.18,.73,.28Zm510.6,60.82l-.46,.7,.73,.13-.27-.82Zm1040.57-156.1l-.67-.49-.15,.71,.82-.22Zm-1043.96,162.89l-.88,.4,.85,.44,.03-.85Zm850.45,252.69l.34,.8,.36-.79h-.7Zm-89.86-9.57c-.1-.33-.12-.74-.34-.95-.11-.11-.57,.12-.87,.19,.1,.33,.12,.74,.34,.95,.11,.11,.57-.12,.87-.19Zm-686.22-238.13l-.09,.88,.97-.35-.88-.54Zm999.8-312.96c.28,.11,.56,.29,.85,.29,.09,0,.19-.45,.29-.7-.28-.11-.56-.28-.84-.28-.1,0-.19,.45-.29,.69Zm-760.27,428.48l.83,.12-.3-.93-.53,.81Zm785.66-499.47l.49-.72-.78-.12,.29,.84Zm-968.25,407.44l-.08,.81,.9-.33-.82-.48Z"/>
  </g>
</svg>