<?xml version="1.0" encoding="UTF-8"?>
<svg id="Layer_2" data-name="Layer 2" xmlns="http://www.w3.org/2000/svg" viewBox="0 0 232.1 332.19">
  <defs>
    <style>
      .cls-1, .cls-2 {
        fill: #e9eae9;
      }

      .cls-2 {
        font-family: Buckin-BoldDemo, Buckin;
        font-size: 98.36px;
        font-weight: 700;
      }
    </style>
  </defs>
  <g id="Layer_1-2" data-name="Layer 1">
    <g>
      <path class="cls-1" d="M71.59,39.09c-3.61-1.18-6.61-3.16-8.57-6.5-1.09-1.86-1.62-3.92-2.03-6.01-1.18-6.1-2.4-10.39-.68-16.37,1.7-5.94,5.75-9.01,11.67-9.91,1.39-.21,2.82-.31,4.23-.3,4.91,.06,9.83,.09,14.73,.32,3.89,.18,30.47,1.21,55.97,1.16,6.69-.01,13.36,.27,20.03,.75,4.05,.29,7.63,4.01,7.82,8.06,.2,4.29,.42,8.58,.04,12.87-.29,3.26-.75,6.49-1.73,9.64-1.27,4.04-4.02,6.31-8.13,7.09-3.11,.59-6.25,.71-9.38,.73-31.62-.97-81.35-.67-83.96-1.52Z"/>
      <path class="cls-1" d="M202.49,131.2c-1.71-10.24-5.15-19.83-10.5-28.74-4.44-7.39-10.19-13.69-16.54-19.46-16.88-15.34-36.76-23.02-59.56-23.07-3.93,0-7.87,.26-11.8,.49-4.38,.26-8.7,.95-12.96,2-11.65,2.87-22.08,8.23-31.56,15.52-8.54,6.57-15.85,14.24-21.43,23.51-7.7,12.79-11.2,26.75-11.69,41.55-.19,5.58,.15,11.14,.68,16.7,.57,6.01,2.15,11.73,4.66,17.2,2.99,6.49,6.81,12.51,10.82,18.4,3.3,4.85,7.18,9.2,11.6,13.08,9.52,8.37,20.17,14.77,32.28,18.65,9.75,3.12,19.79,4.17,30.82,4.34,.99-.04,2.85-.12,4.71-.2,5.36-.23,10.65-.99,15.85-2.31,8.34-2.12,16.09-5.64,23.52-9.91,10.66-6.12,19.76-14.02,26.82-24.15,9.71-13.94,14.24-29.62,15.24-46.41,.34-5.75-.02-11.5-.97-17.2Zm-51.22,41.99c-5.68,8.23-13.2,14.09-22.88,17-4.48,1.35-9.08,1.89-13.74,1.97-.71,.01-1.42,0-1.92,0-5.99,.24-11.57-.67-16.86-3.12-3.03-1.4-5.83-3.19-8.31-5.41-7.08-6.35-12.4-13.95-15.52-22.95-3.52-10.16-3.21-20.36,.43-30.43,3.88-10.75,10.57-19.35,20.21-25.56,7.46-4.81,15.62-6.92,24.5-6.14,11.43,1,21.25,5.48,29.25,13.72,6.71,6.91,10.95,15.17,12.61,24.68,2.3,13.11-.18,25.27-7.76,36.26Z"/>
      <path class="cls-1" d="M195.95,264.78c-.99-.32-1.81-.87-2.35-1.78-.3-.51-.44-1.07-.55-1.64-.32-1.67-.66-2.85-.19-4.48,.47-1.63,1.58-2.47,3.2-2.71,.38-.06,.77-.09,1.16-.08,1.35,.02,2.69,.02,4.03,.09,1.06,.05,8.34,.33,15.33,.32,1.83,0,3.66,.07,5.48,.21,1.11,.08,2.09,1.1,2.14,2.21,.06,1.17,.11,2.35,.01,3.52-.08,.89-.2,1.78-.48,2.64-.35,1.11-1.1,1.73-2.23,1.94-.85,.16-1.71,.19-2.57,.2-8.66-.26-22.28-.18-22.99-.42Z"/>
      <path class="cls-1" d="M231.8,290c-.47-2.8-1.41-5.43-2.87-7.87-1.22-2.03-2.79-3.75-4.53-5.33-4.62-4.2-10.07-6.3-16.31-6.32-1.08,0-2.16,.07-3.23,.13-1.2,.07-2.38,.26-3.55,.55-3.19,.79-6.05,2.25-8.64,4.25-2.34,1.8-4.34,3.9-5.87,6.44-2.11,3.5-3.07,7.33-3.2,11.38-.05,1.53,.04,3.05,.19,4.57,.16,1.65,.59,3.21,1.28,4.71,.82,1.78,1.86,3.43,2.96,5.04,.9,1.33,1.97,2.52,3.18,3.58,2.61,2.29,5.52,4.05,8.84,5.11,2.67,.85,5.42,1.14,8.44,1.19,.27-.01,.78-.03,1.29-.05,1.47-.06,2.92-.27,4.34-.63,2.28-.58,4.41-1.55,6.44-2.71,2.92-1.68,5.41-3.84,7.34-6.61,2.66-3.82,3.9-8.11,4.17-12.71,.09-1.58,0-3.15-.27-4.71Zm-14.03,11.5c-1.56,2.25-3.62,3.86-6.27,4.66-1.23,.37-2.49,.52-3.76,.54-.19,0-.39,0-.53,0-1.64,.07-3.17-.18-4.62-.85-.83-.38-1.6-.87-2.28-1.48-1.94-1.74-3.4-3.82-4.25-6.29-.97-2.78-.88-5.58,.12-8.34,1.06-2.94,2.9-5.3,5.53-7,2.04-1.32,4.28-1.9,6.71-1.68,3.13,.27,5.82,1.5,8.01,3.76,1.84,1.89,3,4.16,3.45,6.76,.63,3.59-.05,6.92-2.13,9.93Z"/>
      <text class="cls-2" transform="translate(0 316.06)"><tspan x="0" y="0">nieb</tspan></text>
    </g>
  </g>
</svg>