<?xml version="1.0" encoding="UTF-8"?>
<svg id="Layer_2" data-name="Layer 2" xmlns="http://www.w3.org/2000/svg" viewBox="0 0 207.07 214.91">
  <defs>
    <style>
      .cls-1 {
        fill: #014760;
      }

      .cls-2 {
        fill: #e5b256;
      }

      .cls-3 {
        fill: #9a353b;
      }

      .cls-4 {
        fill: #c35c4d;
      }

      .cls-5 {
        fill: #056180;
      }
    </style>
  </defs>
  <g id="ilustracje">
    <path class="cls-2" d="M138.39,60.4c-1.92,1.13-3.8,2.32-5.76,3.39-9.87,5.36-19.61,5.04-29.28-.61-5.98-3.5-11.02-8.09-15.73-13.1-.83-.89-.53-1.33,.13-2.03,3.36-3.57,6.76-7.09,11.07-9.55,1.18-.67,1.25-1.25,.53-2.41-5.46-8.67-7.07-18.22-6.36-28.3,.08-1.14,.42-1.5,1.59-1.58,10.22-.66,19.9,.97,28.67,6.58,.67,.43,1.16,.69,1.67-.22,2.65-4.69,6.47-8.39,10.35-12.03,.14-.13,.18-.36,.27-.54,.14,0,.28,0,.42,0,5.02,4.68,9.67,9.64,13.35,15.52,7.15,11.41,6.54,22.55-.65,33.63-.49,.75-1.17,1.4-1.36,2.33-2.18,3.77-5.15,6.74-8.91,8.93Z"/>
    <path class="cls-5" d="M6.69,208.98c-9.86-10.13-8.69-24.96,2.63-33.12,.9-.65,1.09-1.1,.6-2.15-4.61-9.96-1.76-20.58,7.25-27.04,.9-.64,1.07-1.1,.6-2.17-4.6-10.46-1.85-20.49,7.42-27.13,1-.71,.92-1.22,.48-2.19-4.4-9.76-2.12-19.74,6.33-26.23,6.7-5.15,14.17-5.83,21.9-2.4,1.27,.56,1.83,.49,2.64-.68,5.97-8.56,17.07-11.48,26.6-7.07,.89,.41,1.47,.68,2.19-.43,8.9-13.8,30.44-12.73,37.52,3.34,.11,.25,.28,.47,.42,.71,1.69,2.35,1.61,5.12,1.85,7.81-.25,1.43-1.38,2.22-2.31,3.15-26.03,26.05-52.07,52.08-78.11,78.12-11.91,11.91-23.81,23.82-35.73,35.72-.68,.68-1.23,1.55-2.27,1.77Z"/>
    <path class="cls-1" d="M6.69,208.98c.6-.67,1.18-1.37,1.82-2.01,38.14-38.15,76.28-76.29,114.42-114.44,.59-.59,1.12-1.24,1.68-1.86,.17-.16,.36-.27,.59-.34,2.32,.27,4.78-.06,6.78,1.57,4.82,2.03,8.76,5.09,11.4,9.69,5.42,9.44,2.68,21.9-6.28,28.08-1.23,.85-1.35,1.48-.74,2.78,4.37,9.3,1.59,20.2-6.73,26.26-1.15,.84-1.27,1.41-.67,2.65,3.62,7.55,3.02,14.93-1.7,21.75-4.73,6.83-11.6,9.57-19.78,9-2.85-.2-5.6-1.09-8.08-2.6-.86-.52-1.37-.55-1.98,.4-5.41,8.51-17.47,12.12-27.17,7.24-1-.5-1.44-.28-2,.59-5.6,8.68-17.7,12.05-27.15,7.22-1.32-.67-1.61,.07-2.19,.88-7.4,10.44-22.29,12.12-31.84,3.61-.15-.13-.25-.32-.38-.48Z"/>
    <path class="cls-4" d="M179.18,36.04c-.54,.63-1.05,1.29-1.64,1.88-16.93,16.95-33.88,33.89-50.81,50.83-.59,.59-1.11,1.24-1.66,1.86-.15,.02-.3,.03-.45,.05-.05-2.82-.69-5.54-1.35-8.26,5.82-5.97,11.63-11.94,17.49-17.88,.8-.81,.72-1.32-.09-1.99-.8-.67-1.52-1.42-2.28-2.14,3.2-2.75,6.16-5.73,8.91-8.93,3.19,2.99,3.17,2.97,6.25-.16,3.38-3.43,6.44-7.19,10.27-10.15,4.51-3.48,9.62-5.28,15.36-5.13Z"/>
    <path class="cls-3" d="M206.43,83.27c-1.8-1.66-3.42-3.51-5.24-5.14-1.08-.97-.98-1.56-.12-2.68,4.79-6.21,6.21-13.14,3.86-20.68-2.44-7.83-8.05-12.9-15.08-16.54-3.3-1.71-6.9-2.53-10.68-2.19-.58,.49-1.27,.82-1.82,1.38-17.08,17.1-34.18,34.19-51.26,51.29-.52,.52-1.24,.98-1.03,1.91,2.3,.43,4.61,.86,6.91,1.28,5.14-5.34,10.26-10.69,15.41-16.01,7.39-7.64,14.79-15.27,22.2-22.89,4.04-4.15,8.81-5.45,14.31-3.47,2.99,1.08,5.1,3.38,7.11,5.71,2.55,2.95,2.97,7.33,1.13,10.76-.69,1.28-1.35,2.07-2.61,.45-.85-1.09-1.94-2.01-2.94-2.98-4.06-3.93-8.79-5.66-14.49-4.73-6.22,1.01-12.14,7.19-12.61,13.38-.6,7.91,5.3,16.85,12.86,19.37,6.61,2.2,12.37,.68,17.18-4.29,1.06-1.09,1.67-1.29,2.76-.05,1.61,1.84,3.47,3.45,5.14,5.24,.77,.83,1.24,.77,1.99-.02,2.28-2.37,4.6-4.69,6.98-6.96,.84-.8,.95-1.3,.04-2.14Zm-25.15-5.84c-1.44,2.04-3.38,2.82-4.9,1.87-1.54-.97-2.85-2.25-3.8-3.8-1.18-1.92,.24-4.23,2.49-4.2,.99-.06,1.73,.47,2.39,1.09,.91,.86,1.91,1.67,2.62,2.68,.49,.7,2.24,.89,1.21,2.36Z"/>
  </g>
</svg>