<?xml version="1.0" encoding="UTF-8"?>
<svg id="Layer_2" data-name="Layer 2" xmlns="http://www.w3.org/2000/svg" viewBox="0 0 2232.49 435.09">
  <defs>
    <style>
      .cls-1 {
        fill: #f6f4ef;
      }

      .cls-2 {
        fill: #e5b256;
      }

      .cls-3 {
        fill: #93312e;
      }

      .cls-4 {
        fill: #9a353b;
      }

      .cls-5 {
        fill: #c35c4d;
      }

      .cls-6 {
        fill: #b3bdbe;
      }

      .cls-7 {
        fill: #b79546;
      }

      .cls-8 {
        fill: #bb9442;
      }

      .cls-9 {
        fill: #b7bdc0;
      }

      .cls-10 {
        fill: #937b3b;
      }

      .cls-11 {
        fill: #d8dddb;
      }

      .cls-12 {
        fill: #c65d48;
      }

      .cls-13 {
        fill: #1f3447;
      }

      .cls-14 {
        fill: #3f292a;
      }

      .cls-15 {
        fill: #2b3990;
      }

      .cls-16 {
        fill: #845736;
      }
    </style>
  </defs>
  <g id="ilustracje">
    <path class="cls-11" d="M771.8,311.6c-79.1,0-80.85-78.59-124.8-78.59h-150.15c43.95,0,45.7,78.59,124.8,78.59,38.25,0,117.48,123.4,117.48,123.4h150.15s-79.23-123.4-117.48-123.4Z"/>
    <path class="cls-9" d="M621.65,311.6c-79.1,0-80.85-78.59-124.8-78.59h-168.25c-10.84,1.28-26.48,6.4-37.07,23.97-17.67,29.33-44.55,60.27-88.46,60.27s-50.46,44.92-76.7,81.34l-26.24,36.42H739.13s-79.23-123.4-117.48-123.4Z"/>
    <path class="cls-11" d="M2115.01,311.6c-79.1,0-80.85-78.59-124.8-78.59h-150.15c43.95,0,45.7,78.59,124.8,78.59,38.25,0,117.48,123.4,117.48,123.4h150.15s-79.23-123.4-117.48-123.4Z"/>
    <path class="cls-10" d="M1148.37,348.04c-68.31,0-69.81-55.41-107.77-55.41h-129.65c37.95,0,39.46,55.41,107.77,55.41,33.03,0,101.44,87,101.44,87h129.65s-68.41-87-101.44-87Z"/>
    <path class="cls-8" d="M1018.72,348.04c-68.31,0-69.81-55.41-107.77-55.41h-145.28c-9.36,.9-22.87,4.51-32.01,16.9-15.26,20.68-38.47,42.49-76.39,42.49s-43.58,31.67-66.23,57.35l-22.66,25.68h551.78s-68.41-87-101.44-87Z"/>
    <path class="cls-9" d="M1964.86,311.6c-79.1,0-80.85-78.59-124.8-78.59h-168.25c-10.84,1.28-26.48,6.4-37.07,23.97-17.67,29.33-44.55,60.27-88.46,60.27s-50.46,44.92-76.7,81.34l-26.24,36.42h639.01s-79.23-123.4-117.48-123.4Z"/>
    <g>
      <polygon class="cls-4" points="552.03 286.33 552.03 353.11 557.36 353.11 560.21 353.11 568.38 353.11 568.38 296.5 568.38 286.33 552.03 286.33"/>
      <path class="cls-2" d="M524.58,289.92c2.77,1.51,68.69,1.3,71.58-.95,2.89-2.25-15.23-82.35-28-119.18s-8.8-35.02-21.21,2.19c-12.4,37.21-26.16,115.88-22.37,117.94Z"/>
      <path class="cls-7" d="M524.58,289.92c1.41,.77,30.82,1.28,50.7,.68,4.15-19.63-13.36-139.7-15.08-143.83-3.92-9.41-4.63-.64-13.25,25.21-12.4,37.21-26.16,115.88-22.37,117.94Z"/>
      <path class="cls-5" d="M559.3,301.87c2.61-5.22,9.08-3.13,9.08-3.13v54.36h-8.18l-.9-51.23Z"/>
      <circle class="cls-2" cx="551.6" cy="265.19" r="4.38"/>
    </g>
    <path class="cls-10" d="M579.98,348c-68.31,0-69.81-55.41-107.77-55.41h-129.65c37.95,0,39.46,55.41,107.77,55.41,33.03,0,101.44,87,101.44,87h129.65s-68.41-87-101.44-87Z"/>
    <path class="cls-8" d="M450.33,348c-68.31,0-69.81-55.41-107.77-55.41H197.29c-9.36,.9-22.87,4.51-32.01,16.9-15.26,20.68-38.47,42.49-76.39,42.49s-43.58,31.67-66.23,57.35L0,435H551.78s-68.41-87-101.44-87Z"/>
    <g>
      <polygon class="cls-3" points="259.4 193.59 258.84 115.42 282.01 115.42 285.21 158.91 259.4 193.59"/>
      <polygon class="cls-12" points="266.93 164.48 266.58 115.42 289.74 115.42 292.95 158.91 266.93 164.48"/>
      <polygon class="cls-6" points="254.51 292.58 351.2 292.58 419.84 292.58 419.84 214.6 379.69 145.95 335.09 198.75 254.51 212.14 254.51 292.58"/>
      <polygon class="cls-14" points="242.29 215.55 281.48 134.31 378.38 134.31 341.07 215.55 242.29 215.55"/>
      <polygon class="cls-1" points="347.84 236.7 379.42 173.42 419.78 235.94 419.84 292.58 347.84 292.58 347.84 236.7"/>
      <polygon class="cls-3" points="242.29 215.55 248.11 223.42 345.88 223.42 341.07 215.55 242.29 215.55"/>
      <polygon class="cls-12" points="425.58 212.57 419.84 219.26 379.06 153.49 345.88 223.42 341.07 215.55 378.38 134.31 425.58 212.57"/>
      <rect class="cls-15" x="289.25" y="244.47" width="19.41" height="48.12"/>
      <rect class="cls-1" x="263.92" y="244.47" width="19.41" height="17.98"/>
      <rect class="cls-1" x="314.76" y="244.47" width="19.41" height="17.98"/>
    </g>
    <g>
      <path class="cls-2" d="M132.98,261.25c.38-1.73,.58-3.52,.58-5.37,0-11.62-7.89-21.4-18.6-24.29,.94-2.97,1.45-6.12,1.45-9.4,0-17.15-13.91-31.05-31.05-31.05-3.11,0-6.12,.46-8.95,1.32,12.79,3.84,22.1,15.7,22.1,29.74,0,3.28-.51,6.44-1.45,9.4,10.71,2.88,18.6,12.66,18.6,24.29,0,1.84-.2,3.64-.58,5.37,12.78,5.91,21.65,18.84,21.65,33.84,0,20.58-16.69,37.27-37.27,37.27h17.9c20.58,0,37.27-16.69,37.27-37.27,0-15-8.87-27.93-21.65-33.84Z"/>
      <path class="cls-7" d="M136.73,295.09c0-15-8.87-27.93-21.65-33.84,.38-1.73,.58-3.52,.58-5.37,0-11.62-7.89-21.4-18.6-24.29,.94-2.97,1.45-6.12,1.45-9.4,0-14.03-9.32-25.89-22.1-29.74-12.79,3.84-22.1,15.7-22.1,29.74,0,3.12,.46,6.12,1.32,8.96-11.7,2.16-20.57,12.4-20.57,24.73,0,2.07,.25,4.08,.73,6.01-12.07,6.17-20.34,18.72-20.34,33.2,0,20.58,16.69,37.27,37.27,37.27h46.75c20.58,0,37.27-16.69,37.27-37.27Z"/>
      <path class="cls-2" d="M32.39,277.58c-.04,1.55-.98,2.78-2.11,2.75-1.13-.03-2.01-1.3-1.97-2.85,.04-1.55,2.16-4.73,2.16-4.73,0,0,1.96,3.29,1.92,4.83"/>
      <path class="cls-4" d="M103.67,265.25c-.66-1.36-3.93,1.23-5.53,2.28s-8.54,8.78-8.54,8.78v.27s.27-41.32,0-45.33-4.47-3.54-4.61,0-1.71,45.22-1.71,45.22c0,0-8.16-7.9-9.66-8.94s-4.67-3-5.03-1.33,14.68,19.57,14.68,19.57v27.34s-8.45-10.23-12.54-13.25c-4.14-3.06-8.66-5.58-7.34-2.13,.67,1.74,19.11,23.71,19.11,23.71l-2.43,41.71h13.83l-2.92-41.75s19.43-22.11,20.35-23.4c1.07-1.48-.54-4.06-8.95,3.03-1.59,1.34-12.8,12.7-12.8,12.7v-28.12s14.73-18.98,14.07-20.34Z"/>
      <path class="cls-2" d="M76.93,216.16c-.04,1.55-.98,2.78-2.11,2.75-1.13-.03-2.01-1.3-1.97-2.85,.04-1.55,2.16-4.73,2.16-4.73,0,0,1.96,3.29,1.92,4.83"/>
      <path class="cls-2" d="M65.21,215.78c-.04,1.55-.98,2.78-2.11,2.75-1.13-.03-2.01-1.3-1.97-2.85,.04-1.55,2.16-4.73,2.16-4.73,0,0,1.96,3.29,1.92,4.83"/>
      <path class="cls-2" d="M54.2,242.79c-.04,1.55-.98,2.78-2.11,2.75-1.13-.03-2.01-1.3-1.97-2.85,.04-1.55,2.16-4.73,2.16-4.73,0,0,1.96,3.29,1.92,4.83"/>
      <path class="cls-2" d="M59.91,248.92c-.04,1.55-.98,2.78-2.11,2.75-1.13-.03-2.01-1.3-1.97-2.85,.04-1.55,2.16-4.73,2.16-4.73,0,0,1.96,3.29,1.92,4.83"/>
      <path class="cls-2" d="M48.19,248.55c-.04,1.55-.98,2.78-2.11,2.75-1.13-.03-2.01-1.3-1.97-2.85,.04-1.55,2.16-4.73,2.16-4.73,0,0,1.96,3.29,1.92,4.83"/>
      <path class="cls-2" d="M38.4,271.83c-.04,1.55-.98,2.78-2.11,2.75-1.13-.03-2.01-1.3-1.97-2.85,.04-1.55,2.16-4.73,2.16-4.73,0,0,1.96,3.29,1.92,4.83"/>
      <path class="cls-2" d="M44.11,277.96c-.04,1.55-.98,2.78-2.11,2.75-1.13-.03-2.01-1.3-1.97-2.85,.04-1.55,2.16-4.73,2.16-4.73,0,0,1.96,3.29,1.92,4.83"/>
    </g>
    <g>
      <path class="cls-2" d="M867.09,210.92c.38-1.73,.58-3.52,.58-5.37,0-11.62-7.89-21.4-18.6-24.29,.94-2.97,1.45-6.12,1.45-9.4,0-17.15-13.91-31.05-31.05-31.05-3.11,0-6.12,.46-8.95,1.32,12.79,3.84,22.1,15.7,22.1,29.74,0,3.28-.51,6.44-1.45,9.4,10.71,2.88,18.6,12.66,18.6,24.29,0,1.84-.2,3.64-.58,5.37,12.78,5.91,21.65,18.84,21.65,33.84,0,20.58-16.69,37.27-37.27,37.27h17.9c20.58,0,37.27-16.69,37.27-37.27,0-15-8.87-27.93-21.65-33.84Z"/>
      <path class="cls-7" d="M870.84,244.76c0-15-8.87-27.93-21.65-33.84,.38-1.73,.58-3.52,.58-5.37,0-11.62-7.89-21.4-18.6-24.29,.94-2.97,1.45-6.12,1.45-9.4,0-14.03-9.32-25.89-22.1-29.74-12.79,3.84-22.1,15.7-22.1,29.74,0,3.12,.46,6.12,1.32,8.96-11.7,2.16-20.57,12.4-20.57,24.73,0,2.07,.25,4.08,.73,6.01-12.07,6.17-20.34,18.72-20.34,33.2,0,20.58,16.69,37.27,37.27,37.27h46.75c20.58,0,37.27-16.69,37.27-37.27Z"/>
      <path class="cls-2" d="M766.5,227.25c-.04,1.55-.98,2.78-2.11,2.75-1.13-.03-2.01-1.3-1.97-2.85,.04-1.55,2.16-4.73,2.16-4.73,0,0,1.96,3.29,1.92,4.83"/>
      <path class="cls-4" d="M837.78,214.92c-.66-1.36-3.93,1.23-5.53,2.28s-8.54,8.78-8.54,8.78v.27s.27-41.32,0-45.33-4.47-3.54-4.61,0-1.71,45.22-1.71,45.22c0,0-8.16-7.9-9.66-8.94s-4.67-3-5.03-1.33,14.68,19.57,14.68,19.57v27.34s-8.45-10.23-12.54-13.25c-4.14-3.06-8.66-5.58-7.34-2.13,.67,1.74,19.11,23.71,19.11,23.71l-2.43,41.71h13.83l-2.92-41.75s19.43-22.11,20.35-23.4c1.07-1.48-.54-4.06-8.95,3.03-1.59,1.34-12.8,12.7-12.8,12.7v-28.12s14.73-18.98,14.07-20.34Z"/>
      <path class="cls-2" d="M811.04,165.83c-.04,1.55-.98,2.78-2.11,2.75-1.13-.03-2.01-1.3-1.97-2.85,.04-1.55,2.16-4.73,2.16-4.73,0,0,1.96,3.29,1.92,4.83"/>
      <path class="cls-2" d="M799.32,165.45c-.04,1.55-.98,2.78-2.11,2.75-1.13-.03-2.01-1.3-1.97-2.85,.04-1.55,2.16-4.73,2.16-4.73,0,0,1.96,3.29,1.92,4.83"/>
      <path class="cls-2" d="M788.32,192.46c-.04,1.55-.98,2.78-2.11,2.75-1.13-.03-2.01-1.3-1.97-2.85,.04-1.55,2.16-4.73,2.16-4.73,0,0,1.96,3.29,1.92,4.83"/>
      <path class="cls-2" d="M794.03,198.59c-.04,1.55-.98,2.78-2.11,2.75-1.13-.03-2.01-1.3-1.97-2.85,.04-1.55,2.16-4.73,2.16-4.73,0,0,1.96,3.29,1.92,4.83"/>
      <path class="cls-2" d="M782.31,198.21c-.04,1.55-.98,2.78-2.11,2.75-1.13-.03-2.01-1.3-1.97-2.85,.04-1.55,2.16-4.73,2.16-4.73,0,0,1.96,3.29,1.92,4.83"/>
      <path class="cls-2" d="M772.51,221.5c-.04,1.55-.98,2.78-2.11,2.75-1.13-.03-2.01-1.3-1.97-2.85,.04-1.55,2.16-4.73,2.16-4.73,0,0,1.96,3.29,1.92,4.83"/>
      <path class="cls-2" d="M778.22,227.63c-.04,1.55-.98,2.78-2.11,2.75-1.13-.03-2.01-1.3-1.97-2.85,.04-1.55,2.16-4.73,2.16-4.73,0,0,1.96,3.29,1.92,4.83"/>
    </g>
    <g>
      <polygon class="cls-4" points="205.85 205.13 205.85 293.07 212.87 293.07 216.62 293.07 227.39 293.07 227.39 218.52 227.39 205.13 205.85 205.13"/>
      <path class="cls-5" d="M215.43,225.6c3.44-6.87,11.96-4.12,11.96-4.12v71.59h-10.77l-1.19-67.47Z"/>
      <path class="cls-2" d="M169.71,209.88c3.65,.56,90.46,.48,94.26-.35s-20.06-30.27-36.87-43.82-11.59-12.87-27.93,.81c-16.33,13.68-34.46,42.6-29.46,43.36Z"/>
      <path class="cls-7" d="M169.71,209.88c2.2,.33,34.59,.44,60.82,.29,17.3-.1-11.64-51.39-13.91-52.91-5.16-3.46-6.1-.24-17.45,9.27-16.33,13.68-34.46,42.6-29.46,43.36Z"/>
      <path class="cls-2" d="M169.71,174.31c3.65,.56,90.46,.48,94.26-.35,3.81-.83-20.06-30.27-36.87-43.82s-11.59-12.87-27.93,.81c-16.33,13.68-34.46,42.6-29.46,43.36Z"/>
      <path class="cls-7" d="M169.71,174.31c2.2,.33,34.59,.44,60.82,.29,17.3-.1-11.64-51.39-13.91-52.91-5.16-3.46-6.1-.24-17.45,9.27-16.33,13.68-34.46,42.6-29.46,43.36Z"/>
      <path class="cls-2" d="M169.71,141.75c3.65,.56,90.46,.48,94.26-.35s-20.06-30.27-36.87-43.82-11.59-12.87-27.93,.81c-16.33,13.68-34.46,42.6-29.46,43.36Z"/>
      <path class="cls-7" d="M169.71,141.75c2.2,.33,34.59,.44,60.82,.29,17.3-.1-11.64-51.39-13.91-52.91-5.16-3.46-6.1-.24-17.45,9.27-16.33,13.68-34.46,42.6-29.46,43.36Z"/>
    </g>
    <path class="cls-10" d="M269.87,292.58c-32.03,6.11-68.72,20.6-46.42,32.53,22.31,11.93,80.1,11.65,83.53,29.54s-8.71,24.71-44.07,32.38c-35.36,7.67-40.64,47.97-40.64,47.97h49.61s-7.12-30.07,28.33-36.61c14.47-2.67,32.63-22.72,32.63-36.07,0-43.18-65.71-38.63-73.1-44.31-7.39-5.68,26.85-25.43,26.85-25.43h-16.73Z"/>
    <g>
      <path class="cls-8" d="M691.2,377.52c0-3.33-.59-6.51-1.67-9.46-.62-1.69-1.4-3.3-2.31-4.81-.69-1.14-1.46-2.22-2.3-3.24-5.05-6.12-12.69-10.02-21.24-10.02-.97,0-1.93,.05-2.87,.15,.13-1.02,.21-2.06,.21-3.12,0-2.86-.51-5.61-1.44-8.15-.53-1.45-1.2-2.84-1.99-4.14-.4-.65-.82-1.28-1.28-1.89-4.32-5.78-11.22-9.52-18.99-9.52-13.09,0-23.7,10.61-23.7,23.7,0,.87,.05,1.73,.14,2.58-.92-.09-1.85-.14-2.8-.14-15.2,0-27.52,12.32-27.52,27.52,0,13.01,9.03,23.9,21.16,26.78,2.52,9.56,11.22,16.61,21.57,16.61,4.06,0,7.87-1.09,11.15-2.99,3.28,1.9,7.09,2.99,11.15,2.99,10.14,0,18.7-6.77,21.4-16.04,12.21-2.81,21.33-13.75,21.33-26.81"/>
      <path class="cls-10" d="M639.48,342.62c0,1.61-.95,2.91-2.12,2.91s-2.12-1.3-2.12-2.91,2.12-4.97,2.12-4.97c0,0,2.12,3.37,2.12,4.97"/>
      <path class="cls-10" d="M654.54,369.45c0,1.61-.95,2.91-2.12,2.91s-2.12-1.3-2.12-2.91,2.12-4.97,2.12-4.97c0,0,2.12,3.37,2.12,4.97"/>
      <path class="cls-10" d="M622.44,361.57c0,1.61-.95,2.91-2.12,2.91s-2.12-1.3-2.12-2.91,2.12-4.98,2.12-4.98c0,0,2.12,3.37,2.12,4.98"/>
      <path class="cls-10" d="M668.58,385.82c0,1.61-.95,2.91-2.12,2.91s-2.12-1.3-2.12-2.91,2.12-4.98,2.12-4.98c0,0,2.12,3.37,2.12,4.98"/>
      <path class="cls-10" d="M616.18,398.83c0,1.61-.95,2.91-2.12,2.91s-2.12-1.3-2.12-2.91,2.12-4.97,2.12-4.97c0,0,2.12,3.37,2.12,4.97"/>
      <path class="cls-10" d="M678.35,369.45c0,1.61-.95,2.91-2.12,2.91s-2.12-1.3-2.12-2.91,2.12-4.97,2.12-4.97c0,0,2.12,3.37,2.12,4.97"/>
      <path class="cls-10" d="M656.66,407.64c0,1.61-.95,2.91-2.12,2.91s-2.12-1.3-2.12-2.91,2.12-4.98,2.12-4.98c0,0,2.12,3.37,2.12,4.98"/>
      <path class="cls-10" d="M602.91,377.99c0,1.61-.95,2.91-2.12,2.91s-2.12-1.3-2.12-2.91,2.12-4.97,2.12-4.97c0,0,2.12,3.37,2.12,4.97"/>
      <path class="cls-10" d="M637.36,379.89c0,1.61-.95,2.91-2.12,2.91s-2.12-1.3-2.12-2.91,2.12-4.97,2.12-4.97c0,0,2.12,3.37,2.12,4.97"/>
    </g>
    <g>
      <polygon class="cls-4" points="1256.03 223.79 1256.03 306.94 1262.67 306.94 1266.21 306.94 1276.39 306.94 1276.39 236.46 1276.39 223.79 1256.03 223.79"/>
      <path class="cls-2" d="M1221.86,228.26c3.45,1.88,85.53,1.62,89.13-1.18,3.6-2.8-18.96-102.54-34.86-148.4-15.9-45.86-10.96-43.6-26.4,2.73-15.44,46.33-32.58,144.28-27.86,146.85Z"/>
      <path class="cls-7" d="M1221.86,228.26c1.76,.96,38.38,1.6,63.13,.85,5.17-24.44-16.63-173.94-18.78-179.09-4.88-11.72-5.77-.8-16.5,31.39-15.44,46.33-32.58,144.28-27.86,146.85Z"/>
      <path class="cls-5" d="M1265.09,243.15c3.25-6.5,11.31-3.9,11.31-3.9v67.69h-10.18l-1.13-63.79Z"/>
      <circle class="cls-2" cx="1255.49" cy="197.47" r="5.46"/>
    </g>
    <g>
      <polygon class="cls-4" points="1638.99 178.34 1638.99 261.49 1645.62 261.49 1649.17 261.49 1659.35 261.49 1659.35 191.01 1659.35 178.34 1638.99 178.34"/>
      <path class="cls-2" d="M1604.81,182.81c3.45,1.88,85.53,1.62,89.13-1.18,3.6-2.8-18.96-102.54-34.86-148.4-15.9-45.86-10.96-43.6-26.4,2.73-15.44,46.33-32.58,144.28-27.86,146.85Z"/>
      <path class="cls-7" d="M1604.81,182.81c1.76,.96,38.38,1.6,63.13,.85,5.17-24.44-16.63-173.94-18.78-179.09-4.88-11.72-5.77-.8-16.5,31.39-15.44,46.33-32.58,144.28-27.86,146.85Z"/>
      <path class="cls-5" d="M1648.04,197.7c3.25-6.5,11.31-3.9,11.31-3.9v67.69h-10.18l-1.13-63.79Z"/>
      <circle class="cls-2" cx="1638.45" cy="152.02" r="5.46"/>
    </g>
    <g>
      <polygon class="cls-4" points="1563.26 178.34 1563.26 261.49 1569.89 261.49 1573.44 261.49 1583.62 261.49 1583.62 191.01 1583.62 178.34 1563.26 178.34"/>
      <path class="cls-2" d="M1529.08,182.81c3.45,1.88,85.53,1.62,89.13-1.18,3.6-2.8-18.96-102.54-34.86-148.4-15.9-45.86-10.96-43.6-26.4,2.73-15.44,46.33-32.58,144.28-27.86,146.85Z"/>
      <path class="cls-7" d="M1529.08,182.81c1.76,.96,38.38,1.6,63.13,.85,5.17-24.44-16.63-173.94-18.78-179.09-4.88-11.72-5.77-.8-16.5,31.39-15.44,46.33-32.58,144.28-27.86,146.85Z"/>
      <path class="cls-5" d="M1572.31,197.7c3.25-6.5,11.31-3.9,11.31-3.9v67.69h-10.18l-1.13-63.79Z"/>
      <circle class="cls-2" cx="1562.72" cy="152.02" r="5.46"/>
    </g>
    <path class="cls-2" d="M1862.25,327.12c-95.21,0-97.31-68.77-150.21-68.77h-180.71c52.9,0,55,68.77,150.21,68.77,46.04,0,141.39,107.97,141.39,107.97h180.71s-95.35-107.97-141.39-107.97Z"/>
    <path class="cls-8" d="M1328.84,258.35h14.9s-6.16-.75-14.9,0Z"/>
    <path class="cls-10" d="M1681.54,327.12c-95.21,0-97.31-68.77-150.21-68.77h-202.5c-13.05,1.12-31.87,5.6-44.61,20.97-21.27,25.67-53.62,52.73-106.47,52.73s-60.74,39.31-92.32,71.17l-31.58,31.87h769.08s-95.35-107.97-141.39-107.97Z"/>
    <g>
      <path class="cls-16" d="M1465.55,306.62s-1.68,4.92-4.03,7.75c-1.56,1.88-5.21,2.69-7.49,3.02l-1.39-104.86h-2.61l-1.29,95.3c-.65-.05-7.16-.56-9.39-3.24-2.35-2.83-4.03-7.75-4.03-7.75l-2.09,.97s.78,6.93,4.55,11.33c3,3.5,8.66,5.5,10.86,6.17l-.33,24.33h6.01l-.2-15.19c2.68-.99,6.63-2.81,8.97-5.53,3.77-4.4,4.55-11.33,4.55-11.33l-2.09-.97Z"/>
      <path class="cls-2" d="M1485.21,183.91c-4.53-31.05-14.94-33.89-32.92-33.89-4.2,0-7.92,.06-11.22,.56,11.98,1.74,19.35,8.54,22.97,33.33,.9,6.17-10.72,30.06-10.72,36.76,0,18.55,13.15,38.06,7.1,50.97-4.9,10.44-11.36,18.24-18.69,22.11,3.36,1.77,6.91,2.74,10.57,2.74,11.67,0,22.15-9.62,29.3-24.86,6.05-12.9-7.1-32.42-7.1-50.97,0-6.71,11.62-30.59,10.72-36.76Z"/>
      <path class="cls-7" d="M1460.4,271.64c6.06-12.9-7.1-32.42-7.1-50.97,0-6.71,11.62-30.59,10.72-36.76-3.61-24.79-10.99-31.6-22.97-33.33-10.35,1.57-16.58,7.5-20.42,29.81-1.22,7.1,7.99,32.43,7.99,40.29,0,17.38-12.14,35.93-6.75,48.49,5.02,11.7,11.92,20.41,19.84,24.59,7.33-3.88,13.79-11.67,18.69-22.11Z"/>
      <path class="cls-13" d="M1462.16,203.43h0c3.13,3.13,3.13,8.21,0,11.34-3.13-3.13-3.13-8.21,0-11.34"/>
      <path class="cls-13" d="M1440.83,203.43h0c3.13,3.13,3.13,8.21,0,11.34-3.13-3.13-3.13-8.21,0-11.34"/>
      <path class="cls-13" d="M1451.42,185.77h0c3.13,3.13,3.13,8.21,0,11.34-3.13-3.13-3.13-8.21,0-11.34"/>
      <path class="cls-13" d="M1470.86,179.06h0c3.13,3.13,3.13,8.21,0,11.34h0s0,0,0,0c-3.13-3.13-3.13-8.21,0-11.34"/>
      <path class="cls-13" d="M1429.74,179.06h0c3.13,3.13,3.13,8.21,0,11.34h0s0,0,0,0c-3.13-3.13-3.13-8.21,0-11.34"/>
      <path class="cls-13" d="M1451.63,163.69h0c3.13,3.13,3.13,8.21,0,11.34-3.13-3.13-3.13-8.21,0-11.34"/>
      <path class="cls-13" d="M1462.16,268.75h0c3.13,3.13,3.13,8.21,0,11.34-3.13-3.13-3.13-8.21,0-11.34"/>
      <path class="cls-13" d="M1440.83,268.75h0c3.13,3.13,3.13,8.21,0,11.34-3.13-3.13-3.13-8.21,0-11.34"/>
      <path class="cls-13" d="M1451.42,251.09h0c3.13,3.13,3.13,8.21,0,11.34-3.13-3.13-3.13-8.21,0-11.34"/>
      <path class="cls-13" d="M1470.86,244.39h0c3.13,3.13,3.13,8.21,0,11.34h0s0,0,0,0c-3.13-3.13-3.13-8.21,0-11.34"/>
      <path class="cls-13" d="M1429.74,244.39h0c3.13,3.13,3.13,8.21,0,11.34h0s0,0,0,0c-3.13-3.13-3.13-8.21,0-11.34"/>
      <path class="cls-13" d="M1451.63,229.01h0c3.13,3.13,3.13,8.21,0,11.34-3.13-3.13-3.13-8.21,0-11.34"/>
    </g>
    <g>
      <path class="cls-16" d="M1543.17,375.32s-1.68,4.92-4.03,7.75c-1.56,1.88-5.21,2.69-7.49,3.02l-1.39-104.86h-2.61l-1.29,95.3c-.65-.05-7.16-.56-9.39-3.24-2.35-2.83-4.03-7.75-4.03-7.75l-2.09,.97s.78,6.93,4.55,11.33c3,3.5,8.66,5.5,10.86,6.17l-.33,24.33h6.01l-.2-15.19c2.68-.99,6.63-2.81,8.97-5.53,3.77-4.4,4.55-11.33,4.55-11.33l-2.09-.97Z"/>
      <path class="cls-2" d="M1562.82,252.62c-4.53-31.05-14.94-33.89-32.92-33.89-4.2,0-7.92,.06-11.22,.56,11.98,1.74,19.35,8.54,22.97,33.33,.9,6.17-10.72,30.06-10.72,36.76,0,18.55,13.15,38.06,7.1,50.97-4.9,10.44-11.36,18.24-18.69,22.11,3.36,1.77,6.91,2.74,10.57,2.74,11.67,0,22.15-9.62,29.3-24.86,6.05-12.9-7.1-32.42-7.1-50.97,0-6.71,11.62-30.59,10.72-36.76Z"/>
      <path class="cls-7" d="M1538.02,340.35c6.06-12.9-7.1-32.42-7.1-50.97,0-6.71,11.62-30.59,10.72-36.76-3.61-24.79-10.99-31.6-22.97-33.33-10.35,1.57-16.58,7.5-20.42,29.81-1.22,7.1,7.99,32.43,7.99,40.29,0,17.38-12.14,35.93-6.75,48.49,5.02,11.7,11.92,20.41,19.84,24.59,7.33-3.88,13.79-11.67,18.69-22.11Z"/>
      <path class="cls-13" d="M1539.78,272.13h0c3.13,3.13,3.13,8.21,0,11.34-3.13-3.13-3.13-8.21,0-11.34"/>
      <path class="cls-13" d="M1518.44,272.13h0c3.13,3.13,3.13,8.21,0,11.34-3.13-3.13-3.13-8.21,0-11.34"/>
      <path class="cls-13" d="M1529.03,254.48h0c3.13,3.13,3.13,8.21,0,11.34-3.13-3.13-3.13-8.21,0-11.34"/>
      <path class="cls-13" d="M1548.48,247.77h0c3.13,3.13,3.13,8.21,0,11.34h0s0,0,0,0c-3.13-3.13-3.13-8.21,0-11.34"/>
      <path class="cls-13" d="M1507.36,247.77h0c3.13,3.13,3.13,8.21,0,11.34h0s0,0,0,0c-3.13-3.13-3.13-8.21,0-11.34"/>
      <path class="cls-13" d="M1529.25,232.4h0c3.13,3.13,3.13,8.21,0,11.34-3.13-3.13-3.13-8.21,0-11.34"/>
      <path class="cls-13" d="M1539.78,337.46h0c3.13,3.13,3.13,8.21,0,11.34-3.13-3.13-3.13-8.21,0-11.34"/>
      <path class="cls-13" d="M1518.44,337.46h0c3.13,3.13,3.13,8.21,0,11.34-3.13-3.13-3.13-8.21,0-11.34"/>
      <path class="cls-13" d="M1529.03,319.8h0c3.13,3.13,3.13,8.21,0,11.34-3.13-3.13-3.13-8.21,0-11.34"/>
      <path class="cls-13" d="M1548.48,313.09h0c3.13,3.13,3.13,8.21,0,11.34h0s0,0,0,0c-3.13-3.13-3.13-8.21,0-11.34"/>
      <path class="cls-13" d="M1507.36,313.09h0c3.13,3.13,3.13,8.21,0,11.34h0s0,0,0,0c-3.13-3.13-3.13-8.21,0-11.34"/>
      <path class="cls-13" d="M1529.25,297.72h0c3.13,3.13,3.13,8.21,0,11.34-3.13-3.13-3.13-8.21,0-11.34"/>
    </g>
    <g>
      <path class="cls-16" d="M1378.09,376.69s-1.68,4.92-4.03,7.75c-1.56,1.88-5.21,2.69-7.49,3.02l-1.39-104.86h-2.61l-1.29,95.3c-.65-.05-7.16-.56-9.39-3.24-2.35-2.83-4.03-7.75-4.03-7.75l-2.09,.97s.78,6.93,4.55,11.33c3,3.5,8.66,5.5,10.86,6.17l-.33,24.33h6.01l-.2-15.19c2.68-.99,6.63-2.81,8.97-5.53,3.77-4.4,4.55-11.33,4.55-11.33l-2.09-.97Z"/>
      <path class="cls-2" d="M1397.75,253.99c-4.53-31.05-14.94-33.89-32.92-33.89-4.2,0-7.92,.06-11.22,.56,11.98,1.74,19.35,8.54,22.97,33.33,.9,6.17-10.72,30.06-10.72,36.76,0,18.55,13.15,38.06,7.1,50.97-4.9,10.44-11.36,18.24-18.69,22.11,3.36,1.77,6.91,2.74,10.57,2.74,11.67,0,22.15-9.62,29.3-24.86,6.05-12.9-7.1-32.42-7.1-50.97,0-6.71,11.62-30.59,10.72-36.76Z"/>
      <path class="cls-7" d="M1372.94,341.72c6.06-12.9-7.1-32.42-7.1-50.97,0-6.71,11.62-30.59,10.72-36.76-3.61-24.79-10.99-31.6-22.97-33.33-10.35,1.57-16.58,7.5-20.42,29.81-1.22,7.1,7.99,32.43,7.99,40.29,0,17.38-12.14,35.93-6.75,48.49,5.02,11.7,11.92,20.41,19.84,24.59,7.33-3.88,13.79-11.67,18.69-22.11Z"/>
      <path class="cls-13" d="M1374.7,273.5h0c3.13,3.13,3.13,8.21,0,11.34-3.13-3.13-3.13-8.21,0-11.34"/>
      <path class="cls-13" d="M1353.37,273.5h0c3.13,3.13,3.13,8.21,0,11.34-3.13-3.13-3.13-8.21,0-11.34"/>
      <path class="cls-13" d="M1363.96,255.85h0c3.13,3.13,3.13,8.21,0,11.34-3.13-3.13-3.13-8.21,0-11.34"/>
      <path class="cls-13" d="M1383.4,249.14h0c3.13,3.13,3.13,8.21,0,11.34h0s0,0,0,0c-3.13-3.13-3.13-8.21,0-11.34"/>
      <path class="cls-13" d="M1342.29,249.14h0c3.13,3.13,3.13,8.21,0,11.34h0s0,0,0,0c-3.13-3.13-3.13-8.21,0-11.34"/>
      <path class="cls-13" d="M1364.18,233.77h0c3.13,3.13,3.13,8.21,0,11.34-3.13-3.13-3.13-8.21,0-11.34"/>
      <path class="cls-13" d="M1374.7,338.83h0c3.13,3.13,3.13,8.21,0,11.34-3.13-3.13-3.13-8.21,0-11.34"/>
      <path class="cls-13" d="M1353.37,338.83h0c3.13,3.13,3.13,8.21,0,11.34-3.13-3.13-3.13-8.21,0-11.34"/>
      <path class="cls-13" d="M1363.96,321.17h0c3.13,3.13,3.13,8.21,0,11.34-3.13-3.13-3.13-8.21,0-11.34"/>
      <path class="cls-13" d="M1383.4,314.46h0c3.13,3.13,3.13,8.21,0,11.34h0s0,0,0,0c-3.13-3.13-3.13-8.21,0-11.34"/>
      <path class="cls-13" d="M1342.29,314.46h0c3.13,3.13,3.13,8.21,0,11.34h0s0,0,0,0c-3.13-3.13-3.13-8.21,0-11.34"/>
      <path class="cls-13" d="M1364.18,299.09h0c3.13,3.13,3.13,8.21,0,11.34-3.13-3.13-3.13-8.21,0-11.34"/>
    </g>
    <g>
      <path class="cls-16" d="M1796.51,299.07s-1.68,4.92-4.03,7.75c-1.56,1.88-5.21,2.69-7.49,3.02l-1.39-104.86h-2.61l-1.29,95.3c-.65-.05-7.16-.56-9.39-3.24-2.35-2.83-4.03-7.75-4.03-7.75l-2.09,.97s.78,6.93,4.55,11.33c3,3.5,8.66,5.5,10.86,6.17l-.33,24.33h6.01l-.2-15.19c2.68-.99,6.63-2.81,8.97-5.53,3.77-4.4,4.55-11.33,4.55-11.33l-2.09-.97Z"/>
      <path class="cls-2" d="M1816.16,176.37c-4.53-31.05-14.94-33.89-32.92-33.89-4.2,0-7.92,.06-11.22,.56,11.98,1.74,19.35,8.54,22.97,33.33,.9,6.17-10.72,30.06-10.72,36.76,0,18.55,13.15,38.06,7.1,50.97-4.9,10.44-11.36,18.24-18.69,22.11,3.36,1.77,6.91,2.74,10.57,2.74,11.67,0,22.15-9.62,29.3-24.86,6.05-12.9-7.1-32.42-7.1-50.97,0-6.71,11.62-30.59,10.72-36.76Z"/>
      <path class="cls-7" d="M1791.35,264.1c6.06-12.9-7.1-32.42-7.1-50.97,0-6.71,11.62-30.59,10.72-36.76-3.61-24.79-10.99-31.6-22.97-33.33-10.35,1.57-16.58,7.5-20.42,29.81-1.22,7.1,7.99,32.43,7.99,40.29,0,17.38-12.14,35.93-6.75,48.49,5.02,11.7,11.92,20.41,19.84,24.59,7.33-3.88,13.79-11.67,18.69-22.11Z"/>
      <path class="cls-13" d="M1793.12,195.89h0c3.13,3.13,3.13,8.21,0,11.34-3.13-3.13-3.13-8.21,0-11.34"/>
      <path class="cls-13" d="M1771.78,195.89h0c3.13,3.13,3.13,8.21,0,11.34-3.13-3.13-3.13-8.21,0-11.34"/>
      <path class="cls-13" d="M1782.37,178.23h0c3.13,3.13,3.13,8.21,0,11.34-3.13-3.13-3.13-8.21,0-11.34"/>
      <path class="cls-13" d="M1801.81,171.52h0c3.13,3.13,3.13,8.21,0,11.34h0s0,0,0,0c-3.13-3.13-3.13-8.21,0-11.34"/>
      <path class="cls-13" d="M1760.7,171.52h0c3.13,3.13,3.13,8.21,0,11.34h0s0,0,0,0c-3.13-3.13-3.13-8.21,0-11.34"/>
      <path class="cls-13" d="M1782.59,156.15h0c3.13,3.13,3.13,8.21,0,11.34-3.13-3.13-3.13-8.21,0-11.34"/>
      <path class="cls-13" d="M1793.12,261.21h0c3.13,3.13,3.13,8.21,0,11.34-3.13-3.13-3.13-8.21,0-11.34"/>
      <path class="cls-13" d="M1771.78,261.21h0c3.13,3.13,3.13,8.21,0,11.34-3.13-3.13-3.13-8.21,0-11.34"/>
      <path class="cls-13" d="M1782.37,243.55h0c3.13,3.13,3.13,8.21,0,11.34-3.13-3.13-3.13-8.21,0-11.34"/>
      <path class="cls-13" d="M1801.81,236.84h0c3.13,3.13,3.13,8.21,0,11.34h0s0,0,0,0c-3.13-3.13-3.13-8.21,0-11.34"/>
      <path class="cls-13" d="M1760.7,236.84h0c3.13,3.13,3.13,8.21,0,11.34h0s0,0,0,0c-3.13-3.13-3.13-8.21,0-11.34"/>
      <path class="cls-13" d="M1782.59,221.47h0c3.13,3.13,3.13,8.21,0,11.34-3.13-3.13-3.13-8.21,0-11.34"/>
    </g>
    <g>
      <path class="cls-16" d="M1871.37,382.85s-1.68,4.92-4.03,7.75c-1.56,1.88-5.21,2.69-7.49,3.02l-1.39-104.86h-2.61l-1.29,95.3c-.65-.05-7.16-.56-9.39-3.24-2.35-2.83-4.03-7.75-4.03-7.75l-2.09,.97s.78,6.93,4.55,11.33c3,3.5,8.66,5.5,10.86,6.17l-.33,24.33h6.01l-.2-15.19c2.68-.99,6.63-2.81,8.97-5.53,3.77-4.4,4.55-11.33,4.55-11.33l-2.09-.97Z"/>
      <path class="cls-2" d="M1891.02,260.14c-4.53-31.05-14.94-33.89-32.92-33.89-4.2,0-7.92,.06-11.22,.56,11.98,1.74,19.35,8.54,22.97,33.33,.9,6.17-10.72,30.06-10.72,36.76,0,18.55,13.15,38.06,7.1,50.97-4.9,10.44-11.36,18.24-18.69,22.11,3.36,1.77,6.91,2.74,10.57,2.74,11.67,0,22.15-9.62,29.3-24.86,6.05-12.9-7.1-32.42-7.1-50.97,0-6.71,11.62-30.59,10.72-36.76Z"/>
      <path class="cls-7" d="M1866.22,347.87c6.06-12.9-7.1-32.42-7.1-50.97,0-6.71,11.62-30.59,10.72-36.76-3.61-24.79-10.99-31.6-22.97-33.33-10.35,1.57-16.58,7.5-20.42,29.81-1.22,7.1,7.99,32.43,7.99,40.29,0,17.38-12.14,35.93-6.75,48.49,5.02,11.7,11.92,20.41,19.84,24.59,7.33-3.88,13.79-11.67,18.69-22.11Z"/>
      <path class="cls-13" d="M1867.98,279.66h0c3.13,3.13,3.13,8.21,0,11.34-3.13-3.13-3.13-8.21,0-11.34"/>
      <path class="cls-13" d="M1846.65,279.66h0c3.13,3.13,3.13,8.21,0,11.34-3.13-3.13-3.13-8.21,0-11.34"/>
      <path class="cls-13" d="M1857.24,262h0c3.13,3.13,3.13,8.21,0,11.34-3.13-3.13-3.13-8.21,0-11.34"/>
      <path class="cls-13" d="M1876.68,255.29h0c3.13,3.13,3.13,8.21,0,11.34h0s0,0,0,0c-3.13-3.13-3.13-8.21,0-11.34"/>
      <path class="cls-13" d="M1835.56,255.29h0c3.13,3.13,3.13,8.21,0,11.34h0s0,0,0,0c-3.13-3.13-3.13-8.21,0-11.34"/>
      <path class="cls-13" d="M1857.45,239.92h0c3.13,3.13,3.13,8.21,0,11.34-3.13-3.13-3.13-8.21,0-11.34"/>
      <path class="cls-13" d="M1867.98,344.98h0c3.13,3.13,3.13,8.21,0,11.34-3.13-3.13-3.13-8.21,0-11.34"/>
      <path class="cls-13" d="M1846.65,344.98h0c3.13,3.13,3.13,8.21,0,11.34-3.13-3.13-3.13-8.21,0-11.34"/>
      <path class="cls-13" d="M1857.24,327.33h0c3.13,3.13,3.13,8.21,0,11.34-3.13-3.13-3.13-8.21,0-11.34"/>
      <path class="cls-13" d="M1876.68,320.62h0c3.13,3.13,3.13,8.21,0,11.34h0s0,0,0,0c-3.13-3.13-3.13-8.21,0-11.34"/>
      <path class="cls-13" d="M1835.56,320.62h0c3.13,3.13,3.13,8.21,0,11.34h0s0,0,0,0c-3.13-3.13-3.13-8.21,0-11.34"/>
      <path class="cls-13" d="M1857.45,305.24h0c3.13,3.13,3.13,8.21,0,11.34-3.13-3.13-3.13-8.21,0-11.34"/>
    </g>
    <g>
      <path class="cls-2" d="M1179.62,303.19c.38-1.73,.58-3.52,.58-5.37,0-11.62-7.89-21.4-18.6-24.29,.94-2.97,1.45-6.12,1.45-9.4,0-17.15-13.91-31.05-31.05-31.05-3.11,0-6.12,.46-8.95,1.32,12.79,3.84,22.1,15.7,22.1,29.74,0,3.28-.51,6.44-1.45,9.4,10.71,2.88,18.6,12.66,18.6,24.29,0,1.84-.2,3.64-.58,5.37,12.78,5.91,21.65,18.84,21.65,33.84,0,20.58-16.69,37.27-37.27,37.27h17.9c20.58,0,37.27-16.69,37.27-37.27,0-15-8.87-27.93-21.65-33.84Z"/>
      <path class="cls-7" d="M1183.37,337.03c0-15-8.87-27.93-21.65-33.84,.38-1.73,.58-3.52,.58-5.37,0-11.62-7.89-21.4-18.6-24.29,.94-2.97,1.45-6.12,1.45-9.4,0-14.03-9.32-25.89-22.1-29.74-12.79,3.84-22.1,15.7-22.1,29.74,0,3.12,.46,6.12,1.32,8.96-11.7,2.16-20.57,12.4-20.57,24.73,0,2.07,.25,4.08,.73,6.01-12.07,6.17-20.34,18.72-20.34,33.2,0,20.58,16.69,37.27,37.27,37.27h46.75c20.58,0,37.27-16.69,37.27-37.27Z"/>
      <path class="cls-2" d="M1079.03,319.52c-.04,1.55-.98,2.78-2.11,2.75-1.13-.03-2.01-1.3-1.97-2.85,.04-1.55,2.16-4.73,2.16-4.73,0,0,1.96,3.29,1.92,4.83"/>
      <path class="cls-4" d="M1150.31,307.19c-.66-1.36-3.93,1.23-5.53,2.28s-8.54,8.78-8.54,8.78v.27s.27-41.32,0-45.33-4.47-3.54-4.61,0-1.71,45.22-1.71,45.22c0,0-8.16-7.9-9.66-8.94s-4.67-3-5.03-1.33,14.68,19.57,14.68,19.57v27.34s-8.45-10.23-12.54-13.25c-4.14-3.06-8.66-5.58-7.34-2.13,.67,1.74,19.11,23.71,19.11,23.71l-2.43,41.71h13.83l-2.92-41.75s19.43-22.11,20.35-23.4c1.07-1.48-.54-4.06-8.95,3.03-1.59,1.34-12.8,12.7-12.8,12.7v-28.12s14.73-18.98,14.07-20.34Z"/>
      <path class="cls-2" d="M1123.57,258.1c-.04,1.55-.98,2.78-2.11,2.75-1.13-.03-2.01-1.3-1.97-2.85,.04-1.55,2.16-4.73,2.16-4.73,0,0,1.96,3.29,1.92,4.83"/>
      <path class="cls-2" d="M1111.85,257.72c-.04,1.55-.98,2.78-2.11,2.75-1.13-.03-2.01-1.3-1.97-2.85,.04-1.55,2.16-4.73,2.16-4.73,0,0,1.96,3.29,1.92,4.83"/>
      <path class="cls-2" d="M1100.85,284.73c-.04,1.55-.98,2.78-2.11,2.75-1.13-.03-2.01-1.3-1.97-2.85,.04-1.55,2.16-4.73,2.16-4.73,0,0,1.96,3.29,1.92,4.83"/>
      <path class="cls-2" d="M1106.56,290.86c-.04,1.55-.98,2.78-2.11,2.75-1.13-.03-2.01-1.3-1.97-2.85,.04-1.55,2.16-4.73,2.16-4.73,0,0,1.96,3.29,1.92,4.83"/>
      <path class="cls-2" d="M1094.84,290.48c-.04,1.55-.98,2.78-2.11,2.75-1.13-.03-2.01-1.3-1.97-2.85,.04-1.55,2.16-4.73,2.16-4.73,0,0,1.96,3.29,1.92,4.83"/>
      <path class="cls-2" d="M1085.04,313.77c-.04,1.55-.98,2.78-2.11,2.75-1.13-.03-2.01-1.3-1.97-2.85,.04-1.55,2.16-4.73,2.16-4.73,0,0,1.96,3.29,1.92,4.83"/>
      <path class="cls-2" d="M1090.75,319.9c-.04,1.55-.98,2.78-2.11,2.75-1.13-.03-2.01-1.3-1.97-2.85,.04-1.55,2.16-4.73,2.16-4.73,0,0,1.96,3.29,1.92,4.83"/>
    </g>
  </g>
</svg>